/* XPM */
static char *_537_e94068ab326c2df8dc690cb70e32d7317bc1cad2f8be059902a8d5ddd7767479[] = {
/* columns rows colors chars-per-pixel */
"64 64 235 2 ",
"   c #0C0000",
".  c #1A0607",
"X  c #0C1401",
"o  c #0C1B01",
"O  c #041B07",
"+  c #141C04",
"@  c #151704",
"#  c #2E1A04",
"$  c #351B09",
"%  c #361C17",
"&  c #2D1E19",
"*  c #142202",
"=  c #132F00",
"-  c #043501",
";  c #0A3503",
":  c #043B01",
">  c #0A3A01",
",  c #123203",
"<  c #113B06",
"1  c #2D2B0B",
"2  c #36260B",
"3  c #283506",
"4  c #313207",
"5  c #2E2017",
"6  c #35241D",
"7  c #38231C",
"8  c #2D3918",
"9  c #31351A",
"0  c #313618",
"q  c #372822",
"w  c #2E2D20",
"e  c #55370D",
"r  c #4E3D25",
"t  c #523E26",
"y  c #6A3D13",
"u  c #054A01",
"i  c #0C4D02",
"p  c #094303",
"a  c #1D4103",
"s  c #154407",
"d  c #0A5503",
"f  c #115F03",
"g  c #1C4511",
"h  c #244607",
"j  c #275808",
"k  c #254B14",
"l  c #254616",
"z  c #275C1D",
"x  c #036401",
"c  c #026A00",
"v  c #0A6A04",
"b  c #146203",
"n  c #14650B",
"m  c #15690B",
"M  c #186808",
"N  c #027300",
"B  c #017E01",
"V  c #0B7D04",
"C  c #0B7906",
"Z  c #136510",
"A  c #29641C",
"S  c #30621D",
"D  c #3E572D",
"F  c #424B07",
"G  c #43520B",
"H  c #5C4C14",
"J  c #5F4610",
"K  c #545110",
"L  c #6C441B",
"P  c #684516",
"I  c #795C19",
"U  c #6E500F",
"Y  c #6E6311",
"T  c #44592D",
"R  c #544136",
"E  c #475A32",
"W  c #5C5C3E",
"Q  c #575B3A",
"!  c #524132",
"~  c #6F4E2D",
"^  c #466131",
"/  c #7E602E",
"(  c #7E6233",
")  c #5D4C45",
"_  c #5C5A44",
"`  c #6C554C",
"'  c #665647",
"]  c #6E5552",
"[  c #6C5857",
"{  c #725453",
"}  c #79634D",
"|  c #7B6758",
" . c #6D7451",
".. c #737455",
"X. c #6E6E4C",
"o. c #715C61",
"O. c #7E7067",
"+. c #81591B",
"@. c #94731B",
"#. c #92711A",
"$. c #A77C1E",
"%. c #825B32",
"&. c #835420",
"*. c #957521",
"=. c #80602F",
"-. c #A87926",
";. c #826A57",
":. c #9D7E50",
">. c #866E6A",
",. c #018200",
"<. c #048D02",
"1. c #088B05",
"2. c #088406",
"3. c #029302",
"4. c #019D01",
"5. c #059908",
"6. c #00A500",
"7. c #01AB01",
"8. c #03AA08",
"9. c #01B200",
"0. c #B9821D",
"q. c #B28524",
"w. c #B38A3C",
"e. c #B38B36",
"r. c #AF8837",
"t. c #C5972C",
"y. c #C29132",
"u. c #DDA632",
"i. c #DDAA33",
"p. c #DFAA3A",
"a. c #DDA52A",
"s. c #E1AA2C",
"d. c #E3AA32",
"f. c #EBB836",
"g. c #FABF34",
"h. c #F3BC37",
"j. c #CE931D",
"k. c #FDC435",
"l. c #FCC33A",
"z. c #FECA3B",
"x. c #FBC637",
"c. c #A7835B",
"v. c #94896C",
"b. c #93866E",
"n. c #988A75",
"m. c #8E896B",
"M. c #A68D79",
"N. c #A7927E",
"B. c #A68661",
"V. c #C89F57",
"C. c #DCAC4A",
"Z. c #DCB34A",
"A. c #CBA65C",
"S. c #E0AF49",
"D. c #E4B255",
"F. c #E0AF50",
"G. c #CCA963",
"H. c #EABD65",
"J. c #FAC64C",
"K. c #FCC847",
"L. c #FCCC57",
"P. c #FDD051",
"I. c #EAC469",
"U. c #F8CB67",
"Y. c #FED166",
"T. c #FDD272",
"R. c #FDD77B",
"E. c #F0C670",
"W. c #A99586",
"Q. c #B39A8B",
"!. c #B39987",
"~. c #A99997",
"^. c #A08C83",
"/. c #B7A18A",
"(. c #B6A695",
"). c #B6AAAA",
"_. c #C7AB86",
"`. c #DDBE8A",
"'. c #CAAE93",
"]. c #C4B29A",
"[. c #C8B296",
"{. c #D3B495",
"}. c #CAB7A5",
"|. c #DEC58D",
" X c #FDDB83",
".X c #FEDA8A",
"XX c #E5C696",
"oX c #F1CF95",
"OX c #FCDC9A",
"+X c #F5D594",
"@X c #E7C88F",
"#X c #FFE28D",
"$X c #FFE498",
"%X c #D8C3A6",
"&X c #DDCAB3",
"*X c #D7CFB8",
"=X c #DFD4B8",
"-X c #CFC0B9",
";X c #FADEA3",
":X c #F5D8A0",
">X c #E3CDB5",
",X c #E5CBB3",
"<X c #EAD5BC",
"1X c #E7D3B8",
"2X c #F4DAB7",
"3X c #E2C8AD",
"4X c #FEE3A5",
"5X c #FEE4AC",
"6X c #FFE8AF",
"7X c #FCE3B5",
"8X c #FDE5BC",
"9X c #FFE9BB",
"0X c #FAE4B7",
"qX c #EDE0BD",
"wX c #D8D3CA",
"eX c #EED6C5",
"rX c #F4DDC3",
"tX c #E4DDD7",
"yX c #FFE9C4",
"uX c #FDE7CC",
"iX c #FEEACD",
"pX c #FAE5C8",
"aX c #FEEBD3",
"sX c #FFEEDB",
"dX c #F0E4D6",
"fX c #FFF1D5",
"gX c #FEF3DB",
"hX c #FDFADC",
"jX c #F1EAD1",
"kX c #FFF4E2",
"lX c #FEFCEB",
"zX c #FBF7E8",
"xX c #FDFBF3",
"cX c #FFFEFD",
"vX c #F5EDE3",
/* pixels */
"6.6.6.6.6.6.6.6.6.6.6.6.6.6.6.6.6.6.6.6.6.6.6.7.9.7.5.N p X         o p c 3.7.9.7.6.6.6.6.6.6.7.6.6.6.6.6.6.6.6.6.6.6.6.6.6.6.6.",
"6.6.6.6.6.6.6.6.6.6.6.6.6.6.6.6.6.6.6.6.6.7.6.7.7.6.3.v s + . . . . + s v 3.6.7.7.6.6.6.6.6.6.6.6.6.6.6.6.6.6.6.6.6.6.6.6.6.6.6.",
"6.6.6.6.6.6.6.6.6.6.6.6.6.6.6.6.6.6.6.6.6.6.8.4.4.<.V M k 0 6 q q q 9 k M 2.3.4.4.6.6.6.6.6.6.6.6.6.6.6.6.6.6.6.6.6.6.6.6.6.6.6.",
"6.6.6.6.6.6.6.6.6.6.6.6.6.6.6.6.6.6.6.6.6.6.4.3.,.C M S E W ` ` ` ' W T S M C ,.3.6.6.7.6.6.6.6.6.6.6.6.6.6.6.6.6.6.6.6.6.6.6.6.",
"6.6.6.6.6.6.6.6.6.6.6.6.6.6.6.6.6.6.6.7.6.6.3.,.x i k E  .v.N.!./.N.v...E k i x ,.3.6.6.6.6.6.6.6.6.6.6.6.6.6.6.6.6.6.6.6.6.6.6.",
"6.6.6.6.6.6.6.6.6.6.6.6.6.6.6.6.6.6.6.7.7.6.3.N u ; 9 ' b.].=X<X<X1X(.b.' 0 ; i N 1.6.7.7.6.6.6.6.6.6.6.6.6.6.6.6.6.6.6.6.6.6.6.",
"6.6.6.6.6.6.6.6.6.6.6.6.6.6.6.6.6.6.6.9.7.6.1.c > * 6 ] W.*XgXkXkXgX*X^.] 7 * ; x <.8.7.7.6.6.6.6.6.6.6.6.6.6.6.6.6.6.6.6.6.6.6.",
"6.6.6.6.6.6.6.6.6.6.6.6.6.6.6.6.6.6.6.7.7.8.1.x ; + 6 { W.wXlXxXxXzXeX~.{ 6 o - v 1.8.7.7.6.6.6.6.6.6.6.6.6.6.6.6.6.6.6.6.6.6.6.",
"6.6.6.6.6.6.6.6.6.6.6.6.6.6.6.6.6.8.6.7.9.6.3.x - O w o.~.wXxXcXcXxXwX~.o.& O - x <.8.9.7.6.8.6.6.6.6.6.6.6.6.6.6.6.6.6.6.6.6.6.",
"6.6.6.6.6.6.6.6.6.6.6.6.6.6.6.6.7.7.6.6.9.6.1.x ; O w o.~.tXcXcXcXcXtX~.o.w * ; c 1.6.8.6.6.6.7.6.6.6.6.6.6.6.6.6.6.6.6.6.6.6.6.",
"6.6.6.6.6.6.6.6.6.6.6.6.6.7.6.7.6.6.6.4.4.3.V b 8 w R O.).tXcXcXcXcXtX).>.R 9 g m C 3.4.6.4.6.6.7.6.6.6.6.6.6.6.6.6.6.6.6.6.6.6.",
"6.6.6.6.6.6.6.6.6.6.6.6.6.6.7.7.7.8.5.3.B v b z E _ O.~.-XvXcXcXcXcXvXwX~.O._ T z b c B 1.8.8.7.7.7.6.7.7.6.6.6.6.6.6.6.6.6.6.6.",
"6.6.6.6.6.6.6.7.7.6.6.6.7.6.9.7.9.6.5.B d u h T  .m.).}.tXxXcXcXcXcXvXtX-X).n.X.T h i d ,.5.7.9.7.7.7.7.6.6.6.7.6.6.6.6.6.6.6.6.",
"6.6.6.6.7.6.6.6.6.6.6.6.6.6.6.7.6.6.3.N u , 9 _ b.].wXvXvXxXcXcXcXcXxXvXtX*X].v._ 9 = i c 3.6.6.8.6.6.6.6.6.6.6.6.6.7.6.6.6.6.6.",
"6.6.6.6.6.6.6.7.6.6.6.4.3.3.1.1.<.<.V f s 4 r } /.&XuXkXxXxXxXxXxXxXxXxXzXiX&X/.| r 4 < b V <.<.1.1.1.4.4.6.6.6.7.6.7.6.6.6.6.6.",
"6.6.6.6.7.6.7.7.9.6.4.3.,.N c x x x b j G H %.c.[.2XgXkXlXzXxXxXxXzXzXxXlXfX2X[.c./ J F j x x x x c N ,.3.6.6.9.7.7.6.7.6.6.6.6.",
"6.6.6.7.6.6.7.9.7.7.4.,.x i ; - - ; < F Y #.w.A.XX2XgXkXkXgXsXkXsXsXgXkXkXsX2XXXA.w.@.U j a ; ; - > u x ,.4.7.7.7.7.6.6.6.7.6.6.",
"6.6.6.6.6.6.6.6.7.6.3.N i = + X X o 8 H @.y.F.E.:X7XaXgXsXaXaXsXsXaXsXaXsXaX0XOXE.D.y.@.J 3 + X X + = i N 3.6.8.6.6.4.6.6.6.6.7.",
"8.8.6.4.5.3.3.3.3.<.2.b h 4 % % % 6 r %.e.Z.U.T.4X7XaXaXaXiXaXaXaXaXaXaXaXiX9X4XR.L.S.w.=.t 7 % % 5 4 h b ,.3.3.3.3.1.4.4.6.8.8.",
"6.6.6.<.B c x x x x b j G H L ~ ~ ` | :.A.I.R.#X7XyXaXaXaXaXuXuXuXaXaXaXaXaXyX7X#XR.E.G.:.;.` ~ ~ L H G j f x x x x N ,.<.6.6.6.",
"9.7.4.,.x u ; - - ; h G Y #.*.r.c.M.!.'.@X+X4X6XyXiXaXaXaXaXyXuXyXiXaXaXsXaXyXyX6X4X+X|.'.!.M.c.-.-.#.Y F a > ; - > u v ,.4.7.9.",
"7.6.3.C d , @ @ X + 1 P @.t.S.D.@XXX1X<X2X8X8XiXuXyXiXaXaXaXaXiXiXiXaXaXaXiXiXuXyXyX0XqX2X1XXX|.D.F.t.@.H 4 + X @ @ , d C <.6.9.",
"3.1.2.M k 8 q % 6 q r / e.S.U.R.;X7XyXaXaXaXiXyXyX8X8X8XyXuXiXaXaXaXuXyX8X8X9X8XuXuXaXaXiXyX0X5X.XU.C.e.=.! 7 6 % q 8 k M V 1.3.",
"c v m S ^ ' ] { ` ] | c.A.I.#X$X9XyXfXgXsXjXyX9X5X;X4X5X8XyXaXaXaXuXyX8X5X4X5X5X0XyXsXsXhXfXyX9X$X.XI.A.c.| ` ` { ] ' ^ S m v c ",
"< < l ^ ..M.!.!.W.!.Q._.|.+X4X7XyXiXfXfXsXaXyX5X#XR.R. X4XyXuXaXaXuXyX4X.XR.R.#X5XyXaXsXgXaXiXyX0X5X+X|._.Q.!.W.Q.!.^...^ k < , ",
"X o 0 W v.).&X1X>X>X,X<X2X0X9XyXyXfXyXfXsXaX8X:XR.U.U.R.OX8XaXsXsXuX9XOXR.U.U.R.:X8XaXaXaXiXiXyXyX0X5X2X<X>X>X=X1X&X].b.Q 8 + X ",
"@ + 9 W b.}.1XpXpXuXaXfXaXuXaXaXiXiXiXfXsXyX8XoXL.S.F.H.oX0XuXgXsXuX2XoXH.F.Z.H.oX0XyXaXaXiXiXiXiXaXaXaXaXaXuXpXrX1X}.b.' 9 + X ",
"; < k E ..^.(.}.eXaXgXgXkXsXsXiXiXaXiXiXsXuX2X|.V.e.c.V.`.2XiXgXgXaX2X`.V.w.w.V.`.2XiXaXaXiXiXaXiXsXgXkXgXgXdXeX}.(.n...E k < ; ",
"c x M z E ' >.Q.}.dXgXkXgXgXsXuXaXaXaXaXsXiX1XG.:./ / :._.1XiXgXgXiX2X_.:.=.=.:._.1XyXfXaXaXaXaXuXaXsXkXkXgXjX%XQ.>._ E A n x c ",
"5.<.V b h 0 t >./.=XaXfXaXaXaXaXiXaXaXsXsXaX&X!.} r r } !.>XaXgXgXaX,X!.} r r } !.&XiXgXsXaXaXaXaXaXaXaXfXfX&X/.>.R 9 h M V <.4.",
"7.6.<.N i , 9 _ v.].>X<X0X0X8XyXyXyXaXfXfXaX&XW.) q q ' M.&XaXgXgXaX&X^.' q q ' W.&XaXfXaXaXyXiXyX8X7X0X2X>X].b._ 0 , i N 3.6.7.",
"9.7.4.B x u g D X.n.Q.{.@X+X;X7XyXyXiXfXfXaX&Xn.) 6 & ) M.&XaXhXhXaX&Xn.) & 6 ) n.&XaXfXfXiXyXyX7X;X+X@X'.Q.n.} T g p x ,.4.6.7.",
"6.6.4.3.,.N Z z T W ;.c.A.I.R.#X0XyXaXsXfXiX&X^.) 6 & ) n.&XiXhXhXaX&X^.) 5 5 ) ^.&XiXgXgXaXyX;XOXR.I.A.:.;.W T z f N ,.3.4.6.6.",
"6.6.8.6.4.,.C n 8 0 t %.r.Z.U.R.4X8XaXgXfXuX&XW.) q q ' W.&XaXgXhXuX&X^.` 6 q ' ^.&XyXgXgXaXyX;X XU.Z.w.=.! 0 8 Z C <.4.6.8.6.6.",
"6.6.6.8.8.6.<.N p , 4 J @.e.Z.U.+X8XuXgXfXiX>XQ.| ! R | Q.>XiXhXgXiX>X/.| ! R | Q.=XyXaXgXiX8X+XU.Z.e.@.P 1 , p N <.8.7.7.6.6.6.",
"6.6.6.6.9.8.4.<.x u h F Y @.e.A.XX2XaXgXgXiX<X].n.| >.n.].<XaXfXfXiX<X].n.>.| n.].<XaXgXgXaX2XXXA.e.@.Y F a u x ,.4.8.6.6.6.6.6.",
"6.6.7.6.7.8.6.3.,.N f j F H / c.'.2XsXsXgXaXrX3X}.(./.}.&XrXuXfXfXuXrX&X}.(.(.].3XrXaXgXsXaX2X{.c.=.P G j f N B 3.6.8.6.6.7.7.6.",
"6.6.7.6.6.6.6.5.4.3.C f g 1 ! ;.!.,XuXfXgXaXuXrX<X>X>X<XrXuXiXaXaXiXpXpX<X=X>X<XrXuXaXsXfXuX,X/.;.H 4 < f B 3.6.4.6.6.6.7.6.6.6.",
"6.6.6.6.6.6.6.6.7.6.<.x : + q ~ M.%X0XyXiXiXaXaXuXuXsXjXuXiXuXaXaXuXiXiXjXaXpXaXaXaXaXyXyX0X%XM.` 7 + : x 3.6.7.8.6.6.6.6.6.6.6.",
"8.6.6.6.6.6.7.9.8.7.3.c : + 5 R c.`.4X6XyXiXaXfXfXfXgXaXaXaXaXaXaXaXiXaXfXgXfXaXgXsXyXyX5X;X`.B.R $ + : c 3.7.8.9.6.6.6.6.6.6.8.",
"6.7.6.6.6.6.6.9.9.7.4.c : O & P r.F.R.#X5XyXsXsXsXfXaXfXaXaXaXaXaXaXaXaXaXsXaXfXsXaXuX5X#XR.G.r.L 1 O : c 3.7.9.7.6.6.6.6.6.6.6.",
"6.6.6.6.6.6.6.7.6.6.<.x > + 2 L -.C.U. X4X8XaXaXaXaXaXaXaXiXyXuXiXiXiXaXiXaXaXfXaXaX8X4X XU.Z.-.L 2 o > x <.6.7.7.6.6.6.6.6.6.6.",
"6.6.6.6.6.6.6.6.4.3.2.b a 3 e &.q.d.L.Y..X;X8X8X8X8X8X8X8X8X8X8X8X8X8X8X8XyX8X8X8X8X5X.XT.J.d.0.~ e 4 a b 2.3.4.6.4.6.6.6.6.6.6.",
"6.6.6.6.6.6.4.<.2.N M j G P I -.t.d.K.L.R..XOXOXOXOXOXOXOXOXOXOXOXOXOXOXOXOXOXOXOXOX.XT.L.K.d.t.-.+.U G j M N ,.3.4.6.7.6.6.6.6.",
"6.6.7.6.6.6.4.,.d d h G Y *.q.t.s.h.l.K.L.U.T.T.R.T.T.T.T.T.T.T.T.T.T.T.T.T.T.T.T.T.U.L.K.l.h.s.t.q.*.Y G h i f ,.3.6.7.7.7.6.6.",
"6.6.6.7.7.6.<.N i , 1 H *.t.d.f.h.g.l.K.J.J.J.J.J.J.J.J.J.J.K.J.J.K.J.J.J.J.J.J.J.J.J.J.K.l.l.h.f.d.t.*.H 1 , i N 1.6.7.7.6.6.6.",
"7.6.6.7.7.7.1.c > * 2 P q.i.h.z.l.l.h.z.l.l.l.l.l.l.l.l.g.k.k.z.g.l.k.k.l.g.l.l.l.l.l.h.z.k.l.l.z.h.i.*.P $ * : c 1.6.7.7.6.6.6.",
"6.6.6.7.7.6.1.x ; X $ P @.i.z.z.l.l.g.k.k.k.k.k.k.k.k.k.z.k.k.k.k.k.k.z.k.z.l.k.k.z.k.k.k.g.k.l.z.k.d.q.y $ + - c 1.7.7.7.6.6.6.",
"6.8.6.6.9.7.3.x - o $ P $.d.k.k.K.k.k.g.l.k.k.g.k.z.k.k.K.z.z.z.l.x.z.z.k.z.x.l.l.k.l.g.h.k.k.K.x.k.s.$.y $ o - x 3.7.9.6.6.8.6.",
"6.6.6.6.6.6.1.c < * 2 L -.d.x.z.z.k.g.g.g.g.g.g.l.l.l.k.g.g.h.k.k.k.l.h.k.l.l.g.g.g.k.g.k.k.k.z.z.x.d.-.P 2 * < x 1.6.7.6.6.6.6.",
"6.6.6.4.6.3.C v l 8 r %.r.Z.J.K.z.k.k.l.K.g.g.h.f.u.u.u.u.s.a.s.s.a.u.u.u.u.d.f.h.g.g.l.g.k.k.z.P.J.Z.w.%.! 8 k v C 5.6.4.6.6.6.",
"7.6.4.1.,.C Z A E _ | c.G.I.Y.Y.P.K.z.z.K.z.h.p.t.q.-.-.-.-.-.-.-.-.-.-.-.-.q.t.p.h.z.K.K.z.K.P.Y.U.I.G.c.;.W ^ A Z N ,.3.5.6.7.",
"7.6.3.,.x i k E  .v./.{.XXoX.XT.Y.K.z.k.z.z.h.t.-.I P P L P L L P L L L P P +.-.t.f.x.z.k.z.K.Y.R. XoXXX{./.v. .E l i x V 3.6.7.",
"7.6.3.N u = 9 _ n.].>XrXrX0X;X.XT.J.k.k.k.z.i.q.&.e 2 # $ $ $ 2 $ 2 $ $ # 2 e +.q.s.l.k.g.g.J.Y..X;X0XqX2X,X).n.' 0 , u N 3.6.7.",
"9.6.1.x > + 7 ] W.&XiXgXgXjX8XoXH.C.d.d.d.u.e.*.H 4 * o o * * * * * + o o * 4 Y @.e.u.u.d.d.F.H.oX0XuXgXgXaX&XW.` 6 + > x <.6.7.",
"7.6.3.x ; @ 7 { W.<XfXlXlXgXpXXXG.w.-.-.-.$.*.Y G 3 > : - > ; ; ; ; > ; ; > < G I #.-.-.$.$.c.G.XXpXgXlXlXgX<XW.] q + ; x <.6.9.",
"7.6.<.x ; + 6 ] ~.=XhXlXhXfXqX].B./ L P y L H G j b c c c x c c c c x c c c b j G H L y y L ( B.[.qXfXkXlXhX1X~.] 6 @ ; x <.6.7.",
"9.6.3.x > * 6 ] W.=XaXkXgXiX>X/.;.r 2 # $ $ 4 h M V <.3.3.<.<.<.<.<.3.3.3.<.V M h 4 2 $ # 2 H | /.=XiXsXhXaX&XW.] 6 + > c 3.6.9.",
"7.6.3.N u , 9 ' b.].,XeX<X>X].v._ 8 * X @ @ = i B <.6.7.6.6.6.6.6.6.6.6.8.6.<.B d , + X X + 9 _ v.[.,XeXeX&X].v.' 8 , i N 3.6.6.",
"6.6.4.,.c i k ^ ..m.W.W.Q.W.m. .^ g > : ; > u x ,.3.8.9.7.7.7.8.6.8.7.7.9.7.3.,.x u > - > > g ^  .m.W.Q.W.W.m. .E k d v ,.4.6.7.",
"6.6.4.3.,.C n A T W ` { ] ` _ ^ A n c x x x N ,.5.5.7.6.6.7.8.6.7.8.7.6.7.7.5.5.,.N c x x x n A ^ _ ' [ ] ` W T A n C ,.3.4.6.6.",
"6.7.6.6.4.3.V m k 0 7 q 7 7 8 g Z 2.<.3.<.<.5.5.4.6.6.6.6.6.6.6.6.6.6.6.6.6.6.4.5.3.3.<.3.3.C m g 8 7 7 7 7 0 l m V <.6.4.6.6.6.",
"6.6.6.6.9.6.1.N < @ . . . . * s v 1.7.7.6.6.6.6.6.6.6.7.8.6.7.6.6.6.6.6.6.6.6.6.6.6.6.7.7.7.1.v s + . . . . + s N 1.6.9.7.6.6.6.",
"6.8.6.7.9.8.3.c p o         O : N 3.9.9.9.9.9.7.7.6.6.7.8.4.6.6.8.6.8.8.6.6.6.7.7.9.9.9.9.8.4.N : o         o p v 3.8.9.7.6.7.6."
};
