/* XPM */
static char *_986_c21b8d8705a41719e10dd8912de017aed33ca42388de702e6e52cd3c6d835e3f[] = {
/* columns rows colors chars-per-pixel */
"64 64 232 2 ",
"   c #0D0300",
".  c #0E0B00",
"X  c #160402",
"o  c #190302",
"O  c #140A02",
"+  c #1B0A03",
"@  c #0A1600",
"#  c #151504",
"$  c #191504",
"%  c #141B02",
"&  c #161608",
"*  c #1A1908",
"=  c #361C0A",
"-  c #391E0B",
";  c #361905",
":  c #3A1E11",
">  c #320700",
",  c #0D2706",
"<  c #1E2504",
"1  c #132A04",
"2  c #1C240A",
"3  c #132D0B",
"4  c #182907",
"5  c #0E3E03",
"6  c #093906",
"7  c #123301",
"8  c #133B03",
"9  c #13350D",
"0  c #123B0B",
"q  c #1D3209",
"w  c #152911",
"e  c #163812",
"r  c #232608",
"t  c #38210B",
"y  c #263C09",
"u  c #36350B",
"i  c #3A3410",
"p  c #621704",
"a  c #52350B",
"s  c #712F0C",
"d  c #0D4203",
"f  c #0D4D02",
"g  c #0D440B",
"h  c #0E4A0C",
"j  c #054006",
"k  c #124204",
"l  c #13430B",
"z  c #154A08",
"x  c #0B5201",
"c  c #095C03",
"v  c #0B5805",
"b  c #0E4B13",
"n  c #0E4710",
"m  c #134513",
"M  c #114C13",
"N  c #1A4510",
"B  c #0D5814",
"V  c #115C14",
"C  c #1A5713",
"Z  c #115E0E",
"A  c #244C0C",
"S  c #23460A",
"D  c #27580C",
"F  c #37530D",
"G  c #234B12",
"H  c #264311",
"J  c #365915",
"K  c #2E5714",
"L  c #066501",
"P  c #0B6402",
"I  c #056C01",
"U  c #096B01",
"Y  c #166506",
"T  c #047501",
"R  c #047C01",
"E  c #0B7C02",
"W  c #0B7303",
"Q  c #0D6A17",
"!  c #0E6B1A",
"~  c #0F6417",
"^  c #126619",
"/  c #106919",
"(  c #1A6311",
")  c #0D761C",
"_  c #067C1B",
"`  c #0B7A1B",
"'  c #0B7317",
"]  c #167419",
"[  c #2B620D",
"{  c #2B6C15",
"}  c #2F7B19",
"|  c #377914",
" . c #356B11",
".. c #5B4C16",
"X. c #445314",
"o. c #565815",
"O. c #47540F",
"+. c #6B4415",
"@. c #614E15",
"#. c #694915",
"$. c #6B4419",
"%. c #684719",
"&. c #7D561A",
"*. c #6C4B1C",
"=. c #456A15",
"-. c #407F1A",
";. c #706518",
":. c #7A5D21",
">. c #A83A00",
",. c #92711E",
"<. c #977A1E",
"1. c #9C6018",
"2. c #A7781E",
"3. c #977324",
"4. c #A67524",
"5. c #A57A23",
"6. c #AC7C24",
"7. c #B65005",
"8. c #DA5107",
"9. c #FC5D00",
"0. c #FC6302",
"q. c #FD6F09",
"w. c #F86D06",
"e. c #FC7207",
"r. c #FB7009",
"t. c #F97D0D",
"y. c #E46F13",
"u. c #C97014",
"i. c #038201",
"p. c #048E01",
"a. c #098602",
"s. c #039302",
"d. c #029C01",
"f. c #0A9504",
"g. c #0E851C",
"h. c #14851B",
"j. c #16881C",
"k. c #1C921D",
"l. c #18971C",
"z. c #27881A",
"x. c #338313",
"c. c #398914",
"v. c #259C1E",
"b. c #269419",
"n. c #389617",
"m. c #31840E",
"M. c #01A501",
"N. c #01AA01",
"B. c #01B201",
"V. c #00B802",
"C. c #24A21F",
"Z. c #2AA61E",
"A. c #39A519",
"S. c #35B41D",
"D. c #39B31E",
"F. c #34B91D",
"G. c #198620",
"H. c #0A8221",
"J. c #249D22",
"K. c #269621",
"L. c #1FA123",
"P. c #27A422",
"I. c #37AD21",
"U. c #36B321",
"Y. c #3DBB22",
"T. c #37B722",
"R. c #439B1F",
"E. c #418017",
"W. c #45A61B",
"Q. c #44BB1C",
"!. c #46B51E",
"~. c #44A821",
"^. c #46B421",
"/. c #49B523",
"(. c #46B921",
"). c #49BC22",
"_. c #3DC11D",
"`. c #3EC622",
"'. c #44C61E",
"]. c #4BCA1F",
"[. c #45C91F",
"{. c #4BD41E",
"}. c #4DDA1D",
"|. c #47D21E",
" X c #50D81D",
".X c #44C523",
"XX c #49C423",
"oX c #44C923",
"OX c #4CCD23",
"+X c #48CB29",
"@X c #4DD322",
"#X c #4EDA23",
"$X c #4ED728",
"%X c #51D523",
"&X c #52DB24",
"*X c #51D92A",
"=X c #51CF25",
"-X c #4BE127",
";X c #B0851C",
":X c #B28525",
">X c #BF932A",
",X c #BE9430",
"<X c #FC8615",
"1X c #FC8A16",
"2X c #C6982B",
"3X c #C79530",
"4X c #D39025",
"5X c #FC9E23",
"6X c #F49A23",
"7X c #DCA82E",
"8X c #DDA731",
"9X c #DEA934",
"0X c #DCA839",
"qX c #E3AB2D",
"wX c #FBA124",
"eX c #FDAE2D",
"rX c #FBB42F",
"tX c #FDBA2F",
"yX c #E3AB36",
"uX c #EDB434",
"iX c #E9B538",
"pX c #FBB431",
"aX c #F8BC39",
"sX c #FAC335",
"dX c #F7C339",
"fX c #FCC33A",
"gX c #FECA3C",
"hX c #FBC937",
"jX c #FED23E",
"kX c #FDD235",
"lX c #FCBF42",
"zX c #FECC41",
/* pixels */
"M.M.M.M.M.M.M.M.M.M.M.N.M.M.N.N.B.N.f.I 5 @     X   @ 5 W s.N.V.V.B.s.W j @         @ j I f.N.B.N.N.N.M.N.M.M.M.M.M.M.M.M.M.M.M.",
"M.M.M.M.M.M.M.M.M.M.M.M.M.M.M.N.M.M.p.U l @ O X X X @ d U p.M.N.N.M.s.U d % X X X O # g I p.M.N.M.M.M.M.N.M.M.M.M.M.M.M.M.M.M.M.",
"M.M.M.M.M.M.M.M.M.M.N.N.M.M.M.M.d.s.a.Y A u = ; = t u S Y i.p.d.d.p.E Y S u t = ; = u H Y a.s.d.d.M.M.M.N.M.M.M.M.M.M.M.M.M.M.M.",
"M.M.M.M.M.M.M.M.M.M.M.N.N.N.d.s.i.E Y D O.@.%.+.#.#...X.D P I I I I P D X...#.+.+.+...O.D Y E i.s.M.M.N.N.M.M.M.M.M.M.M.M.M.M.M.",
"M.M.M.M.M.M.M.M.M.M.M.N.N.N.d.i.L x A O.;.,.5.6.6.4.,.;.F z 5 6 6 d z F ;.,.5.5.6.5.3.;.O.S c L p.d.M.N.N.M.M.M.M.M.M.M.M.M.M.M.",
"M.M.M.M.M.M.M.M.M.M.M.M.N.M.p.T d 7 y @.,.>X9XiXyX8X2X,...u < # @ % u ..,.2X0XyXiX9X>X,...y 7 g T a.M.N.M.M.M.M.M.M.M.M.M.M.M.M.",
"M.M.M.M.M.M.M.M.M.M.M.d.d.p.' c 3 , t *.4.7XsXgXgXdX7X:X&.a ; > > ; a &.:XqXdXgXgXsXyX6.$.t @ 7 v W p.d.d.M.M.M.M.M.M.M.M.M.M.M.",
"M.M.M.M.M.M.M.M.N.M.M.s.i.T c 6 @ O - $.6.9XgXjXzXjXuX4X1.s p p p p s 1.4XuXjXzXjXfXqX6.$.= O , 6 c T p.s.M.M.N.M.M.M.M.M.M.M.M.",
"N.M.M.M.M.M.N.N.N.N.d.E L g 3 @ O + - #.6.qXfXjXzXfXaX4Xu.7.>.>.>.>.7.u.4XaXfXzXjXgXyX6.#.; + O % 1 d L i.f.N.N.N.N.M.M.M.M.M.M.",
"M.M.M.M.d.M.N.M.N.M.p.W x 7 1 .   + - #.6.yXfXjXgXfXpX6Xy.y.8.8.8.8.y.y.6XpXfXgXjXsXqX6.#.- + O . 1 7 x W f.M.M.M.M.M.M.M.M.M.M.",
"M.M.N.M.M.M.M.d.f.f.i.P z q * $ . + t #.6.qXaXhXgXfXpX5X<Xr.0.9.0.0.r.<XwXpXfXfXhXfX8X6.#.- + . O 2 q z Y R s.d.d.M.M.M.M.M.M.M.",
"N.M.M.N.N.N.M.s.i.T ~ Y D A H q % $ t *.5.9XfXgXgXhXtXwX1Xe.0.9.9.0.e.1XwXpXsXgXgXfX9X5.*.- $ # q H A C ( P T i.s.d.N.N.N.N.M.M.",
"M.M.M.N.N.N.d.i.L f k C { | | D q * t #.5.8XfXfXzXfXpX6X1Xr.0.0.0.0.r.1XwXpXfXzXgXfX7X5.%.t * q D | } { D k f L a.d.N.N.N.N.M.M.",
"M.M.M.N.N.M.a.T k 7 q F m.n.n. .H < = %.5.8XfXgXgXfXpXwX<Xr.0.9.9.0.r.<X5XpXfXgXzXfX7X4.%.= < G  .R.A.| D q 7 k T a.M.N.N.M.M.M.",
"M.M.M.M.d.p.W c 8 1 y K n.!./.c.A < = $.5.8XfXgXgXfXpX5X<Xq.0.9.9.0.q.<X5XpXfXgXfXfX7X4.%.= < A c./.Q.n.K q 1 6 L W p.d.f.M.M.M.",
"N.M.f.f.p.R P f 6 9 N { n.'.).b.D 4 = $.4.7XfXgXgXsXpX5X1Xw.0.9.9.0.e.<X6XpXhXgXgXfX7X5.$.= < D m.(.'.n.{ m 9 0 h P R p.f.M.M.M.",
"N.d.f.i.P h k 5 0 b Z z.I.Y.^.c.A < t $.6.8XaXgXzXfXrX5X<Xr.0.9.9.0.q.1X5XpXfXzXfXzX8X5.$.t < K n.!.`.I.z.V h 0 5 0 h U i.f.d.N.",
"B.M.s.T x 9 , 3 g V ] b.T.oXQ.x.D r t +.5.yXfXgXgXsXpX5X<Xr.0.9.9.0.r.<X5XpXsXgXgXaX8X5.+.t < A c.!.).Y.K.) ~ l 7 , 7 x T f.M.B.",
"B.M.p.I 5 * & 3 C ] l.L.(.[.!.x.G < t $.5.8XfXgXzXfXpX5X1Xr.0.9.9.0.r.<X5XpXfXgXgXfX8X5.+.t < A m.^.'..XP.l.] C 3 * * 8 I s.M.B.",
"B.M.f.U 8 * * e ( k.L.`.oX]./.x.A < t $.5.8XfXgXgXfXpXwX<Xq.0.9.9.0.r.<XwXpXfXgXgXfX9X6.$.t < A x.^.].'.T.P.z.( e * & 9 U s.M.N.",
"V.M.s.I 8 $ % y { n.T.`.|.OX^.x.A < - +.5.8XaXgXgXfXpX5X1Xw.0.9.9.0.r.<XwXpXfXzXgXfX8X5.+.t r A x.(.OX|.`.T.n.{ y % # 7 I s.N.B.",
"B.M.s.L 5 # < H | ~.oX#X#X@X^.m.A r - +.5.yXfXgXgXfXrX5X<Xr.0.9.9.0.w.1X5XpXsXgXgXfX8X5.+.t r S z.^.@X#X#XoXA.| H < % 5 I p.M.B.",
"s.a.E c d 4 q D n.^.%X*X#X@X^.x.A < - +.5.yXfXgXzXfXpXwX<Xr.0.9.9.0.r.<XwXpXfXgXgXfXyX5.+.t < A x./.@X#X-X%X/.n.F q 3 5 c E a.s.",
"T U Y x g e N { n.).&X-X#X@X/.c.A < = +.5.8XfXgXgXfXpXwX<Xr.0.9.9.0.q.1X5XrXfXgXgXaX8X5.+.t < S x./.@X#X&X&X).n.{ N e g v P U T ",
"6 8 l 0 g h ( } A.XX@X&X&X{.!.x.z r : %.5.9XfXzXzXsXrX5X<Xq.0.9.9.0.r.<XwXpXfXzXzXfX9X3.#.: < A x.!.{. X&X{.).A.} ( v g g 0 5 g ",
"% , 1 9 h V ` K.D..X{.&X&X@X^.x.A r : %.<.7XaXgXgXfXpX5X1Xr.0.0.0.0.r.<XwXuXfXgXgXaX8X4.$.: r A x.^.@X&X&X@XoXI.K.] V h 9 4 % % ",
"o o $ 3 M Q g.L.U.oX{.&X&X@X/.x.A r - $.5.8XfXgXgXfXpXwX<Xw.0.9.9.0.w.<X5XrXfXgXjXfX8X6.$.: r N x./.@X&X&X{.oXY.L.g.! b w & o o ",
"o o $ 3 M Q h.C.U.oX|.&X&X@X/.} N * - +.:X9XdXkXgXfXpX5X<Xq.9.9.9.9.r.<X5XrXfXgXkXdX9X5.+.= 2 A x.^.@X&X&X|.oXT.P.h.Q M 4 & o o ",
"o o & 3 b ! h.v.U.oX|.&X&X@X^.x.G 2 - +.6.yXfXhXzXfXpXwX<Xq.9.9.9.9.q.<X5XpXfXzXkXfX9X6.+.= 2 N x.^.@X&X&X@X`.S.P.j./ b 3 & X X ",
"X X # 3 b Q g.P.D.oX@X&X&X@X^.c.S r t $.4.0XzXjXzXzXpX5X<Xe.9.9.9.0.e.<X5XrXzXzXzXzX0X4.+.- r A x.^.@X&X&X|.oXS.P.h.! b 3 # X X ",
"o o * 3 b ! g.P.D.oX{.&X#X{.Q.n.D y i @.,.3X0XiXaXfXpXwX1X<Xe.w.w.e.<X1XwXpXaXdXiXyX,X3.@.i y [ n.Q.|.&X&X{.oXD.L.g.Q b 3 $ o o ",
"o X & 3 b / j.v.D.oX{.%X}.{.XXn.x.[ X.o.;.<.:X2XqXuXaXrX5X1X<X<X<X<X1XwXrXaXuXqX2X:X<.;.o.X.J x.n.XX{.}.&X].'.D.v.h./ b 3 & O o ",
"X X & 3 b / j.K.U..X@X X$XOX[.Q.W.R.c.=.o.@.&.3.3XuXpXtXrXwXwX6X6XwXeXeXrXtXuX3X3.,...o. .-.n.W.Q.XXOX&X%X{..XU.J.j./ b 3 & X X ",
"o X & 3 b / j.J.U.XX{.%X%X@XOXOX'.).R.| J i a &.:X9XfXfXaXpXrXpXpXrXpXaXsXaXyX:X&.a i F -.R.).].'.OX=X%X X@X.XU.K.h./ b 3 & X o ",
"o X & 3 b / h.J.F..X@X X%X@X$X=X}.].!.| K r = #.5.0XfXgXfXsXaXfXaXaXsXfXgXfX0X5.%.- r G x.!.{.}.%X$X@X@X X@XoXS.P.h./ b 9 # o o ",
"o o & 3 b / h.J.U..X@X{.{.@X@X#X-X#X(.x.G * ; +.5.0XsXgXgXgXsXzXzXsXhXgXgXhX0X5.+.; * G x./.%X-X#X@X@X@X%X@X.XU.J.h./ b 3 # o o ",
"o X * 3 b Q h.J.U.oX@X{.@X@X@X#X#X*X/.x.G * ; +.2.9XgXgXzXhXsXzXgXsXhXzXgXgX9X2.%.; & G x.(.*X*X#X@X@X@X{.{.oXD.J.h./ b 3 * X o ",
"o o & 3 b Q h.J.U.oX{.%X%X@X#X#X#X%X!.m.z 2 t %.5.8XsXfXsXsXsXsXfXaXsXfXfXfX8X2.%.t 2 z m.!.%X{.#X$X@X%X&X].oXS.J.h.Q b 3 & o o ",
"o o & 3 n Q h.P.S..X{.%X%XOX$X@X X@X(.n.[ S i ..3.2X8XiXlXaXhXfXhXsXfXlXiX9X,X3...i y [ n.Q.@X X#X$X@X$X%X].oXF.J.h.Q b 3 $ O o ",
"o X & 3 b Q h.P.T.XX%X&X$X@X@X@X#X=X).A.| J J o.:.<.;X2XyXaXgXgXgXgXdXyX2X;X,.:.o.X. .| A.).@X X%X@XOX%X&X%XoXT.J.h./ b 3 & o o ",
"o o # 3 b Q j.P.F.oX@X&X@X@X@X$X{.{.].Q.A.n.-.=.o.@.&.4.3XiXhXkXhXhXiX2X3.&.@...=.E.R.A.Q.].].{.%X@X{.%X@X$XoXF.L.j.! b 3 & o X ",
"o + # 3 b ~ j.k.D.oX@X&X%X{.OX@X{.%X=XOX'.).R.-.K u a &.:X8XdXgXgXsX9X:X&.a H F E.R.!.].OX=X%X{.@XOXOX@X&X@X.XU.v.h./ M 3 & + o ",
"& % , 9 M V ] b.A.T.oX@X].@X@X@XOX@X%X%X%X=X!.n.K N u @.3.>X8XuXuX7X,X3.#.u N K n.^.@X&X%X%X@X@X@X@X@X{.OXoX(.A.z.] V M 9 1 & & ",
"5 g k g m M C ] z.Z.S._.[.@X@X%X%X%X%X{.&X X].A.| [ F o.;.3.2.6.6.5.3.;.O.F [ | A.oX&X#X}.@X%X@X@X@X@X].F.F.P.z.] V M l 5 d d g ",
"U I L x l 0 l C ] z.P.T..XOX X}.&X@X@X}.}.&XOXQ.R.c.| =.o.@.@.s +.+.@.o.=.-.c.W.Q.].%X}.{.#X@X#X%X{.OX'.F.P.z.] C k 0 l v L I U ",
"d.s.R P k , 4 e B ] G.P.U.XX=X@X@X@X@X@X{.@X@XXX'.Q.W.E.J i : ; ; - i X.-.R.Q.'.].OX%X{.@X@XOX{.%X%XXXT.P.l.] B e , 1 k P R s.d.",
"N.M.s.U 8 % & w n / g.l.I.T.Q.'.oXoX+X+XOX@X%X%X#X@XQ.n.{ y r * * r y [ n.(.@X#X%X&X@XOX+XoX.XXXoX).^.P.l.G.Q n w # % 8 U p.M.N.",
"B.N.s.W 8 # @ * n ~ h.l.v.I.S.S.S.S.S.Y.oX@X#X#X&X&X].W.c.K A S N A D c.W.OX#X&X#X#X].oX.XS.S.S.S.S.S.P.j.g.~ n 2 & & 8 U s.N.B.",
"B.N.f.U k $ # w n ! H.g.k.J.b.K.K.J.J.S.(.OX%X%X&X&XOXQ.A.n.m.| x.x.n.A.!.OX%X&X&X%XOXY.S.P.K.J.K.v.k.k.h.H.! b w O % 8 U p.N.B.",
"B.M.p.U k % % 3 M ^ ) h.h.g.g.j.h.j.k.C.S.[.@X%X}.@X%XXX).^./.^.^./.!.).OX@X@X@X{.@X[.D.v.k.h.j.h.g.g.h.h.` / M w % % k U p.M.B.",
"N.M.p.W f 1 3 9 g V Q Q ) ) _ _ ) ) G.k.Z.Y.oXoX'.'.'.oXoXoXoXOXoXXXoXoX'.'.'.'.oXoXT.S.b.h.) ) _ _ _ ) Q Q B h 9 1 1 f T f.M.N.",
"N.M.s.i.L f 5 0 g b B V / ' _ _ _ _ g.k.v.Z.S.T.S.S.S.S.S.F.F.F.F.F.F.S.S.S.S.D.U.I.Z.v.k.H._ ` _ ) ) Q V B b g 0 g f L i.f.M.M.",
"N.M.d.s.i.W c x 0 9 9 n B Q ` _ _ ` h.j.k.b.v.K.b.v.v.v.J.v.v.v.v.v.J.P.v.v.v.v.v.K.b.k.j.H._ _ _ ` Q V l 9 9 0 f c W i.s.d.M.M.",
"M.M.M.M.d.s.E L 0 4 , 9 B Q ) g.` ) ) ` ` h.j.j.j.h.h.h.G.j.h.j.j.G.G.j.h.h.h.j.j.h.h.` ) ) ) ` _ ) Q B 9 4 1 0 L R f.d.M.M.M.N.",
"M.M.N.M.M.M.s.W f 7 4 9 b V ^ Q Q ^ Q ! ] ) ` ` ` _ _ ` ) ` ` ` ` ` ) ` ` ` ` ` ` ` ) ] ! / ^ ^ Q ^ V b 0 4 7 f T s.M.N.M.N.M.M.",
"M.M.N.N.N.N.d.a.L f 8 l g l M b b b B B Q ' _ _ ` ) ) _ ` ` ` ` ` ' _ _ ` ` ` ` _ _ ' Q B B B b M M h l 0 8 f L i.d.N.N.N.N.M.M.",
"M.M.M.N.N.M.d.d.R T L x g 9 w w 2 3 e m V ' _ _ ` ` ` _ ` ` _ _ ` _ ` ` ` _ ` H.g._ ' V M 9 3 2 w w 9 0 x L T i.d.d.M.N.N.M.M.M.",
"M.M.M.M.M.M.M.d.d.s.R c d 4 % O # % , 0 V ! ) g.` ` ` ) ) ) ) ) ` ) ) ) ) ) ` ) ` ) Q B 0 , % # # # 1 k c E s.d.d.d.M.M.M.M.M.M.",
"M.M.N.M.M.M.M.M.N.M.s.W f 7 % # # % 4 0 b V Q ! ! ! / / / / ! / Q / / ^ / / / ! ! Q V M 0 4 % # # % 7 f W s.M.N.N.M.M.M.M.N.M.M.",
"M.M.M.M.M.M.M.N.N.N.f.a.P f d 8 8 8 k l l M M M M M M M M M M M M M M M M M M M M M M h l k 8 8 5 d f Y i.d.M.N.N.M.M.M.M.M.M.M.",
"M.M.M.M.M.M.M.N.N.M.d.s.i.W I I I L P x l 9 3 3 e w 3 3 9 3 3 3 3 3 3 9 e 3 9 3 9 3 9 l x P L U I I W i.s.d.N.N.N.M.M.M.M.M.M.M.",
"M.M.M.M.M.M.M.M.N.M.M.M.f.s.p.s.s.s.R L 8 4 $ $ * & & & & & & & & & & & & & & & $ # 4 8 P i.p.f.p.p.s.s.d.M.M.N.M.M.N.M.M.M.M.M.",
"M.M.M.M.M.M.M.M.M.M.M.M.M.M.M.M.N.M.s.U g % o + o o + O O o o o + o o + o o o o o o % 5 U s.M.N.M.M.M.M.M.M.M.M.M.M.M.M.M.M.M.M.",
"M.M.M.M.M.M.M.M.M.M.M.N.N.N.B.B.B.N.f.I 8 # o o o o o o o o o o o o o o o o o o o o # 5 I f.N.B.V.N.N.N.N.N.M.M.M.M.M.M.M.M.M.M."
};
