/* XPM */
static char *_583_a6f490d7ab8f3a7dbf41b33cb268db891517a5426a13a90ae9b88b457bc85a3b[] = {
/* columns rows colors chars-per-pixel */
"64 64 232 2 ",
"   c #0E0001",
".  c #160202",
"X  c #190402",
"o  c #140A04",
"O  c #1A0903",
"+  c #091706",
"@  c #151504",
"#  c #191503",
"$  c #131B03",
"%  c #151608",
"&  c #1A1908",
"*  c #2A1407",
"=  c #351C0A",
"-  c #371806",
";  c #2C0E04",
":  c #0E2909",
">  c #132A04",
",  c #132D0B",
"<  c #172609",
"1  c #0C3201",
"2  c #043C01",
"3  c #0B3C02",
"4  c #08320E",
"5  c #143C03",
"6  c #14340D",
"7  c #123B0C",
"8  c #113201",
"9  c #152A11",
"0  c #183811",
"q  c #372109",
"w  c #372507",
"e  c #283807",
"r  c #33340C",
"t  c #3C3608",
"y  c #273613",
"u  c #3D3612",
"i  c #313210",
"p  c #2B290C",
"a  c #592C07",
"s  c #543A08",
"d  c #553914",
"f  c #462D0B",
"g  c #672A07",
"h  c #7B3806",
"j  c #673B14",
"k  c #6E3200",
"l  c #0F4103",
"z  c #064A01",
"x  c #0D4D01",
"c  c #0E440B",
"v  c #0E4A0E",
"b  c #064700",
"n  c #114104",
"m  c #13440C",
"M  c #114B08",
"N  c #0B5201",
"B  c #0A5F03",
"V  c #165604",
"C  c #0E4C13",
"Z  c #0F4412",
"A  c #114C13",
"S  c #144613",
"D  c #0E5714",
"F  c #125C14",
"G  c #1B5314",
"H  c #22440C",
"J  c #244908",
"K  c #275A0A",
"L  c #2B5E12",
"P  c #3A5312",
"I  c #3A4C0F",
"U  c #056500",
"Y  c #0A6401",
"T  c #036C00",
"R  c #096C01",
"E  c #136403",
"W  c #186805",
"Q  c #047301",
"!  c #037D02",
"~  c #0A7903",
"^  c #0D6915",
"/  c #0E6B1A",
"(  c #0E6718",
")  c #126619",
"_  c #106919",
"`  c #166011",
"'  c #0D751B",
"]  c #067C1B",
"[  c #0B7A1C",
"{  c #0B7217",
"}  c #177519",
"|  c #3E690F",
" . c #3D7B0F",
".. c #316513",
"X. c #3A7C16",
"o. c #2A7010",
"O. c #117320",
"+. c #424C0C",
"@. c #46550D",
"#. c #414817",
"$. c #5D4A14",
"%. c #5D4A1D",
"&. c #4B5512",
"*. c #545814",
"=. c #534005",
"-. c #6A4915",
";. c #674818",
":. c #774519",
">. c #7E591C",
",. c #7B5717",
"<. c #665913",
"1. c #457114",
"2. c #6C6215",
"3. c #746719",
"4. c #953C03",
"5. c #8F3E00",
"6. c #A33E06",
"7. c #804E14",
"8. c #805619",
"9. c #9F5A0F",
"0. c #B34F07",
"q. c #BA5107",
"w. c #A65814",
"e. c #91721E",
"r. c #926D1E",
"t. c #A66815",
"y. c #A1761F",
"u. c #967321",
"i. c #947228",
"p. c #A67B23",
"a. c #A97B24",
"s. c #A57724",
"d. c #B17D26",
"f. c #CD580C",
"g. c #CE6D10",
"h. c #EB720E",
"j. c #038102",
"k. c #038F02",
"l. c #098404",
"z. c #039202",
"x. c #019C01",
"c. c #079A0B",
"v. c #0D831B",
"b. c #15851C",
"n. c #148A1C",
"m. c #1A8C1D",
"M. c #18851C",
"N. c #1B931C",
"B. c #25881A",
"V. c #358314",
"C. c #398514",
"Z. c #249C1E",
"A. c #25961D",
"S. c #399218",
"D. c #328B0E",
"F. c #00A500",
"G. c #01AA01",
"H. c #01B101",
"J. c #27A21E",
"K. c #32AB1E",
"L. c #39A51A",
"P. c #35BA1D",
"I. c #36B51D",
"U. c #198620",
"Y. c #148A21",
"T. c #229B21",
"R. c #28A423",
"E. c #3DA621",
"W. c #36B121",
"Q. c #3AB724",
"!. c #439C1A",
"~. c #43A21B",
"^. c #46BA1F",
"/. c #47B91D",
"(. c #44AC22",
"). c #46B921",
"_. c #3EC21F",
"`. c #44C61E",
"'. c #46C91C",
"]. c #4CD41D",
"[. c #54DA1F",
"{. c #44C422",
"}. c #45C923",
"|. c #4BCC22",
" X c #4BC724",
".X c #4CD322",
"XX c #4DD724",
"oX c #51D524",
"OX c #53DB23",
"+X c #55E424",
"@X c #B38324",
"#X c #B48329",
"$X c #B98529",
"%X c #AA8129",
"&X c #EE8317",
"*X c #FF941C",
"=X c #FF8F15",
"-X c #C78927",
";X c #C4942D",
":X c #C9982A",
">X c #C79926",
",X c #C59532",
"<X c #DD9127",
"1X c #E09427",
"2X c #F39C25",
"3X c #E19A30",
"4X c #DCA932",
"5X c #DDA738",
"6X c #D9A72C",
"7X c #FDA928",
"8X c #FFB42E",
"9X c #FFB92E",
"0X c #E3AA35",
"qX c #E4AA38",
"wX c #EBB537",
"eX c #FCB332",
"rX c #F5BD36",
"tX c #FABD34",
"yX c #F4BC3A",
"uX c #FCBE39",
"iX c #F2B337",
"pX c #E5AB2D",
"aX c #FEC42F",
"sX c #FDC235",
"dX c #FECB34",
"fX c #FCC33A",
"gX c #FECA3B",
"hX c #F6C234",
"jX c #FED33C",
"kX c #FDD037",
"lX c #FDCC40",
"zX c #FED541",
/* pixels */
"F.F.F.F.F.F.F.F.F.F.F.F.F.F.F.F.F.F.F.F.F.F.F.F.F.F.F.F.F.F.F.F.F.F.F.F.F.F.F.F.F.F.F.F.F.F.F.F.F.F.F.F.F.F.F.F.F.F.F.F.F.F.F.F.",
"F.F.F.F.F.F.F.F.F.F.F.F.F.F.F.F.F.F.F.F.F.F.F.F.F.F.F.F.F.F.F.F.F.F.F.F.F.F.F.F.F.F.F.F.F.F.F.F.F.F.F.x.F.F.F.F.F.F.F.F.F.F.F.F.",
"F.F.F.F.F.F.F.F.F.F.F.F.F.F.F.F.F.x.F.F.F.F.F.F.F.F.F.F.F.F.F.F.F.F.F.F.F.F.F.F.F.F.F.F.F.F.F.F.F.F.F.F.F.F.F.F.F.F.F.F.F.F.F.F.",
"F.F.F.F.F.F.F.F.F.F.F.F.F.F.F.F.F.F.F.F.F.F.F.F.F.F.F.F.F.F.F.F.F.F.F.F.F.F.F.F.F.F.F.F.F.F.F.F.F.F.F.F.F.F.F.F.F.F.F.F.F.F.F.F.",
"F.F.F.F.F.F.F.F.F.F.F.F.F.F.F.F.F.F.F.F.F.F.F.F.F.F.F.F.F.F.F.F.F.F.F.F.F.x.F.F.F.F.F.F.F.F.F.F.F.F.F.F.F.F.F.F.F.F.F.F.F.F.F.F.",
"G.F.F.G.F.F.F.F.F.F.F.F.F.F.F.F.F.F.F.F.F.F.F.F.F.F.F.F.F.F.F.F.F.F.F.F.F.F.F.F.F.F.F.F.F.F.F.F.F.F.G.F.F.F.F.F.F.F.F.F.F.F.F.F.",
"F.F.F.F.G.F.F.F.F.G.F.G.F.F.F.F.F.F.F.F.F.F.F.F.F.F.F.F.F.F.F.F.F.F.F.F.F.F.F.F.F.F.F.F.F.F.F.F.G.F.F.F.F.F.F.F.F.F.F.G.F.F.F.F.",
"F.F.G.F.F.G.G.G.G.F.G.F.G.F.G.F.F.F.F.F.F.F.F.F.F.F.F.F.x.F.F.F.F.F.F.F.F.F.F.F.F.F.F.F.F.F.F.F.F.F.G.F.G.G.G.G.G.G.G.F.G.G.F.F.",
"F.F.F.G.G.G.G.G.G.G.F.G.F.F.F.F.F.F.F.F.G.F.F.F.F.F.F.F.F.F.F.F.F.F.F.F.F.F.F.F.F.F.F.F.F.F.F.F.c.F.F.F.G.F.G.G.G.G.G.G.F.G.F.F.",
"G.G.F.F.F.F.F.F.F.F.F.F.G.F.F.F.F.F.F.F.F.F.F.F.F.F.F.F.F.F.F.F.F.F.F.F.F.F.F.F.F.F.F.F.F.F.F.F.G.G.G.F.F.F.F.F.F.F.F.F.G.F.F.F.",
"F.F.F.x.c.k.k.k.k.k.k.x.c.G.F.F.F.F.F.F.F.c.F.F.F.F.F.F.F.F.F.F.F.F.F.F.F.F.F.F.F.F.F.F.F.F.F.F.F.F.F.F.x.k.k.k.k.k.c.z.c.F.F.F.",
"G.F.F.z.j.T U U U U T j.z.c.G.G.F.F.F.F.F.F.F.G.F.F.F.F.F.F.F.F.F.F.F.F.F.F.F.F.F.c.F.F.F.F.G.F.G.G.c.k.l.T U U U U T ! z.F.G.G.",
"H.G.c.j.U z 3 1 1 2 b U l.c.G.G.G.F.F.F.F.F.F.F.F.F.F.F.F.F.F.F.F.F.F.F.F.x.F.F.F.F.F.F.F.F.G.G.G.G.c.j.U z 3 1 1 2 z U j.F.G.H.",
"G.G.z.! N 1 $ @ @ $ 1 x Q k.F.G.F.F.F.F.F.F.F.F.F.F.F.F.F.F.F.F.F.F.F.F.F.F.F.F.F.F.F.F.F.F.F.F.G.F.z.Q x 1 $ @ % $ 1 z Q z.F.G.",
"z.k.l.W M r = - - q r J W ~ z.F.x.F.F.F.F.F.F.F.F.F.F.F.F.F.F.F.F.F.F.F.F.F.F.F.F.F.F.G.F.F.x.x.x.z.l.E J r = - = w e J W l.z.z.",
"Q Y E L &.;.:.:.:.;.$.&.K Y Q Q x.x.G.G.F.F.F.F.F.F.F.F.F.F.F.F.F.F.F.F.F.F.F.F.F.F.F.F.G.G.x.x.! R E K +.;.;.:.:.:.;.&.L W R T ",
"3 n J P 2.e.s.d.d.s.i.2.+.e b U ! c.F.G.G.F.G.F.F.F.F.F.F.G.F.F.F.F.F.G.F.F.F.F.F.F.F.G.G.G.c.! U b H +.2.r.s.d.d.a.e.2.@.H 5 3 ",
"+ $ r $.e.>X4XqXwX5X,Xe.$.i 1 b T k.F.G.G.F.G.G.F.F.F.F.F.F.F.F.F.F.F.F.F.F.F.F.F.G.F.G.G.F.z.Q b 1 r $.e.,X5XwXqX5X;Xe.*.e $ + ",
"  O q -.%X6XhXgXkXsXqX@X,.$.i H Y ~ z.x.F.x.F.F.F.F.G.F.F.F.F.F.F.F.F.F.F.F.F.F.F.F.x.F.c.z.~ E H r d >.@XqXsXjXgXhX6Xp.-.q O   ",
"  O = -.a.qXzXjXjXgXwX:Xe.8.$.I K B Q j.z.c.G.G.F.F.F.F.F.F.F.F.F.F.F.F.F.F.G.G.G.G.F.z.j.Q E J +.;.8.e.:XwXgXjXjXjXqX%X-.= X   ",
"  o q -.%XwXlXzXzXgXyX0X:X#Xr.<.#.m b B ! F.G.G.G.G.F.F.F.F.F.F.F.F.F.F.F.F.F.G.G.G.c.j.B b m I <.e.@X:X0XyXgXzXzXlXqXd.-.= o   ",
"  O q -.p.4XhXdXgXsXuXyXiXpX;Xu.;.r 1 x R z.F.G.F.F.F.F.F.F.F.F.F.F.F.F.F.F.F.G.G.F.z.R b 8 r ;.u.;XqXyXuXfXsXdXdXhX4Xs.-.q O   ",
"  O q d r.;X4XwXrXsXsXlXgXuX0X#X7.s r m V j.k.c.x.F.F.F.G.G.F.F.F.F.G.F.G.F.F.x.c.k.j.V J r s 7.#X0XtXsXlXfXsXrXwX0X;Xr.d = O   ",
"  o * f -.u.$X,XwXrXfXzXdXdXyX;Xa.>.%.+.K R Q ! x.x.G.G.G.G.G.G.G.G.G.G.G.F.x.x.! ! R K #.%.>.a.,XyXdXdXzXfXyX0X,X$Xu.-.f * o   ",
". O * * f d 8.%X>XyXlXgXjXgXyXqX>Xd.i.2.+.J z T j.x.H.G.G.H.G.G.G.G.G.H.H.G.F.j.T z J +.<.u.d.:XqXyXgXjXhXlXlX:X%X>.d f = * O . ",
". O O O * - a 8.@XqXlXgXgXfXuXrXrX0X;Xe.$.r > z Q z.F.G.F.F.F.F.F.F.F.F.G.F.k.Q z 1 r $.e.,X4XyXsXuXfXgXgXlX5X#X>.s = * O O X . ",
"X O o o o & u %.e.;X4XwXyXuXuXdXgXrX0X@X7.a w e B ! k.k.k.z.k.k.k.k.z.z.z.k.~ B e w a :.@X0XhXdXdXuXuXyXwX0X$Xi.%.t # o o o X O ",
"X O o + + : y #.<.r.@X;XqXyXgXjXjXsXwX-X9.h a f J V T T T T U Y Y T T U T T V J f a h t.-XwXgXjXjXgXyX0X>X%Xr.2.#.y : + + o X X ",
"X O o : 4 7 S J #.$.>.s.,XwXgXjXjXgXiX<Xg.0.5.k t e 3 2 2 2 3 3 3 l 2 2 2 3 e t k 5.0.g.1XiXlXjXjXsXwX:Xs.>.%.f H S Z 4 : o O . ",
"X O & , C F F M y p d 8.@X0XsXgXdXfXeX2Xh.h.q.4.a w $ + + $ < & % & + $ + $ w a 4.f.h.h.2XiXsXgXgXrXpX@X8.d i y V F F C 9 % O . ",
". o & , C ( / F 7 6 t <.u.;X0XwXrXsXtX7X2Xh.h.0.h a w = = = w - q w - = q w a h 0.g.h.*X7XeXgXhXwX0X:Xu.<.r 6 7 F _ / C , & O . ",
". X & , D / O._ ` J P *.2.u.@X;X5XfXsX8X7X=X&Xg.w.,.;.;.;.;.-.-.-.-.;.;.;.;.:.t.g.&X*X7X9X9XhXqX;X%Xu.3.*.P J ` _ } / C , & O . ",
". O @ 6 C ( b.m.M.X.X.| &.;.,.e.,XyXaXaX9X7X2X<X-Xd.a.s.s.a.a.s.s.s.s.s.s.a.@X-X1X2X7XtXaXaXyX,Xe.,.;.&. .X.B.B.n.[ _ A , @ O . ",
". X $ , A ( b.N.K.L.!.!.P u d ,.$XqXrXsXuX8X8XiXqX0X5X5X5X5X0X4X5XqXqX5X5X4XqXqXiX8X8XsXfXtXqX#X8.d u P 1.~.~.K.N.M./ A 6 % O . ",
". O # , C / b.T.P.`./.D.L y u ;.u.;X0XwXiX8XeXfXtXsXfXhXfXsXuXsXsXuXsXsXfXsXuXtXyXeX7XeXwX0X;Xu.;.u y L S./._.P.J.M.^ v , @ O . ",
". O + 9 C ^ n.R.P.{.}.L.D.L P *.2.r.d.-X1X2X7XtXsXdXjXgXgXgXdXgXgXdXgXgXgXjXsXaXtX7X2X<X-Xd.r.2.&.I K D.K.}.}._.R.n.^ v , @ O . ",
". O @ : C ( n.R.P. X|.{.L.D. .| *.;.,.9.g.h.2X7X9XsXgXgXgXlXgXgXgXgXgXlXgXgXsX9X7X2X&Xg.9.,.;.&.| X.D.L.{.|.}.Q.R.n.( C : @ O . ",
". O @ , C ( b.Z.P.'. X|.|./.~.X.P u a h 0.h.h.*X7XeXuXgXfXfXsXrXtXfXsXsXgXfXeX7X*Xh.h.q.h a u P X.~./.|.oX|.{.P.N.b.( C , + O X ",
". X % 9 A ( Y.T.Q.}.oXoXOX]./.S.K y q g 4.q.f.h.<X3XqXwXyXfXsXsXsXsXfXwXwXqX3X<Xh.f.f.5.g w y K S.).|.OXoXoX}.W.R.n.( A , & o . ",
". . @ 9 C ( Y.R.W.}.oXOXOX.X XL.D.L I s k 5.0.0.t.t.@X;X4XyXlXgXgXlXyX4X;X@Xy.9.0.4.5.h d I K D.L. XXXOXOXoX}.W.R.n.( S 9 # X . ",
". X @ , C / Y.R.P.}.oXOXOXoX'.`.E.S. .@.=.a g g g j 8.s.:XwXgXjXjXgXwX:Xu.8.:.g g g g s @.1.S.L.`.'.OXOXOXoX}.I.Z.n./ C , @ O . ",
"X O $ , Z ( n.N.I.{..XoXXX.X|.}.{.I.~.1.+.w - - - q d 8.#X0XuXgXgXfX0X$X>.d q ; - - w I 1.~.`.'.'.}..XXXoX|.}.I.T.b.) C , % O . ",
"% & > 6 S F } B.J.^.{.|..X.X.XOX].]./.S...e & & < < u %.u.:XqXwXwX0X;Xi.*.u < $ & < e ..S.).].].XX.X.X].|.}.Q.K.B.} F S 6 , % % ",
"5 l l c S A ` } B.E.I.`.}.}.XXOX+X[. X~.V.L J H m J P *.3.e.p.a.a.p.u.3.*.P H H H G K V.~. X[.+XOX.X|.`._.Q.E.B.} F G Z l l l l ",
"Q R Y N m 7 m G } B.T.I._.}.].[.OXOX|.^.L.S.V.C.V.X.X.1.*.;.;.;.;.-.;.*.1.X.V.V.C.V.S.~./.|.oXOXOX.X}._.I.J.B.} G m 7 m N U R R ",
"z.z.! U n > : 0 D } N.R.Q.}.XXoX].].|.}. X)././.).).~.C.P u = - - = u P C.~.).)././.).{.}.].]..XOX.X}.Q.R.N.} D 0 > > 3 Y ! z.x.",
"G.G.k.R 5 < @ , C ) n.N.W.Q.{.}.}.}.}.}.|..X.X|.oX.X).S...e p # # p e ..S.)..XOX.X.X|..X}.{.}.{.{.{.Q.W.N.U.( C < $ < 5 R z.F.G.",
"H.G.z.R 5 @ o < C ) b.n.Z.W.K.I.W.I.I.{.}.].[.+X+X+X'.~.C...J H H J ..X.~.|.OX+X+X[..X'.{.I.I.W.I.K.W.J.N.[ ( C % @ @ 5 R z.G.H.",
"H.G.k.Y 5 # # : C ( v.n.N.T.T.T.T.T.R.I.{.|.OXOXOXOX|./.L.S.D.C.V.V.S.L./.|.OXOXOXOX|.{.W.R.T.T.A.A.T.N.n.v./ C 9 o # n R k.G.H.",
"H.G.k.R 3 < $ , Z ) [ v.U.v.n.} b.M.m.J.I.`..XoX]..X.X X).).).(./.).).). X.X.X.XoX.X`.I.Z.A.M.M.b.v.n.b.b.[ ( C 9 $ $ l R k.G.H.",
"G.F.z.~ N > < 0 v F ^ ' ' ] ] [ ' [ M.A.K.).{.{.`.`.`.{.{.}.}.}.{.{.{.{.{.`.`.`.|.`.Q.K.A.b.[ ' ] ] ] ' ^ _ F M 6 > > x ~ k.F.G.",
"G.F.z.j.U x 5 5 v A C F ) { ' ] ] [ b.Y.T.K.W.Q.I.I.I.I.I.P.P.P.P.P.P.P.I.I.I.I.W.W.W.Z.m.v.] ] ] ' ' ) F D C c 7 3 N Y j.z.F.G.",
"G.F.x.z.l.~ B N 7 6 7 Z D ^ [ v.[ [ v.Y.N.N.Z.A.Z.A.Z.A.Z.Z.Z.Z.Z.T.J.Z.A.Z.A.A.T.A.A.m.Y.[ ] [ ] ' { F S 6 6 7 x Y ~ l.z.x.F.F.",
"G.F.F.x.z.k.! U 5 < < 6 D ^ [ ] [ [ ] [ b.b.b.b.b.b.b.b.U.m.M.M.U.U.U.U.b.b.n.n.M.b.b.v.[ [ [ [ ] ] ^ C 7 < > 6 Y ~ k.z.F.F.F.F.",
"G.F.G.G.G.F.k.~ x 8 > 6 v F ) / ) ) / / { ' [ [ [ [ [ [ [ [ [ ' { [ ] [ [ [ [ [ [ [ { ' ' ) ) ) ( ) F C 6 > 8 x Q z.F.G.G.G.F.G.",
"x.F.G.G.G.H.c.j.Y x 5 7 v v A C C C D D ^ { [ [ [ [ [ [ ] [ ] ] ] ] [ [ [ [ [ ' [ [ { ^ D D A v C A v c 7 5 x R j.c.G.G.G.F.F.F.",
"G.F.F.F.G.F.F.z.! Q U N 7 6 9 9 < 9 6 Z F { ] v.] [ [ [ [ [ [ [ ] ] [ [ [ [ [ ] v.] { F Z 6 , 9 9 9 6 n N U ~ ~ x.x.F.G.F.F.F.F.",
"F.F.F.F.G.G.F.z.c.z.~ B l > # @ # $ , 7 D / ' [ [ [ [ ' [ ' ' [ ' ' ' ' ' [ [ [ [ [ ^ F 7 : $ # # @ > n B ! z.c.x.F.F.F.F.F.F.F.",
"F.F.F.F.F.F.F.F.G.F.z.~ x 8 $ # # $ > 7 A F _ { / / _ _ ) / _ _ _ ^ _ _ _ _ / / ^ ^ F A 7 > $ # # $ > x R z.F.G.F.F.F.F.F.G.F.F.",
"F.F.F.F.F.F.G.G.G.G.x.l.Y x l 3 5 5 n m m A A C A A A A A A A A G C A A A A A A A A A m m n 5 5 3 l N E l.x.F.G.G.G.F.F.F.F.F.F.",
"F.F.F.F.F.F.G.F.G.F.F.z.j.~ R R R Y Y N m 6 , , , , , , , 6 , , , , , , , 6 , , , , 6 m V Y Y Y R R Q j.z.F.G.G.F.F.F.F.F.F.F.F.",
"F.F.F.F.F.F.F.F.G.F.F.x.z.z.k.k.z.k.! U n < & # % % % % % & % % % % % & % % % & # # < n U j.z.k.z.k.k.z.z.F.G.G.F.F.F.F.F.F.F.F.",
"F.F.F.F.G.F.F.G.F.F.F.F.F.F.F.F.G.G.z.R 5 $ X X X O O O X X X X O . O O X O O X . O $ l R k.G.G.G.G.F.F.F.F.G.F.F.F.F.F.F.F.F.F.",
"F.F.F.F.x.F.F.F.F.F.G.G.G.G.H.H.H.G.x.R 3 # X X X X X X X X X X X X X X X X X . . O # n R z.G.H.H.H.G.G.G.G.F.x.G.G.F.F.G.F.F.F."
};
