/* XPM */
static char *_0309_f9316bac7d8539afd5243629f3261ef6d8d1555f7593d07058c98380828e8706[] = {
/* columns rows colors chars-per-pixel */
"64 64 245 2 ",
"   c #0C0101",
".  c #0B0700",
"X  c #140402",
"o  c #190504",
"O  c #150803",
"+  c #1A0707",
"@  c #0D1C00",
"#  c #141D03",
"$  c #161802",
"%  c #1D0B18",
"&  c #171D15",
"*  c #2B051A",
"=  c #250719",
"-  c #351814",
";  c #271914",
":  c #122204",
">  c #0D3D00",
",  c #0C3805",
"<  c #143809",
"1  c #1A231B",
"2  c #153914",
"3  c #0E2503",
"4  c #332716",
"5  c #1E172B",
"6  c #1E1633",
"7  c #221324",
"8  c #22172D",
"9  c #241636",
"0  c #361737",
"q  c #2F0C30",
"w  c #192C22",
"e  c #1B2D2B",
"r  c #282E30",
"t  c #47043E",
"y  c #451731",
"u  c #533929",
"i  c #502C2A",
"p  c #64362D",
"a  c #693B35",
"s  c #6E3430",
"d  c #492B1F",
"f  c #0D4100",
"g  c #0D4D01",
"h  c #064B00",
"j  c #134507",
"k  c #0D5D0A",
"l  c #0B5302",
"z  c #174716",
"x  c #114E0F",
"c  c #2D4913",
"v  c #056B02",
"b  c #096B02",
"n  c #096304",
"m  c #126309",
"M  c #047401",
"N  c #047B02",
"B  c #0A7806",
"V  c #1B4C20",
"C  c #40431C",
"Z  c #6A4839",
"A  c #774639",
"S  c #685239",
"D  c #53402F",
"F  c #2A0D47",
"G  c #29174A",
"H  c #281A55",
"J  c #391D56",
"K  c #34104F",
"L  c #392155",
"P  c #352B4F",
"I  c #2D1969",
"U  c #331868",
"Y  c #351A78",
"T  c #2A1978",
"R  c #2E1C65",
"E  c #490341",
"W  c #4E1252",
"Q  c #522A4C",
"!  c #4B0A6A",
"~  c #69036C",
"^  c #6D0171",
"/  c #730172",
"(  c #492A70",
")  c #723B58",
"_  c #715246",
"`  c #7B6450",
"'  c #6E4468",
"]  c #82533E",
"[  c #97574A",
"{  c #8F554C",
"}  c #A65D51",
"|  c #926958",
" . c #A86658",
".. c #B66C5B",
"X. c #BB7A5A",
"o. c #915570",
"O. c #9C726B",
"+. c #B06D70",
"@. c #C97B6A",
"#. c #D07F76",
"$. c #038401",
"%. c #048D01",
"&. c #0A8806",
"*. c #029301",
"=. c #029C01",
"-. c #079405",
";. c #01A500",
":. c #01AB01",
">. c #04AB07",
",. c #01B302",
"<. c #9A836B",
"1. c #A78D71",
"2. c #B18E73",
"3. c #C98774",
"4. c #D88676",
"5. c #D58D74",
"6. c #E48B76",
"7. c #E88D78",
"8. c #EB927B",
"9. c #E7937B",
"0. c #F39379",
"q. c #F18F76",
"w. c #351E87",
"e. c #2E1F97",
"r. c #321E93",
"t. c #361E99",
"y. c #2E1A86",
"u. c #382389",
"i. c #2E2194",
"p. c #2B2098",
"a. c #352295",
"s. c #3A2295",
"d. c #36239A",
"f. c #3A239A",
"g. c #3E2898",
"h. c #3C26A2",
"j. c #4A1A92",
"k. c #76098C",
"l. c #462A98",
"z. c #4E3694",
"x. c #533294",
"c. c #573697",
"v. c #4F328B",
"b. c #683792",
"n. c #561AA4",
"m. c #7014AC",
"M. c #4229A2",
"N. c #4928A5",
"B. c #5425A8",
"V. c #4932AA",
"C. c #4E35B2",
"Z. c #5538B6",
"A. c #5735A8",
"S. c #772BBC",
"D. c #6535B8",
"F. c #6632AA",
"G. c #784A8B",
"H. c #764A93",
"J. c #6D438F",
"K. c #5D44B4",
"L. c #6644B5",
"P. c #583DC2",
"I. c #7536C8",
"U. c #5C43C7",
"Y. c #694AC7",
"T. c #674AD6",
"R. c #784AD8",
"E. c #6C52DB",
"W. c #7652DA",
"Q. c #764BC9",
"!. c #7B4BE2",
"~. c #6F58E2",
"^. c #7556E5",
"/. c #7459E5",
"(. c #755AE9",
"). c #7A58E8",
"_. c #8B0296",
"`. c #8C0199",
"'. c #850284",
"]. c #9B01AD",
"[. c #9602A6",
"{. c #9909B6",
"}. c #890DAE",
"|. c #A400B3",
" X c #A800B8",
".X c #A000AD",
"XX c #872FB9",
"oX c #8C558A",
"OX c #A86784",
"+X c #B66E84",
"@X c #9D6185",
"#X c #CB7C81",
"$X c #D17D82",
"%X c #971ECA",
"&X c #8B1FC3",
"*X c #9322C6",
"=X c #8538D4",
"-X c #8F2ECA",
";X c #AC2DD8",
":X c #A932D6",
">X c #D235EE",
",X c #DB3BFA",
"<X c #D53AF4",
"1X c #C93AEA",
"2X c #EC36FD",
"3X c #E43BFB",
"4X c #EB39FE",
"5X c #E537FA",
"6X c #F235FE",
"7X c #F138FF",
"8X c #8D4DD7",
"9X c #9C4DEC",
"0X c #8453E9",
"qX c #8656E8",
"wX c #9855E9",
"eX c #8F50ED",
"rX c #A24BEC",
"tX c #B94AEB",
"yX c #A753EC",
"uX c #A44EF6",
"iX c #B94AF3",
"pX c #B054F2",
"aX c #AF45DE",
"sX c #C645F6",
"dX c #D643F6",
"fX c #C548EC",
"gX c #D48682",
"hX c #EA9984",
"jX c #F29881",
"kX c #D1AC8C",
"lX c #EAA78A",
"zX c #E4BB99",
"xX c #F6B698",
"cX c #F4AA90",
"vX c #EEC39E",
"bX c #E7C8A3",
"nX c #F8C8A4",
"mX c #F9D5AC",
"MX c #FEDDB4",
"NX c #FDD8B3",
"BX c #ECD0A9",
"VX c #FEE4BA",
"CX c #FEE5B8",
"ZX c #DEC49D",
"AX c #FFEAC1",
/* pixels */
";.;.;.;.;.;.;.:.;.;.;.;.;.;.:.;.:.;.:.:.>.>.>.,.:.:.:.,.:.:.:.,.:.:.:.:.,.:.:.,.;.:.>.:.:.;.;.;.;.;.;.;.;.;.;.:.;.;.;.;.;.;.;.;.",
";.;.;.;.;.;.;.;.;.;.;.;.;.;.;.;.;.;.;.;.;.;.;.=.;.;.;.;.;.;.;.;.;.;.;.;.;.;.;.;.;.;.;.;.;.;.=.;.;.;.;.;.;.;.;.;.;.;.;.;.;.;.;.;.",
";.;.;.;.;.;.;.;.;.;.;.;.;.;.;.>.;.:.;.=.=.-.%.%.%.*.%.*.%.*.*.*.*.*.%.*.*.%.%.*.%.*.*.-.;.;.;.;.;.>.;.;.;.;.;.:.;.;.;.;.;.;.;.;.",
";.;.;.;.;.;.;.;.;.:.;.;.;.:.:.;.:.;.=.-.$.M v v v v v v v v v b v v v v v b b v b b B $.-.=.>.>.;.;.>.;.:.;.;.;.;.;.;.;.;.;.;.;.",
";.;.;.;.;.;.;.;.;.;.;.;.:.:.,.:.:.;.;.$.v l f f > f > j > j j > f f f f > j > > > j l b $.=.;.,.,.;.;.:.;.;.;.;.;.;.;.;.;.;.;.;.",
";.;.;.;.;.;.;.;.;.;.:.;.;.;.;.>.,.;.*.M g 3 # $ # # : # # # # : # : : : # : # # # : 3 l M *.;.;.;.>.;.;.;.;.;.;.;.;.;.;.;.;.;.;.",
";.;.;.;.;.;.;.;.;.;.;.=.*.*.%.&.-.%.&.m 2 1 8 7 7 5 % 7 7 7 7 7 7 7 7 7 7 7 7 % = = & 2 k B %.-.&.%.-.*.;.;.;.;.;.;.;.;.;.;.;.;.",
";.;.;.;.;.;.;.;.:.:.=.*.$.M v v b b k V r P L P J L L L L L L L L J L L W J J K F 9 8 w z n v v v M M $.*.=.;.:.;.;.;.;.;.;.;.:.",
";.;.;.:.;.;.;.:.>.;.=.$.n f > > , < < r P z.z.c.z.z.z.c.v.z.z.x.x.z.v.z.c.c.v.( u.I H 6 w 2 , > < > g b $.=.:.>.,.;.;.;.;.;.;.;.",
";.;.;.;.;.;.:.>.;.;.*.B h , # # # : 1 P ( K.L.E.Y.Y.Y.L.Y.Y.Y.Y.Y.Y.Q.L.Y.W.L.K.l.u.T H 5 & : @ @ # , h M *.;.;.;.;.;.;.;.;.;.;.",
";.;.;.;.;.;.;.-.;.*.B m 2 1 7 7 7 7 y ( L.Q.qXqXqXqXqX0XqXqX).).(.qX(.(.(.(.E.Y.U.V.g.R G 8 % % = % & < m N *.=.;.>.;.;.:.;.;.;.",
";.;.;.;.;.>.=.*.$.v k V r P W J W W ( ' 8X8XyXuXuXuXuXuXuXuXuXuXwXqXqXqXqX(.E.E.U.U.C.z.( ( J F K 9 5 w z k M $.=.=.;.;.:.:.;.;.",
";.;.;.:.:.:.=.%.n h z r P ( J.z.b.b.H.XX:XiXiX<XsXsXsXsXsXiXiXiXyXwXwXqXqX(./.E.~.U.P.P.A.A.v.v.Y U G 6 w < h n %.=.:.;.:.;.;.;.",
";.;.;.;.:.;.%.M g , w P v.K.Y.W.8X8X8XaXtX<X,X,X3X,X,X,X3X,X<XsXpXpXwX8XqX/.~.~.~.~.E.T.Y.Y.U.K.l.j.T H 6 & < g N %.;.>.;.:.;.;.",
";.;.;.;.=.-.B m 2 1 r ( J.Y.qXqXyXpXtXsX<X5X2X6X2X2X3X2X6X6X3XdXsXpXpXwXqX/././.~.~.^.(././.~.U.U.h.u.R F 6 1 2 k B %.=.;.;.;.;.",
";.;.=.*.%.B m x r P ( c.L./.wXyXpXpXfXdX,X2X6X6X6X6X2X6X6X6X5X,XdXfXpXyXwXqX/./.~.(.(.).).qX/.E.T.K.V.l.U F 5 w j k M %.*.=.;.;.",
",.;.=.$.b g 2 r P z.K.L.W.8XyXpXpXdXdX3X4X4X4X6X2X2X6X6X2X2X2X2XdX,X1XtX9X).^./.^.(.^.).(.^.^.~.E.T.P.V.u.Y H r w , g v $.=.;.:.",
">.;.-.b g < 1 P ( K.L.8XqXwXpXtXfXdX3X4X4X3X2X6X2X2X2X2X6X2X2X2X3X,X<XiX9X0X/./.^.^.^.^.^.^.^.^.E.E.T.Z.N.r.R H 9 1 < x B %.;.>.",
">.;.%.b f : 7 L z.Y.qXeXwXpXpXfXdX3X4X7X2X2X2X2X2X2X2X2X2X2X2X2X2X2X,XsX9X0X^.~.^.^.^.^.^.^././.~.(.~.Y.Z.n.w.U q % @ f b %.;.:.",
",.;.*.M h @ 7 L z.E.qXwXyXpXfXdX4X4X7X7X4X2X5X2X3X2X2X2X2X6X2X2X6X2X,XsXrX0X^.~./.^.^.^.(.^.^./.(.(.^.I.I.m.n.! q % @ , M =.:.,.",
",.;.*.B > @ 7 J c.T.0XeXiXsX,X,X4X5X2X2X2X2X2X2X2X3X2X2X2X2X2X2X6X2X,X1XrX0X!.~././.^.(.^.^.(.^.(.).!.R.I.m.k.! q = # f b *.;.,.",
">.;.%.b > $ 7 J x.Y.0XwXiX,X5X5X4X2X3X2X2X2X2X2X2X3X2X2X2X2X6X6X2X2X,XiXrX0X(.^.~./.^.^.(.^.^.^.(.^.!.=X&X{.k.~ E * # f v *.;.,.",
"=.%.B k 2 7 0 ( c.Y.!.uXsX,X2X2X5X2X4X2X4X4X2X4X2X2X2X2X2X2X2X2X2X2X,X1XrX0X^.~.^.^.^.^.(.^././.^.^.!.=X*X{._./ W q ; 2 k B *.-.",
"b b m V 4 y W ! F.E.0XuXsX5X6X6X6X6X2X2X2X2X2X5X2X2X2X3X2X2X2X2X6X2X,XsXrX0X/.~.^.(.^.^.^.^././.(./.!.=X%X{.[.'./ W y 4 V k b M ",
"f j < 4 y ~ ~ b.I.R.).rXsX,X2X6X6X2X2X2X2X2X2X3X3X2X2X3X2X4X2X6X6X2X,X1XrX0X^.E.^.^.^.W./.^.^./.(.^.R.=X*X{.[.[.'./ ~ W r < j j ",
"3 # ; 0 ~ k.}.XXI.R.0X9XsXdX3X6X2X2X2X2X2X2X2X2X2X2X6X2X2X2X2X2X6X2X,XiXuX0X/.~.^.^.^.^.^./././.(.).R.=X*X{.].[.].`.'.W 0 ; : : ",
"o + * E ^ `.{.%X=XR.0X9XfXdX3X4X2X2X2X2X2X6X2X2X2X2X2X2X2X2X5X4X5X5X<XiX9X0X^.~.^.(.^.^.^.^.^.^././.R.=X*X{.]..X X|.`.^ E * + O ",
"X + * E / [.{.*X=X!.0XwXtXfXdX3X4X4X4X2X4X6X6X6X6X2X6X2X7X4X4X3X5X,XsXpX9XqX(./.(.).(.).^.^././././.R.=X*X{.{.|. X|.`./ E * o X ",
"  o * t ~ _.{.*X=X!.qXeXyXtXfXdX3X4X6X6X6X6X2X6X6X6X2X6X6X6X4X3XdXsXpXyXwXqX/./.(.(.(.^.).(./././.).R.=X&X{.|.|.|.]._.~ t * o X ",
"X o * E / _.{.*X=X!.).qXwXyXtXfXdX3X6X6X2X2X2X2X2X2X2X2X2X2X5X,XfXtXyXwXqX0X/.~.^.^.^.^.^.^./././.^.R.=X*X{.].|. X]._.^ E * o X ",
"X + * E / _.{.%X=X0X!.).qX8XwXaXtX1X>X<X>X>X>X>X>X>X>X>X>X>X>XfXaXyXwX8XR.W.E.E.E.E.E.^.W.^.^./.(.).R.=X&X{.].|. X]._.^ E * o O ",
". O * E ~ _.{.*X=X0XW.W.Q.8X8X-X-X:X;X;X;X;X;X;X;X;X;X;X;X;X:X-X-X8XI.Y.Y.Y.U.U.U.P.Y.T.E.^.(.(.(.^.W.=X*X{.|.|.|.]._.~ t * O . ",
"X O * t ^ `.{.%X=X0X/.E.Y.Z.D.D.S.S.S.S.S.S.S.S.S.S.S.S.S.S.S.S.F.D.Z.Z.Z.Z.Z.C.C.C.Z.U.T./.(.(.(.(.!.=X-X%X|.|.|..X`.~ t = + X ",
"O O * t ~ `.{.%X=X!.~.U.K.A.B.N.N.B.B.B.n.B.B.B.B.B.B.B.B.B.N.B.A.M.N.N.l.M.h.l.M.M.V.Z.U.E./.(.(.(.R.=X&X{.].|.|.]._.~ t = + . ",
"X O * t ~ k.}.&XI.I.T.U.V.h.f.d.d.d.d.d.g.d.d.d.d.g.d.f.d.d.d.d.s.s.d.d.f.s.f.f.s.s.h.C.U.T.T.E.E.T.R.I.&X}.[.].].].`.^ t * + X ",
"O O * 0 ! k.m.S.P.I.P.Z.V.f.a.a.i.i.i.i.i.i.e.e.i.p.p.d.i.i.e.e.i.e.e.i.a.a.t.s.r.d.g.V.Z.U.U.Y.U.Y.I.D.m.m.m.`.{.].`./ t = o O ",
"X + = q ! j.n.B.Z.C.C.N.h.h.i.i.r.t.e.e.r.i.r.r.i.i.i.i.r.r.r.r.e.e.e.d.d.a.a.a.d.s.f.M.V.C.C.C.Z.C.C.C.n.n.m.m.].].`./ t * + O ",
"X O % 9 K j.j.N.N.N.M.h.g.d.d.a.t.d.a.a.t.t.s.s.d.d.g.d.d.t.d.s.f.s.s.s.f.d.f.s.d.s.f.g.h.M.M.l.h.h.l.g.g.n.n.m.}.}.`./ t = + O ",
"X o % 9 I w.t.h.M.f.t.s.d.f.s.g.v.l.x.x.v.x.x.x.x.z.z.x.x.x.x.x.x.x.x.l.l.s.a.d.d.d.d.d.s.s.s.s.h.g.a.d.a.f.l.n.m.m.k.^ t = + X ",
"o o % 9 H w.a.d.h.r.a.d.d.f.l.x.b.J.H.G.H.G.G.H.G.G.G.G.G.G.G.G.H.H.H.c.z.s.a.d.f.d.s.s.d.s.s.a.d.s.a.a.i.d.M.n.m.m.k.^ q = o X ",
"X o % 9 I u.f.h.h.d.d.a.d.h.l.b.G.@XOX+.OXOXOXOXOXOXOXOXOX+.OXOX+XOX@XoXb.N.f.p.s.d.f.d.s.r.s.a.a.a.d.d.s.s.t.N.n.n.j.! q = o o ",
"o X % 9 I Y a.h.d.d.f.a.d.s.B.H.@X+X$X#.$X#X#X$X$X#.gX#X#X#X#X#.gX#X+XoXb.l.g.p.t.a.f.f.s.s.s.s.s.f.d.d.s.t.t.t.h.j.j.U q % O X ",
"$ $ & 8 H I u.i.u.f.a.i.i.w.( ' +.#XgXq.q.6.7.6.7.6.6.7.gX7.7.6.4.@.+.o.oXb.l.s.s.a.d.d.t.f.f.s.d.f.d.s.s.s.t.l.r.y.U H 5 1 # # ",
"f > 2 w r H I Y u.s.a.y.T I ( ' +.#X0.0.0.q.7.7.q.7.7.8.0.0.6.@...} [ | ' o.J.c.x.g.d.d.d.s.s.d.s.d.d.s.h.f.t.w.y.I H 6 w 2 f f ",
"M b k z e 9 G U y.u.a.T I F 0 _  .3.0.0.8.7.9.6.7.7.7.8.0.0.5...[ s a _ o.o.@XoXA.l.r.t.t.a.d.d.s.a.a.f.h.g.r.y.U F 9 1 x m v M ",
"*.*.N m < 1 6 F I u.u.I 6 6 - Z [ @.7.0.8.6.6.7.6.9.7.q.8.6.@.} A i d Z { @.+X@XH.x.s.r.a.a.f.d.f.s.s.d.f.a.w.I F 5 1 < n B %.*.",
">.;.%.M g , & 5 H R Y G 9 q d s [ ..@.5.9.5.hXjXhXhX9.5.4.@. .[ Z d u A  .#.#.+XoXb.v.l.g.u.s.s.t.f.s.s.u.u.U H 5 & , l M %.;.:.",
",.;.=.$.v g 2 w G H J L Q p s s A {  .+.3.lXcXcXxXlXhX4.X. .{ { A S _  .X.#.gX#XOXoXJ.c.z.s.s.h.t.g.u.r.u.Y H 9 w < g b &.=.:.,.",
",.:.;.*.$.N n z w 6 0 Q Z { { A s p _ | 2.lXnXnXnXvXlX2.| Z p S ` O.1.3.5.4.4.#.#X+X@XH.c.l.d.t.g.t.r.Y U F 5 w z k M %.*.=.;.>.",
";.;.;.=.=.%.B k 2 1 q a {  ...[ p d i ` 1.lXmXNXMXmXlX2._ u d _ O.kXzXzXlXhXhX6.$X#.+X@XH.x.d.t.h.t.w.I F 5 & < k B %.=.;.;.;.;.",
";.;.>.;.:.;.%.v > @ ; s } @.@.} _ u u ` 2.ZXCXAXCXMXbX2.` u D ` 2.ZXNXnXcX8.6.7.q.7.$XOXH.z.f.t.a.u.T H 6 & , g M %.;.>.;.;.;.;.",
">.:.;.;.:.;.*.v > @ - s } 4.5.@.| ` ` <.kXbXCXAXAXCXbXkX<.` ` <.kXBXMXnXxXjX7.q.q.8.gXOXG.x.r.y.Y I H 9 w < h n %.=.;.:.:.;.;.;.",
";.;.;.>.:.;.%.v , # - s } @.7.9.2.2.2.kXZXmXMXVXCXMXmXZX2.2.2.kXZXmXMXBXxXhX6.7.0.jX$XOXoXx.w.T K F 6 w z k M $.*.;.;.;.:.:.;.;.",
";.;.;.;.>.;.%.v , # - p [ @.hXhXlXzXbXbXmXNXMXCXCXmXmXBXBXBXZXbXBXMXmXvXcX9.6.6.q.6.#.OXH.x.w.T F 6 & , k N *.=.;.:.;.;.;.;.;.;.",
";.;.;.>.:.;.*.M h , 4 u { ..#.hXxXnXmXNXNXMXMXMXCXMXMXMXCXCXCXMXMXmXnXxXcXjXq.#.#.@.+.o.J.( I H 6 & 3 h M *.;.:.;.>.;.;.;.;.;.;.",
">.;.;.;.:.;.=.N v g c 4 D {  .2.lXzXmXNXMXMXVXCXVXCXCXCXCXCXCXCXmXnXxXxXjX0.7.@...} { ) ( L H G w 2 h v &.=.;.>.;.;.;.;.;.;.;.>.",
";.;.;.;.;.;.=.*.N M b c C D A  .3.8.xXnXmXCXVXVXCXCXCXCXCXCXMXmXnXxXcXcX0.jX4...[ A p y 0 q 8 w z k M %.*.;.;.,.;.;.;.;.;.;.;.;.",
";.;.;.;.;.;.;.=.=.%.B m j 4 u s } 4.cXxXnXmXMXMXCXMXMXCXCXMXmXnXcXlXhXhX8.7.@. .A d - = = 7 & 2 m B %.=.;.;.;.;.;.;.;.;.;.;.;.;.",
";.;.;.;.;.;.;.>.;.;.*.v g , 4 u ]  .@.kXkXzXzXZXzXzXZXzXZXzXkXkX5.3.@.@.3.@...{ u 4 # $ @ 3 , g N %.;.:.;.;.;.:.;.;.;.;.;.;.;.;.",
";.;.;.;.;.;.:.>.:.:.=.$.l g j C Z _ }  ...1.<.1.1.1.1.1.1.1.1.O.| | [ [ } [ ] D C j > > , > g n $.=.;.>.:.;.;.;.;.;.;.;.;.;.;.;.",
";.;.;.;.;.;.;.:.>.;.=.*.$.M m c C u p a Z Z _ _ S _ S _ _ S S Z a p p p p p u c m m n b v b M N =.=.>.;.:.;.;.;.;.;.;.;.;.;.;.;.",
";.;.;.;.;.;.;.;.;.;.;.;.;.*.&.n j 4 - - - 4 4 4 4 4 4 4 4 4 4 - - - - - - - 4 < m B %.-.*.%.-.=.=.;.;.;.:.:.;.;.;.;.;.;.;.;.;.;.",
";.;.;.;.;.;.;.;.;.:.;.>.;.;.%.v f : + + O O o O + o + + O O + + O + + + o o # j v -.;.:.;.;.;.>.;.;.;.;.;.;.;.;.;.;.:.;.;.;.;.;.",
";.;.;.>.;.;.;.;.;.;.;.>.,.:.-.M , @       . X   .     .                 X X @ j M -.;.,.,.,.:.:.;.;.;.;.:.;.;.;.;.;.;.;.;.;.;.;."
};
