/* XPM */
static char *_0036_48de023147ea057e6778c2ed0b54bac54562d42765d358525f1aa51085239871[] = {
/* columns rows colors chars-per-pixel */
"64 64 245 2 ",
"   c #0C0101",
".  c #0B0700",
"X  c #140402",
"o  c #190504",
"O  c #150803",
"+  c #1A0707",
"@  c #0D1C00",
"#  c #141D03",
"$  c #161802",
"%  c #1D0B18",
"&  c #171D15",
"*  c #2B051A",
"=  c #250719",
"-  c #351814",
";  c #271914",
":  c #122204",
">  c #0D3D00",
",  c #0C3805",
"<  c #143809",
"1  c #1A231B",
"2  c #153914",
"3  c #0E2503",
"4  c #332716",
"5  c #1E172B",
"6  c #1E1633",
"7  c #221324",
"8  c #22172D",
"9  c #241636",
"0  c #361737",
"q  c #2F0C30",
"w  c #192C22",
"e  c #1B2D2B",
"r  c #282E30",
"t  c #47043E",
"y  c #451731",
"u  c #533929",
"i  c #502C2A",
"p  c #64362D",
"a  c #693B35",
"s  c #6E3430",
"d  c #492B1F",
"f  c #0D4100",
"g  c #0D4D01",
"h  c #064B00",
"j  c #134507",
"k  c #0D5D0A",
"l  c #0B5302",
"z  c #154914",
"x  c #2D4913",
"c  c #056B02",
"v  c #096B02",
"b  c #096304",
"n  c #126309",
"m  c #047401",
"M  c #047B02",
"N  c #0A7806",
"B  c #1B4C20",
"V  c #40431C",
"C  c #6A4839",
"Z  c #774639",
"A  c #685239",
"S  c #53402F",
"D  c #2A0D47",
"F  c #29174A",
"G  c #281A55",
"H  c #391D56",
"J  c #34104F",
"K  c #392155",
"L  c #352B4F",
"P  c #2D1969",
"I  c #331868",
"U  c #351A78",
"Y  c #2A1978",
"T  c #2E1C65",
"R  c #490341",
"E  c #4E1252",
"W  c #522A4C",
"Q  c #4B0A6A",
"!  c #69036C",
"~  c #6D0171",
"^  c #730172",
"/  c #492A70",
"(  c #723B58",
")  c #715246",
"_  c #7B6450",
"`  c #6E4468",
"'  c #82533E",
"]  c #97574A",
"[  c #8F554C",
"{  c #A65D51",
"}  c #926958",
"|  c #A86658",
" . c #B66C5B",
".. c #BB7A5A",
"X. c #915570",
"o. c #9C726B",
"O. c #B06D70",
"+. c #C97B6A",
"@. c #D07F74",
"#. c #038401",
"$. c #048D01",
"%. c #0A8806",
"&. c #029301",
"*. c #019C01",
"=. c #079405",
"-. c #01A500",
";. c #01AB01",
":. c #04AB07",
">. c #01B302",
",. c #9A836B",
"<. c #A78D71",
"1. c #B18E73",
"2. c #C98774",
"3. c #D88676",
"4. c #D58D74",
"5. c #E48B76",
"6. c #EA8D7A",
"7. c #E78D78",
"8. c #EB927B",
"9. c #E7927A",
"0. c #F39379",
"q. c #F18F76",
"w. c #351E87",
"e. c #2E1F97",
"r. c #321E93",
"t. c #361E99",
"y. c #2E1A86",
"u. c #372289",
"i. c #2E2194",
"p. c #2B2098",
"a. c #352295",
"s. c #3A2295",
"d. c #36239A",
"f. c #3A239A",
"g. c #3E2898",
"h. c #3C26A3",
"j. c #4A1A92",
"k. c #76098C",
"l. c #462A98",
"z. c #4E3694",
"x. c #533294",
"c. c #573697",
"v. c #4F328B",
"b. c #683792",
"n. c #571AA4",
"m. c #7014AC",
"M. c #4229A2",
"N. c #4928A5",
"B. c #5325A8",
"V. c #4932AA",
"C. c #4E35B2",
"Z. c #5538B6",
"A. c #5832A9",
"S. c #772BBC",
"D. c #6535B8",
"F. c #6632AA",
"G. c #784A8B",
"H. c #764A93",
"J. c #6D438F",
"K. c #5D44B4",
"L. c #6644B5",
"P. c #583DC2",
"I. c #7536C8",
"U. c #5C43C7",
"Y. c #694AC7",
"T. c #674AD6",
"R. c #784AD8",
"E. c #6C52DB",
"W. c #7652DA",
"Q. c #764BC9",
"!. c #7B4BE2",
"~. c #6F58E2",
"^. c #7556E5",
"/. c #7459E5",
"(. c #755AE9",
"). c #7A58E8",
"_. c #8B0296",
"`. c #8C0199",
"'. c #850284",
"]. c #9B01AD",
"[. c #9602A6",
"{. c #9909B6",
"}. c #890DAE",
"|. c #A400B3",
" X c #A800B8",
".X c #A000AD",
"XX c #872FB9",
"oX c #8C558A",
"OX c #A86784",
"+X c #B66E84",
"@X c #9D6185",
"#X c #CB7C81",
"$X c #D17D82",
"%X c #981ECA",
"&X c #8B1FC3",
"*X c #9322C6",
"=X c #8538D4",
"-X c #8F2ECA",
";X c #AC2DD8",
":X c #A932D6",
">X c #D235EE",
",X c #DB3BFA",
"<X c #D53AF4",
"1X c #C93AEA",
"2X c #EC36FD",
"3X c #E43BFB",
"4X c #EB39FE",
"5X c #E537FA",
"6X c #F235FE",
"7X c #F138FF",
"8X c #8D4DD7",
"9X c #9C4DEC",
"0X c #8453E9",
"qX c #8656E8",
"wX c #9855E9",
"eX c #8F50ED",
"rX c #A24BEC",
"tX c #B94AEB",
"yX c #A753EC",
"uX c #A44EF6",
"iX c #B94AF3",
"pX c #B054F2",
"aX c #AF45DE",
"sX c #C645F6",
"dX c #D643F6",
"fX c #C548EC",
"gX c #D48682",
"hX c #EA9983",
"jX c #F29881",
"kX c #D1AC8C",
"lX c #EAA68A",
"zX c #E4BB99",
"xX c #F6B698",
"cX c #F3AA90",
"vX c #EEC39E",
"bX c #E7C8A3",
"nX c #F8C8A4",
"mX c #F9D5AC",
"MX c #FEDDB4",
"NX c #FDD8B3",
"BX c #ECD0A9",
"VX c #FEE4BA",
"CX c #FEE5B8",
"ZX c #DEC49D",
"AX c #FFEAC1",
/* pixels */
"-.-.-.-.-.-.-.-.-.;.-.-.-.-.-.-.:.-.-.-.:.:.;.;.>.;.;.>.;.>.;.;.;.>.;.;.>.;.;.;.;.:.;.:.-.-.-.:.-.-.-.-.-.-.-.;.-.-.-.-.-.-.-.;.",
"-.-.-.-.-.-.;.-.-.-.-.-.-.-.-.-.-.-.-.-.-.-.-.-.-.-.-.-.-.-.-.-.-.-.-.-.-.-.-.-.-.-.-.;.-.-.-.-.-.-.-.-.-.-.-.-.-.-.-.-.-.-.-.-.",
"-.-.-.-.-.-.-.-.-.-.-.-.-.-.-.;.-.-.-.*.&.$.$.$.&.$.$.&.$.&.$.&.$.&.&.$.&.$.&.&.$.$.&.*.*.-.-.;.:.-.-.-.-.-.-.-.-.-.-.-.-.-.-.-.",
"-.-.-.-.-.-.-.-.-.-.-.;.-.;.;.-.;.:.*.&.%.N c v c v v c c c c v c c c c c c c c c c m #.&.-.-.;.-.;.-.-.-.-.-.-.-.-.-.-.-.-.-.-.",
"-.-.-.-.-.-.-.-.-.-.-.-.;.-.>.;.;.-.-.#.v l > > > > j j > > f f > j > j f > j > > f h v #.*.;.;.>.;.-.;.-.-.-.-.-.-.-.-.-.-.-.-.",
"-.-.-.-.-.-.-.-.-.-.-.-.-.-.-.-.-.-.&.m g 3 : $ # # # # # : # : # # : : # # # # $ $ 3 l m *.-.;.-.-.-.-.-.;.-.-.-.-.-.-.-.-.-.-.",
"-.-.-.-.-.-.-.-.-.-.-.*.&.&.=.%.&.=.N k < 1 % 7 % = 7 7 7 7 7 7 7 7 7 7 7 % 7 5 7 7 w B n N $.$.%.&.&.&.*.-.-.-.-.-.-.-.-.-.-.-.",
"-.-.-.-.-.-.-.-.;.;.*.&.#.m m v c c k z w 8 0 D H H H K K H H K K K K K K K K H K K L r B k c v v c m #.&.-.:.-.-.-.;.-.-.-.-.-.",
"-.-.-.-.-.-.;.;.>.;.*.#.v g > > > , 2 w e G I U / z.z.J.z.z.z.c.x.z.z.v.x.z.z.z.x.z./ L r j > , > > g v #.-.-.:.>.-.-.-.-.-.-.-.",
"-.-.-.-.-.-.-.-.-.-.$.m g , : $ @ # & 5 G Y u.M.K.K.Y.W.Y.Y.L.Y.Y.Y.Y.L.Y.Y.Y.Y.Y.Y.K.z.L ; : : # # < j m &.-.-.;.-.-.-.-.-.-.-.",
"-.-.-.;.-.-.-.*.*.=.M k 2 & % = % ; 8 F U g.V.Z.T.~.(.(.(.qX(.qX).qXqXqXeX0X0XeXqXqXW.L./ 0 7 % = 7 1 2 n N $.*.-.:.*.-.-.-.-.-.",
"-.-.;.;.;.-.-.&.#.m b z w 9 q D D H / / z.V.P.T.E.~.(.qX(.qXqXwXwXuXuXuXuXuXuXuXuXwXwXXXb./ W W E K L r B k m #.&.*.:.-.;.-.-.-.",
"-.-.-.-.-.-.*.$.v h < w 6 G T / j.v.z.K.K.U.T.T.E.~.(.).qXwXwXyXiXiXsXsXsXsX<XiXsXsXtX:XXXH.b.b.c.c./ L r z l b #.*.-.>.;.-.-.-.",
"-.-.-.;.:.-.=.m g < & 9 G Y u.l.Z.U.Y.Y.T.E.E.E.~.~.).qXqXwXyXtXsXdX,X,X,X,X,X,X3XdXdX1XaX8X8X8XQ.Y.K.z.L 1 , g M &.-.-.-.-.-.-.",
";.-.-.*.*.$.N b 2 & 7 J U a.V.Z.T.E.(.(././.^././.^.).qXwXyXtXsXdX3X4X6X2X2X2X2X4X2X3XdXdXtXyXyXqXqXY.J./ 0 1 2 n N $.*.=.-.-.;.",
";.-.*.=.$.M k j w 5 F I u.h.P.T.E.^.).).(.(./././.^.0XwXyXtXfXdX,X4X6X6X2X2X2X6X6X6X2X3XdXfXpXpXyXwX/.K.x./ L r B k M $.&.-.-.-.",
";.;.*.#.v g < w 9 G Y u.c.P.T.T.^.^.^.).).(.^.^./.^.).eXiX1X<X,X4X2X2X2X6X2X2X2X6X2X4X3X4XdXsXiXpXyXqXQ.L.K./ L B B g b #.*.-.>.",
":.-.%.N l < & 9 D I g.V.Z.T.E.^.~.^.^.^.^.^.^./.^.^.0X9XiX,X5X5X2X2X2X6X2X2X2X2X2X2X4X2X4X3XdXdXpXpXwXqX8XY.K./ L r < g m $.*.:.",
";.-.=.v , @ % q P w.n.D.T.~.^./.^.^.^.^.^.^.^./.^.^.0XrXiX,X2X6X2X2X2X2X2X2X2X2X2X2X4X2X6X4X3XdXfXfXyXwXqXqXY.z.E % 3 f v $.-.:.",
">.;.&.m h $ % q Q n.n.I.I.^.(.(.^.(.(.^.^.^.^./.~.^.0XrXsX,X2X6X2X2X6X2X2X2X2X2X2X5X2X2X6X2X4X3XdXfXpXyXwX).E.z.K 5 @ h c *.-.>.",
">.-.&.c f # = q Q k.S.I.R.!.)./.^.^.(.^.^.^././.E.^.0XrXsX,X2X6X6X6X2X2X2X2X3X3X2X2X2X2X2X2X5X5XdXdXsXpX9X0XY.c.E 7 # > N &.-.>.",
">.-.&.c , # * R ~ k.}.*X=X!.)./.^.^.^.(.^.^.^.^.^.^.0XrXsX,X2X2X2X2X2X2X2X2X2X2X2X2X2X2X2X2X5X4X4X4X,XiXuX0XY.x.K 7 $ > b &.-.>.",
"=.&.N k < ; q E ^ _.{.*X=XR.^./.^.^.^.^.^./././.~.^.0XuXiX<X2X2X2X2X2X2X3X2X2X2X2X2X2X2X2X5X2X2X7X4X5XfX9X).T.c./ 9 7 < k N $.&.",
"v v n B 4 t E ^ '.[.{.%X=X!././././.^.^.^./.^./.~.^.0X9X1X5X6X6X2X2X2X4X2X2X2X2X3X5X2X2X2X2X6X6X7X7X5XfXuX).R.F.j.E y 4 z n v m ",
"f f < 4 y ! ~ k.[.[.{.*X=XR.^.(./.^.^.^.^.^.^.^.E./.qXrXsX,X2X6X2X2X4X2X5X2X2X3X5X2X2X2X4X5X2X6X6X2X,X<XrX0X8XI.k.~ ! W w < > j ",
": : ; y ! k.`.[.[..X{.*X=XR.^.(././.^.^.^.^.^.^.~./.0XrXiX,X2X2X2X6X2X2X2X2X2X2X2X2X2X2X2X2X2X6X6X,X,XiXuX!.!.I.XXXX^ ! 0 ; : @ ",
"X + * R ~ `.{. X.X[.{.*X=XR./././.^.^.^.^.(.^.^.~.).0X9XtX<X3X4X2X2X5X2X2X2X2X2X2X2X2X2X2X2X2X5X2X3XdXiX9X).!.I.%X{._.~ R * + O ",
"o % * R ~ `.|. X|.{.{.*X=XR.^./.^.^.^.(.).(.(.(./.(.qX9XpXdXdX3X4X4X4X6X6X6X4X6X7X7X6X2X7X4X4X4X5XdXsXiXwX0X0X=X%X{.`.~ R * o o ",
"  o * t ! _.]. X|.|.{.&X=XR.)./././.(.^.^.(.(.(./.(.0XwXyXtXfXdX3X2X6X6X6X6X6X7X6X6X6X6X6X7X4X3XdXfXfXyXwX).R.I.*X{._.! t * o X ",
"X o * R ~ _.]. X|..X{.*X=XR./.(./.^.^.^.^.^.^.^./.^.qXqXwXyXtXtX,X5X2X6X2X2X2X2X6X6X2X2X2X2X5X<XfXtXyXwXqX0X8X=X*X{.`.^ t * o   ",
"X + * R ~ _.]. X|..X{.*X=XR./.(.(.^.^.^.W.E.T.E.E.~.W.R.8X8XyXaXfX1X>X>X>X>X>X>X>X>X>X>X>X>XfXtXaX8XwXqX).).qX=X*X{.`.^ t * + X ",
". O * t ! _.].|.|..X{.-X=XR.).(.(.(.~.E.T.T.Y.P.U.U.P.Y.Y.Q.8X-X-X:X;X;X;X:X;X;X;X;X;X;X;X;X:X:X-X8XQ.W.W.^.8X=X*X{._.~ t * o . ",
". O = R ! _.]. X|.|.{.%X=X!.(.(.(.(.~.T.U.Z.C.C.C.C.Z.Z.Z.D.D.D.I.S.S.S.S.S.S.S.S.S.S.I.XXS.S.D.D.D.D.Y.T.^.!.=X;X{.`.! t = O X ",
"X + * t ! _.].{.|.{.{.&X=XR.).(.(.^.E.U.Z.V.M.l.M.M.h.M.l.N.N.B.B.N.B.B.B.B.B.B.B.B.B.B.n.n.B.B.N.B.V.Z.T.W.!.=X%X{._.~ t * O . ",
"X + * t ~ _.{.].].].}.XXI.R.T.E.^.E.T.K.C.h.s.t.f.g.d.d.d.s.f.f.d.d.d.f.d.d.f.d.a.d.d.a.h.i.d.a.f.f.l.V.U.T.R.I.&X}.k.! t = o X ",
"X + * t ^ _.].].[.m.m.S.D.D.T.U.T.U.U.Z.V.h.s.a.r.a.a.a.a.i.e.e.e.e.e.i.p.a.p.i.i.i.i.i.e.e.i.i.e.i.d.V.Z.P.P.I.S.m.k.Q q = o X ",
". + * t ^ `.].{.m.m.n.n.C.C.C.C.C.C.V.V.M.g.d.a.s.a.a.d.a.e.p.t.r.r.r.i.a.i.i.i.r.e.e.r.r.e.r.t.a.a.d.h.V.C.C.B.n.n.j.Q 0 = o X ",
"O O = R ~ `.[.}.m.n.j.l.h.l.M.M.M.M.M.M.f.f.f.a.f.s.s.f.f.s.f.t.a.a.a.d.d.a.f.a.f.s.t.s.a.f.t.f.a.a.d.h.g.M.M.N.N.M.Q I q % + X ",
"o o = t ! k.m.m.n.N.t.d.a.s.f.f.s.s.f.s.d.a.f.d.t.a.s.l.l.x.x.x.x.x.z.x.x.x.x.x.x.x.v.x.x.x.l.l.l.d.d.d.d.s.f.h.h.t.y.I 9 % + X ",
"X o * 0 ! k.m.m.n.f.d.p.a.a.s.s.r.s.s.a.f.d.f.f.e.a.g.z.b.H.H.H.G.G.G.G.H.G.G.G.H.G.G.G.H.H.b.b.x.l.f.d.a.a.a.h.d.f.U P 6 % o X ",
"X o = D Q j.n.n.h.f.t.d.a.d.a.a.a.a.r.s.a.d.d.f.e.d.l.c.oX@XO.OXOXOXOXOXOXOXO.OXOXOX@XOX+XO.oXoXc.l.h.d.d.d.d.f.h.h.w.P 6 % o X ",
"X o % q I j.j.j.j.t.f.a.d.f.d.s.a.g.s.s.f.f.a.s.i.s.x.J.oX+X@.@.$X$X$X$XgX#X#X#X@.#X#XgX$X$X+X@XH.x.t.a.a.f.d.s.f.f.u.I 6 % o X ",
"# # & e G P r.r.t.l.s.f.d.d.f.f.f.f.s.f.d.d.s.s.l.v.b.G.X.O.2.3.3.5.6.6.7.5.5.6.5.5.5.6.q.@.#XO.G./ w.w.a.f.s.s.a.w.P G 8 & $ $ ",
"f f 2 w e G P Y w.t.f.h.f.a.f.a.t.s.f.t.t.d.l.l.c.b.G.X.X.] { ..+.5.8.q.q.5.6.6.6.8.8.0.q.hX@.O.` / P Y y.a.s.u.Y I G r w 2 j f ",
"c v k z w 6 F I w.a.f.h.f.s.a.f.d.a.f.e.e.t.l.c.G.oXO.[ ) s Z [  .5.jXjX6.6.9.9.7.6.9.0.0.hX3.| C y F P Y i.w.w.P D 9 w z n v m ",
"&.$.M n < 1 5 D P u.g.f.f.s.s.s.d.s.a.r.r.t.x.H.OX+XO.X.s d d Z { +.7.q.8.7.7.5.6.5.5.6.q.7.+.{ p 8 6 6 P u.w.I D 6 1 < n M &.&.",
";.-.&.m g < & 7 G T w.r.r.s.f.t.d.s.u.l.l.x.b.oX+X@.+.| ) i i C '  .+.3.5.9.hXhXjX9.9.9.3.+. .' p i q 0 K U T G 5 & , g M =.-.-.",
">.;.*.#.v f 2 w 9 G I w.w.s.f.h.f.s.l.z.c.J.oXOX#X3.3...} [ A A ' ] { ..4.hXlXxXcXcXkX4.O.{ ] Z Z a i i L T G F w 2 g v $.=.;.>.",
";.-.-.&.#.m k z 1 5 D H U t.t.d.d.d.l.c.oX@X+X#X@.@.6.5.2.1.,._ Z S C } 1.lXvXnXnXvXlX1.} C s s Z ] [ a W 0 6 w z k M #.&.*.-.>.",
";.-.:.-.*.$.N k < 1 6 D P y.t.d.t.f.l.H.oX+X@.3.gXjXhXlXkXzXkXo.) d d _ 1.zXmXMXMXmXzX1._ u d a ]  . .[ a 7 1 2 k M &.=.-.-.-.-.",
"-.-.-.-.;.:.$.m g , & 6 F Y r.r.t.t.x.J.OX$X9.6.6.7.9.cXnXNXZX<._ S u ) 1.vXCXCXVXVXZX1._ u u A | +.+.{ s - : > c $.-.;.;.-.-.-.",
"-.-.-.;.-.;.*.$.c h , w 9 G P U w.s.x.H.OXgX6.0.6.7.hXxXnXMXBXkX,.} _ ,.kXbXCXCXAXVXbXkX,._ [ } O.3.@.{ s - @ > c $.-.;.;.;.;.-.",
"-.-.;.;.;.-.*.*.#.N k z w 5 F J Y w.x.oXOX3.q.q.6.7.9.xXnXmXmXZXkX1.1.kXzXBXmXCXVXMXmXZXkX1.1.1.9.9.+.{ s - # , c &.-.;.:.-.;.-.",
"-.-.-.-.-.-.-.-.*.&.m k < 1 6 D Y u.x.H.OX@.5.q.7.7.9.lXbXmXNXmXZXZXZXBXmXmXMXMXMXMXNXmXbXZXzXzXlX9.+.] s - $ , c $.-.:.-.-.-.-.",
"-.*.-.-.-.-.-.-.;.*.$.m h , & 6 G T / b.X.O.+.3.3.5.8.cXxXnXmXNXMXCXCXCXMXCXMXVXMXMXMXMXmXmXnXxXlX4.O.' d 4 < g m $.-.;.:.-.-.-.",
"-.-.-.-.-.-.;.;.:.-.*.#.c f 2 w 9 F / / ( [ {  .+.5.0.cXxXxXnXNXMXCXAXCXCXVXVXVXVXVXMXMXMXnXzXlXO.| [ A V < j v #.&.-.-.-.-.-.:.",
"-.-.-.-.-.-.-.-.;.;.:.=.#.m k z w 9 q q y p a {  .@.jXjXcXcXxXnXBXCXCXCXCXCXCXCXVXVXMXmXnXxXhX+.| Z u V x n m #.&.*.-.-.-.-.-.-.",
"-.-.-.-.-.-.-.-.-.-.*.-.*.$.N b 2 & 7 % * - d Z | +.5.hXjXhXlXzXnXmXMXMXCXMXMXCXMXNXNXnXxXcX4.{ Z d 4 < n N &.*.*.-.-.-.-.-.-.-.",
"-.-.-.-.-.-.-.-.;.-.-.-.;.*.%.M g < @ @ $ # 4 p [ | +.+.+.+.2.4.kXlXZXZXZXzXZXzXzXzXzXkX4.2. .' u 4 , h m &.-.-.-.:.-.-.-.-.-.-.",
"-.-.-.-.-.-.-.-.-.-.-.;.;.;.*.$.c h f > > > z x A ' ] { ] ] ] } o.,.<.<.<.<.<.<.<.<.<.o.| } ) C V j h b #.-.;.:.;.-.-.-.-.-.-.-.",
"-.-.-.;.-.-.-.-.-.-.-.;.;.;.-.&.#.m c c c c v x V V p p p p p a C ) A ) A A A A ) ) A C a p u V x n v #.&.-.-.;.:.-.-.-.-.-.-.-.",
"-.-.-.-.-.-.-.-.-.-.;.-.-.-.-.*.=.=.$.=.=.$.%.n x 4 - - - - - - - 4 4 4 4 d 4 4 4 4 4 - - - 4 z v %.&.*.-.-.-.-.-.-.-.-.-.-.-.-.",
"-.-.-.-.-.-.-.-.-.-.-.-.-.*.-.-.;.-.-.;.-.-.$.c > # o o o + + + o + O O + + + + O + O X o o @ j c =.-.;.;.-.;.-.-.-.-.-.-.-.-.-.",
"-.-.-.-.-.-.-.-.-.-.-.-.-.-.;.;.;.:.>.>.>.-.*.c > @   X           . .         X           X @ > c =.;.;.:.-.;.-.-.-.-.;.-.-.-.-."
};
