/* XPM */
static char *_5703_7c29f2553a65e25847e12093f527f5ccf295bc92337db962d194ea2adb7c1f86[] = {
/* columns rows colors chars-per-pixel */
"64 64 147 2 ",
"   c #0B0000",
".  c #160301",
"X  c #180604",
"o  c #170906",
"O  c #180906",
"+  c #170908",
"@  c #190909",
"#  c #0E1700",
"$  c #0E1900",
"%  c #141C02",
"&  c #1F1111",
"*  c #201212",
"=  c #281415",
"-  c #291B16",
";  c #2B1E18",
":  c #311D1E",
">  c #252C15",
",  c #282D16",
"<  c #2D201A",
"1  c #292E18",
"2  c #2A1F23",
"3  c #331F20",
"4  c #2B2024",
"5  c #2F2428",
"6  c #342323",
"7  c #382626",
"8  c #372825",
"9  c #382926",
"0  c #362B2F",
"q  c #3A2B28",
"w  c #372C30",
"e  c #3F3033",
"r  c #3D363D",
"t  c #413236",
"y  c #423837",
"u  c #443538",
"i  c #463C3B",
"p  c #493F3D",
"a  c #0C4100",
"s  c #114304",
"d  c #1C470F",
"f  c #1C4711",
"g  c #1D4912",
"h  c #1F5C17",
"j  c #205D17",
"k  c #205D18",
"l  c #056E01",
"z  c #0A6D03",
"x  c #11670A",
"c  c #12680B",
"v  c #097102",
"b  c #2F4E25",
"n  c #304F26",
"m  c #314F29",
"M  c #315027",
"N  c #33522A",
"B  c #3F4335",
"V  c #404435",
"C  c #434738",
"Z  c #45493B",
"A  c #443D44",
"S  c #4E4442",
"D  c #4F484F",
"F  c #504644",
"G  c #57484B",
"H  c #5A4B4D",
"J  c #475641",
"K  c #4A5944",
"L  c #4D5C49",
"P  c #4F4C55",
"I  c #514C54",
"U  c #5F5150",
"Y  c #5B565F",
"T  c #615452",
"R  c #675C5A",
"E  c #6A5C5B",
"W  c #5F615C",
"Q  c #61635E",
"!  c #6C615D",
"~  c #5C5861",
"^  c #5F5F6A",
"/  c #625C63",
"(  c #615F6C",
")  c #656563",
"_  c #61616D",
"`  c #69656C",
"'  c #706261",
"]  c #6A6770",
"[  c #6A6974",
"{  c #6E6E79",
"}  c #767175",
"|  c #797377",
" . c #058104",
".. c #018F01",
"X. c #019300",
"o. c #01A501",
"O. c #01AD01",
"+. c #04B601",
"@. c #06B901",
"#. c #747682",
"$. c #7C7B85",
"%. c #847F84",
"&. c #868084",
"*. c #8A8186",
"=. c #85848E",
"-. c #888188",
";. c #958E8D",
":. c #838590",
">. c #8B8B96",
",. c #979191",
"<. c #999091",
"1. c #9F9A97",
"2. c #92929C",
"3. c #A39C99",
"4. c #A7A29E",
"5. c #A9A29F",
"6. c #9797A2",
"7. c #9799A5",
"8. c #9A9AA5",
"9. c #A9A4A0",
"0. c #A5A5AF",
"q. c #A6A6B1",
"w. c #A8A8B2",
"e. c #AFAFB9",
"r. c #B1AEB5",
"t. c #B2B2BA",
"y. c #BCBCC2",
"u. c #C0BFC7",
"i. c #C6C4C5",
"p. c #C1C1C9",
"a. c #CACACF",
"s. c #CCCDD2",
"d. c #D1CFD0",
"f. c #CFD0D5",
"g. c #D4D3D2",
"h. c #D4D5D9",
"j. c #DDDDDB",
"k. c #E0DFDC",
"l. c #DDDCE1",
"z. c #E1E1E4",
"x. c #E6E5EA",
"c. c #E8E7EB",
"v. c #EAE9EC",
"b. c #EFEFF1",
"n. c #F1EFF2",
"m. c #EFF0F2",
"M. c #F0F0F2",
/* pixels */
"@.O.X.l a %     .                                                                                               .   % a l X.O.@.",
"O.o.X.l s % o . + @ O o O O o @ o + o o o o o + o o o o + o o o o o o o + o o o o o o o o o o o o o + o O O O o X o % s z ..o.O.",
"X... .x g , ; : 6 7 7 8 8 8 8 8 8 8 8 8 8 q 8 8 9 8 8 q q 8 8 8 8 8 q 8 9 9 8 9 q q 9 q 9 9 9 9 8 9 q 9 9 9 8 6 ; ; , f x  ...X.",
"l l x h m C F U T R ! ! ! ! ! ! ! ! ! ! ! ! ! ! ! ! ! ! ! ! ! ! ! ! ! ! ! ! ! ! ! ! Q ! ! ! ! ! ! ! ! ! ! ! Q U G S B b h x z l ",
"a s f m L ) | %.<.3.9.9.9.9.9.9.9.9.9.9.9.9.9.5.9.9.9.9.9.9.9.9.9.9.9.9.9.9.9.9.4.5.5.4.5.4.4.4.5.5.4.4.5.5.1.;.&.} W Z n g s a ",
"$ % > B W $.8.e.i.g.k.k.k.k.j.k.j.j.j.j.j.j.j.j.j.j.j.j.j.j.j.j.j.j.j.j.j.j.j.j.j.j.k.k.k.j.k.j.j.j.j.k.z.k.d.i.r.8.%.R B > % % ",
"  @ - y ) =.q.y.h.v.M.M.M.M.M.M.M.n.M.M.M.M.n.n.m.m.m.m.m.m.m.m.m.m.m.m.m.m.m.m.m.m.m.m.m.m.m.m.m.m.m.m.M.M.v.z.a.y.8.} S - o . ",
". @ = e ~ $.8.t.s.l.v.v.v.x.x.x.x.x.x.x.x.x.x.x.x.x.x.x.x.x.x.c.x.x.x.x.x.x.x.x.x.x.x.x.x.v.v.z.x.x.v.x.v.v.z.z.j.d.r.%.G : X   ",
". X = 0 D _ :.7.t.u.s.f.f.s.s.s.s.s.s.s.s.s.s.s.a.y.s.u.s.u.a.a.s.f.s.s.a.a.f.a.f.a.f.a.s.s.s.s.s.s.f.s.s.s.s.l.z.z.i.;.U 6 o   ",
". X * 2 A Y #.$.6.q.t.t.t.t.t.t.e.e.t.t.t.t.t.r.y.y.y.y.y.e.y.y.t.t.t.t.t.t.t.t.t.t.t.t.t.t.t.t.t.t.t.e.t.t.y.d.x.v.g.4.E 8 o   ",
". . & 2 r P ^ #.>.8.0.q.0.0.0.0.0.0.0.0.0.0.0.0.8.q.0.0.0.0.0.7.0.0.0.0.0.0.0.0.0.0.0.0.0.0.0.0.q.q.q.8.0.q.e.s.v.m.j.9.' 7 +   ",
". . & 2 r P ^ #.:.8.0.q.0.0.0.0.0.0.8.0.0.0.8.0.8.0.0.0.0.7.0.0.0.0.8.0.0.8.0.0.8.0.0.0.0.8.0.0.q.8.q.0.8.0.e.s.x.m.j.9.! 8 o   ",
". X * 2 r D ( #.:.7.q.q.0.0.8.q.0.0.0.0.0.0.0.0.0.q.0.8.0.0.7.0.0.0.0.0.0.0.0.0.0.9.0.0.0.0.0.0.0.8.q.8.8.0.e.s.c.M.j.5.' q O   ",
". @ * 2 r D ( #.>.7.q.w.q.0.0.q.0.0.0.0.0.0.0.q.q.q.q.q.q.q.q.q.0.0.0.0.0.0.0.0.q.q.0.0.0.0.0.0.q.q.q.q.0.0.t.s.c.n.j.5.E q O   ",
". o * 2 r P _ #.>.8.q.q.0.0.0.0.0.0.0.0.0.0.0.0.0.0.q.q.0.q.0.0.0.0.0.0.0.0.0.0.0.0.0.0.0.0.0.0.0.0.q.0.0.0.t.s.x.M.j.9.! q o   ",
". X * 2 A I _ #.>.8.q.q.0.0.0.0.0.0.0.0.0.0.0.0.0.0.0.0.0.0.0.0.0.0.0.0.0.0.0.9.0.0.0.0.0.0.0.0.0.0.q.0.0.0.t.s.x.M.k.9.E 8 o   ",
". X * 4 r I _ #.%.q.w.w.q.q.0.0.0.0.0.q.0.0.0.q.0.0.q.q.q.0.0.0.0.q.0.0.0.0.q.0.0.q.0.0.0.0.0.0.0.0.q.8.0.0.t.d.x.m.j.5.! 9 o   ",
". X * 4 r I _ #.2.8.w.w.q.q.0.0.0.0.0.0.0.0.0.0.0.q.q.q.7.q.q.0.0.0.0.q.q.0.0.0.0.0.0.q.q.0.q.0.0.0.q.0.8.0.t.a.x.m.j.5.! 9 o   ",
". X * 4 r P _ #.>.7.q.w.q.q.q.0.0.0.0.0.0.0.0.0.0.0.0.0.q.q.q.0.0.q.0.0.0.0.q.0.0.q.0.0.0.0.q.0.0.0.q.8.0.0.t.s.x.M.k.5.! 9 o   ",
". . * 4 r P _ #.>.7.q.w.q.q.0.q.q.0.0.q.q.0.0.q.0.0.q.0.q.q.q.0.0.0.0.q.0.0.0.0.0.0.0.q.0.0.0.0.0.q.q.q.0.0.t.s.x.m.j.4.! 9 o   ",
". O * 4 r I _ #.>.7.w.w.q.0.0.0.0.q.0.0.0.0.q.0.q.0.0.q.0.0.q.0.0.0.0.0.0.0.0.0.0.0.0.0.0.0.0.0.0.0.0.0.0.0.t.d.x.m.j.9.! 9 o   ",
". @ & 4 r P _ #.2.8.w.w.q.0.0.0.0.0.0.q.0.0.0.0.0.0.0.0.q.0.0.0.0.q.0.q.q.0.q.0.0.q.q.0.q.0.0.q.0.0.0.0.8.0.t.s.x.m.j.9.! 9 o   ",
". . * 4 r P _ #.>.7.0.w.w.0.0.0.0.0.0.0.0.0.0.q.q.0.0.0.0.0.0.0.0.0.0.0.0.0.0.0.0.0.0.0.0.0.0.0.0.0.0.8.0.0.r.s.x.m.j.9.! 9 o   ",
". O & 4 r P _ #.>.7.q.w.w.0.0.0.0.q.0.0.q.0.0.0.0.0.0.q.0.0.q.0.0.0.q.0.0.q.0.q.0.0.q.0.0.q.0.q.0.0.0.0.0.0.t.a.x.m.j.9.! 9 o   ",
". X * 4 r P _ #.>.8.w.w.q.0.0.0.0.0.q.0.0.0.0.0.0.0.0.0.0.0.q.0.q.0.0.q.0.0.q.0.0.0.0.0.0.0.0.0.9.0.0.0.0.0.t.s.x.m.j.9.! 9 o   ",
". X * 4 r P _ #.>.8.w.w.w.0.0.0.0.0.0.0.0.q.q.0.0.q.q.0.0.0.0.0.0.0.0.0.0.0.0.0.q.0.0.q.0.q.0.0.0.0.0.8.0.0.t.s.x.m.j.9.! 9 o   ",
". X * 4 r P _ #.>.7.w.w.q.0.0.0.q.0.0.q.0.0.0.0.0.q.0.0.q.0.0.q.0.0.0.0.0.0.0.0.0.0.0.0.0.q.0.q.0.0.0.0.8.0.t.s.x.m.j.9.! 9 o   ",
". . * 4 r P _ #.>.7.q.w.q.0.0.0.0.0.0.0.0.0.q.0.0.0.0.0.0.0.0.0.q.0.0.q.q.0.0.q.q.0.0.q.0.0.0.0.0.0.0.0.0.0.t.s.x.m.j.9.! q o   ",
"X X * 4 y I _ #.2.7.w.w.w.0.0.0.0.0.q.0.0.0.0.0.0.0.0.0.0.q.0.0.0.q.0.0.0.0.q.0.0.0.0.0.0.0.0.0.0.0.0.0.0.0.t.s.x.m.j.9.! 9 o   ",
". X * 4 r P _ #.>.7.w.w.w.0.0.0.q.0.0.0.q.0.q.0.0.q.0.q.0.0.0.q.0.0.0.q.0.0.0.0.0.0.0.0.w.0.0.0.0.0.0.0.8.0.t.s.x.m.j.9.! 9 o   ",
". X * 4 r P _ #.2.7.w.w.q.0.0.0.0.0.q.0.0.0.q.0.0.q.0.0.0.q.0.0.0.0.0.0.0.0.0.q.0.w.0.0.0.0.0.0.0.0.0.8.0.0.t.s.x.m.j.9.! 9 o   ",
"X X * 4 r P _ #.>.7.w.w.q.0.0.0.0.0.0.0.0.0.0.0.0.0.0.0.0.0.0.0.0.q.0.0.q.0.0.0.0.0.0.0.0.0.0.0.0.0.0.0.0.0.t.s.x.m.j.9.! 9 o   ",
"  + & 2 r P ^ #.>.7.q.w.q.0.0.0.0.0.0.0.0.0.q.0.0.q.0.0.q.0.0.q.0.0.q.0.0.q.0.0.0.0.q.0.0.q.0.0.0.0.0.0.0.0.t.s.x.m.k.4.! 9 #   ",
"@ + & 2 r P ^ #.>.7.q.w.q.0.0.0.0.q.0.q.q.0.0.0.0.0.0.q.0.0.0.0.q.0.0.0.0.0.0.0.0.0.0.0.0.0.0.q.0.0.0.0.0.0.t.a.x.m.k.5.! q o   ",
"X + & 2 r P ( #.>.7.q.q.q.0.0.0.0.q.0.0.0.0.0.0.0.0.0.0.0.0.0.0.0.0.0.0.q.0.q.0.0.q.q.0.0.q.0.0.0.0.0.8.8.0.t.s.x.m.j.4.! 8 o   ",
". X & 2 r P ( #.>.0.q.q.q.q.0.q.0.0.0.0.q.0.0.0.q.0.0.0.q.0.0.0.0.0.q.0.0.0.0.0.0.0.0.0.0.0.0.0.0.0.q.0.0.0.t.s.x.m.j.4.! 8 o   ",
". X & 2 r P #.#.>.7.y.0.q.0.0.0.0.0.0.0.0.0.0.0.0.0.q.0.q.0.0.q.0.0.0.0.0.q.0.0.0.0.0.0.0.0.q.0.0.0.0.8.0.0.t.s.x.m.j.9.! 8 o   ",
". X & 2 r P ( #.>.7.0.0.q.0.0.0.q.0.0.q.q.0.0.w.0.0.0.0.0.0.0.0.0.q.0.0.0.0.0.0.q.0.q.0.q.0.0.0.0.0.0.0.0.0.t.s.x.m.j.9.! q o   ",
". @ & 2 r P #.#.>.7.q.q.q.q.0.0.0.0.0.0.0.0.0.0.q.0.0.q.0.0.0.0.0.q.q.0.0.q.q.0.0.0.0.0.0.0.q.0.0.0.0.0.0.0.t.s.x.m.j.9.! q o   ",
". @ * 4 r A ( #.>.7.q.q.q.0.0.0.q.0.q.0.0.0.q.0.0.0.0.0.q.0.0.q.0.0.0.0.0.0.0.0.0.q.0.q.0.0.0.0.0.0.0.0.8.0.t.s.x.m.j.9.! 8 o   ",
". X * 2 u P _ #.>.7.w.w.q.q.0.0.0.0.0.0.0.0.0.0.0.q.0.0.q.0.0.0.0.0.0.0.0.0.0.0.0.0.0.0.0.0.0.0.0.0.q.8.0.0.t.a.x.m.j.9.! 8 +   ",
". X * 4 r P _ #.2.8.w.w.q.q.0.0.0.0.q.0.q.0.0.q.0.0.0.0.0.0.0.0.0.q.q.0.q.0.q.0.0.q.q.0.q.0.q.0.0.0.0.0.0.0.t.f.x.m.j.9.! 8 o   ",
". X * 4 r P _ #.>.7.w.w.q.q.0.0.q.0.q.0.0.0.0.0.q.0.0.0.0.0.0.0.0.0.0.0.0.0.0.0.0.0.0.0.0.0.0.0.0.0.q.0.0.0.t.a.x.M.j.9.! q o   ",
". . * 4 r P _ #.>.7.w.w.q.q.0.0.0.0.0.0.q.0.0.q.0.0.0.q.q.0.0.q.0.0.q.0.0.q.0.q.0.0.q.0.0.q.0.q.0.0.0.9.8.0.t.f.x.M.j.9.! 8 o   ",
". X * 4 r P _ #.>.8.w.w.q.0.0.0.q.0.q.0.0.0.q.0.0.q.0.0.0.0.0.0.q.0.q.0.0.0.0.0.q.0.0.0.0.0.0.0.0.0.0.0.8.q.t.a.x.m.j.9.! 8 +   ",
". @ & 4 r P _ #.>.8.w.w.q.0.0.0.0.0.0.0.0.0.0.0.0.0.0.0.q.0.q.0.0.0.0.0.0.q.0.0.0.0.q.0.0.q.0.0.0.0.0.0.0.q.t.f.x.m.j.9.! 8 o   ",
". O * 4 r P _ #.>.8.q.w.q.q.0.0.0.0.0.0.0.q.q.0.q.0.0.q.0.0.q.0.q.0.0.0.0.q.0.q.q.0.0.0.0.q.0.q.0.0.0.0.0.q.t.s.x.m.j.9.! 9 o   ",
". X * 4 r P _ #.>.7.w.q.q.0.0.0.q.0.q.0.0.0.0.0.0.0.0.0.0.0.0.0.0.0.q.0.0.0.0.0.0.0.q.0.0.0.0.0.0.0.0.0.8.0.t.f.x.m.j.9.! 9 o   ",
". o & 4 r P ^ #.>.8.w.w.q.0.0.0.0.0.0.0.0.0.0.q.0.0.q.0.0.0.0.0.0.0.0.0.0.0.0.0.0.0.0.0.0.0.q.0.0.0.0.0.8.q.t.s.x.m.j.5.! q O   ",
". O * 4 r P _ #.>.8.q.w.q.0.q.0.0.0.q.0.0.q.0.0.0.0.0.0.0.0.0.q.0.q.0.0.0.0.q.0.0.q.0.0.q.0.0.0.0.0.0.8.0.0.t.s.x.m.j.9.! 8 o   ",
". O * 4 r P _ #.>.8.w.w.w.q.0.q.q.q.q.q.q.q.q.0.0.q.q.q.q.q.0.q.q.q.0.q.q.q.0.q.q.q.0.q.q.q.q.q.0.0.0.0.0.q.t.s.x.m.k.5.! 8 o   ",
". . * 2 r P ^ #.>.8.w.w.w.w.0.q.w.q.q.q.q.q.q.w.w.q.q.w.q.w.q.q.w.w.q.w.q.w.w.q.q.w.w.q.q.q.q.q.w.0.w.0.0.w.t.f.x.m.j.5.! 8 o   ",
". X * 2 r P _ #.>.8.w.r.w.w.w.w.w.w.w.w.w.w.w.w.w.w.w.w.w.w.w.w.w.w.w.w.w.w.w.w.w.w.w.w.w.w.w.w.w.w.w.q.0.w.t.f.v.n.k.9.! 7 .   ",
". X = 2 r P _ #.>.8.q.w.w.w.q.w.q.w.q.q.q.q.q.w.q.0.q.q.q.0.q.0.0.0.0.q.q.q.q.q.0.q.0.q.q.q.q.q.0.0.q.0.0.q.t.f.c.n.k.9.! q O   ",
". X * 5 A ~ [ $.>.2.8.8.8.8.6.8.2.8.8.8.7.8.7.8.8.1.8.8.8.8.8.8.8.1.8.8.8.8.2.8.8.8.8.8.8.8.8.8.8.8.8.2.6.8.w.i.l.x.d.3.R 8 @ . ",
". X = 0 D ` #.:.=.>.>.>.>.>.>.>.>.>.>.>.>.>.>.>.>.>.>.>.>.>.>.>.>.>.>.>.>.>.>.>.>.>.>.>.>.>.>.>.>.>.>.>.:.>.2.t.a.h.i.<.T 3 o   ",
". X = t R $.>.>.=.$.#.#.#.#.#.#.#.#.#.#.#.#.#.#.#.#.#.#.#.#.#.#.#.#.$.#.#.#.#.#.#.#.#.#.#.#.#.#.#.#.#.#.#.#.:.7.e.u.e.*.H 3 X . ",
"  . - p ( =.2.>.$.[ ^ ^ ^ ^ ^ ^ _ _ _ _ _ _ _ _ [ _ _ _ _ _ _ _ _ _ _ _ _ _ _ _ _ _ _ _ _ [ _ _ ^ ^ ^ ^ ^ _ { $.8.q.8.} F ; o . ",
"# % 1 Z ) %.-.$.] ~ P P P P P P I P P I I I I P P P I P I I I I P P P P P P P P P P P P P P P P P P D P P P ~ ` #.=.%.Q C , % # ",
"a s g N L ) ` / I A r r r r r r r r r r r r r A r r r r r r r r r r r r r r r r r r r u r r r r r r r r r r A P / / Q K N f s a ",
"z z x k m C p u w 5 4 4 2 4 4 4 4 4 4 4 4 4 4 4 4 4 4 4 4 4 4 4 4 4 4 4 5 5 4 4 2 2 2 4 2 2 2 2 2 4 2 2 2 2 5 w t i V M k c v l ",
"X... .x f , ; = - * * = & & * & * * * * * * * * & & & & * * * * * * * * & & & & * * * * * * * & & & & & * * * = = - > d x v X.X.",
"O.o.X.c s % o X X . X X X . + o . X X . X X . X X X @ + . X O . . X . O . o o o X X X X X X X X . X o o X X . . . X % s z X.o.O.",
"@.O.X.v a #   . . . . . . . . . . . . . . . . . . . . . . . . . . . . . . . . . . . . . . . . . . . . . . . . . .   % a l X.O.+."
};
