/* XPM */
static char *_500_f52b30dcfde8d1f71b34e9c92ff134ff9fa9a763b7af4055a44466be8d755880[] = {
/* columns rows colors chars-per-pixel */
"64 64 11 1 ",
"  c black",
". c #010101",
"X c #020202",
"o c #D99F33",
"O c #F8D918",
"+ c #F8D919",
"@ c #F8DA1E",
"# c #F8F800",
"$ c #F8DA22",
"% c #30C6BF",
"& c white",
/* pixels */
"%%%%%%%%%%%%%%%%%%%%%%%%                %%%%%%%%%%%%%%%%%%%%%%%%",
"%%%%%%%%%%%%%%%%%%%%%%%%                %%%%%%%%%%%%%%%%%%%%%%%%",
"%%%%%%%%%%%%%%%%%%%%%%%%                %%%%%%%%%%%%%%%%%%%%%%%%",
"%%%%%%%%%%%%%%%%%%%%%%%%                %%%%%%%%%%%%%%%%%%%%%%%%",
"%%%%%%%%%%%%%%%%        &&&&&&&&&&&&&&&&        %%%%%%%%%%%%%%%%",
"%%%%%%%%%%%%%%%%        &&&&&&&&&&&&&&&&        %%%%%%%%%%%%%%%%",
"%%%%%%%%%%%%%%%%        &&&&&&&&&&&&&&&&        %%%%%%%%%%%%%%%%",
"%%%%%%%%%%%%%%%%        &&&&&&&&&&&&&&&&        %%%%%%%%%%%%%%%%",
"%%%%%%%%%%%%...X&&&&&&&&$@@@@@@@@@@@@@@@+OOOoooo    %%%%%%%%%%%%",
"%%%%%%%%%%%%...X&&&&&&&&@OOOOOOOOOOOOOOOOOOOoooo    %%%%%%%%%%%%",
"%%%%%%%%%%%%...X&&&&&&&&@OOOOOOOOOOOOOOOOOOOoooo    %%%%%%%%%%%%",
"%%%%%%%%%%%%...X&&&&&&&&@OO+@@@@@@@@+OOOOOOOoooo    %%%%%%%%%%%%",
"%%%%%%%%%%%%    &&&&$@@@####&&&&&&&&####OOOOoooo    %%%%%%%%%%%%",
"%%%%%%%%%%%%    &&&&@OOO####&&&&&&&&####OOOOoooo    %%%%%%%%%%%%",
"%%%%%%%%%%%%    &&&&@OOO####&&&&&&&&####OOOOoooo    %%%%%%%%%%%%",
"%%%%%%%%%%%%    &&&&@OO+####&&&&&&&&####OOOOoooo    %%%%%%%%%%%%",
"%%%%%%%%    &&&&$@@@####&&&&####@@@@    ####OOOOoooo    %%%%%%%%",
"%%%%%%%%    &&&&@OOO####&&&&####OOOO    ####OOOOoooo    %%%%%%%%",
"%%%%%%%%    &&&&@OOO####&&&&####OOOO    ####OOOOoooo    %%%%%%%%",
"%%%%%%%%    &&&&@OOO####&&&&####OOOO    ####OOOOoooo    %%%%%%%%",
"%%%%%%%%    &&&&@OOO####&&&&####OOOO    ####OOOOoooo    %%%%%%%%",
"%%%%%%%%    &&&&@OOO####&&&&####OOOO    ####OOOOoooo    %%%%%%%%",
"%%%%%%%%    &&&&@OOO####&&&&####OOOO    ####OOOOoooo    %%%%%%%%",
"%%%%%%%%    &&&&@OOO####&&&&####OOOO    ####OOOOoooo    %%%%%%%%",
"%%%%%%%%    &&&&@OOO####&&&&####OOOO    ####OOOOoooo    %%%%%%%%",
"%%%%%%%%    &&&&@OOO####&&&&####OOOO    ####OOOOoooo    %%%%%%%%",
"%%%%%%%%    &&&&@OOO####&&&&####OOOO    ####OOOOoooo    %%%%%%%%",
"%%%%%%%%    &&&&@OOO####&&&&####OOOO    ####OOOOoooo    %%%%%%%%",
"%%%%%%%%    &&&&@OOO####&&&&####OOOO    ####OOOOoooo    %%%%%%%%",
"%%%%%%%%    &&&&@OOO####&&&&####OOOO    ####OOOOoooo    %%%%%%%%",
"%%%%%%%%    &&&&@OOO####&&&&####OOOO    ####OOOOoooo    %%%%%%%%",
"%%%%%%%%    &&&&@OOO####&&&&####OOOO    ####OOOOoooo    %%%%%%%%",
"%%%%%%%%    &&&&@OOO####&&&&####OOOO    ####OOOOoooo    %%%%%%%%",
"%%%%%%%%    &&&&@OOO####&&&&####OOOO    ####OOOOoooo    %%%%%%%%",
"%%%%%%%%    &&&&@OOO####&&&&####OOOO    ####OOOOoooo    %%%%%%%%",
"%%%%%%%%    &&&&@OOO####&&&&####OOOO    ####OOOOoooo    %%%%%%%%",
"%%%%%%%%    &&&&@OOO####&&&&####OOOO    ####OOOOoooo    %%%%%%%%",
"%%%%%%%%    &&&&@OOO####&&&&####OOOO    ####OOOOoooo    %%%%%%%%",
"%%%%%%%%    &&&&@OOO####&&&&####OOOO    ####OOOOoooo    %%%%%%%%",
"%%%%%%%%    &&&&@OOO####&&&&####OOOO    ####OOOOoooo    %%%%%%%%",
"%%%%%%%%    &&&&@OOO####&&&&@OOOOOOO    ####OOOOoooo    %%%%%%%%",
"%%%%%%%%    &&&&@OOO####&&&&@OOOOOOO    ####OOOOoooo    %%%%%%%%",
"%%%%%%%%    &&&&@OOO####&&&&@OOOOOOO    ####OOOOoooo    %%%%%%%%",
"%%%%%%%%    &&&&@OOO####&&&&@OOOOOOO    ####OOOOoooo    %%%%%%%%",
"%%%%%%%%    &&&&@OOO####&&&&@OOOOOOO    ####OOOOoooo    %%%%%%%%",
"%%%%%%%%    &&&&@OOO####&&&&@OOOOOOO    ####OOOOoooo    %%%%%%%%",
"%%%%%%%%    &&&&@OOO####&&&&@OOOOOOO    ####OOOOoooo    %%%%%%%%",
"%%%%%%%%    &&&&@OOO####&&&&@OOOOOOO    ####OOOOoooo    %%%%%%%%",
"%%%%%%%%%%%%    +OOO########        ####OOOOoooo....%%%%%%%%%%%%",
"%%%%%%%%%%%%    OOOO########        ####OOOOoooo....%%%%%%%%%%%%",
"%%%%%%%%%%%%    OOOO########        ####OOOOoooo....%%%%%%%%%%%%",
"%%%%%%%%%%%%    OOOO########        ####OOOOoooo....%%%%%%%%%%%%",
"%%%%%%%%%%%%    OOOOOOOOOOOOOOOOOOOOOOOOoooooooo....%%%%%%%%%%%%",
"%%%%%%%%%%%%    OOOOOOOOOOOOOOOOOOOOOOOOoooooooo....%%%%%%%%%%%%",
"%%%%%%%%%%%%    OOOOOOOOOOOOOOOOOOOOOOOOoooooooo....%%%%%%%%%%%%",
"%%%%%%%%%%%%    OOOOOOOOOOOOOOOOOOOOOOOOoooooooo....%%%%%%%%%%%%",
"%%%%%%%%%%%%%%%%        oooooooooooooooo        %%%%%%%%%%%%%%%%",
"%%%%%%%%%%%%%%%%        oooooooooooooooo        %%%%%%%%%%%%%%%%",
"%%%%%%%%%%%%%%%%        oooooooooooooooo        %%%%%%%%%%%%%%%%",
"%%%%%%%%%%%%%%%%        oooooooooooooooo        %%%%%%%%%%%%%%%%",
"%%%%%%%%%%%%%%%%%%%%%%%%                %%%%%%%%%%%%%%%%%%%%%%%%",
"%%%%%%%%%%%%%%%%%%%%%%%%                %%%%%%%%%%%%%%%%%%%%%%%%",
"%%%%%%%%%%%%%%%%%%%%%%%%                %%%%%%%%%%%%%%%%%%%%%%%%",
"%%%%%%%%%%%%%%%%%%%%%%%%                %%%%%%%%%%%%%%%%%%%%%%%%"
};
