/* XPM */
static char *_1514_f9a39235be10c1be0a20ff77dc77c6e1727d91f3530a0e5419f8217c4647f033[] = {
/* columns rows colors chars-per-pixel */
"64 64 178 2 ",
"   c #030602",
".  c #060A05",
"X  c #0C0A07",
"o  c #0C0C0A",
"O  c #120D0B",
"+  c #0D110D",
"@  c #12120E",
"#  c #18120E",
"$  c #121512",
"%  c #191613",
"&  c #161A14",
"*  c #1A1B16",
"=  c #151719",
"-  c #16181A",
";  c #1B1C19",
":  c #211A17",
">  c #231D1A",
",  c #1D221C",
"<  c #22241F",
"1  c #29221E",
"2  c #21281F",
"3  c #171C23",
"4  c #191F22",
"5  c #17212A",
"6  c #18222B",
"7  c #192732",
"8  c #1B2A36",
"9  c #1C2D3B",
"0  c #1F313E",
"q  c #232521",
"w  c #2C2521",
"e  c #242A23",
"r  c #292B26",
"t  c #2A2C29",
"y  c #322925",
"u  c #362D2A",
"i  c #273025",
"p  c #283127",
"a  c #2C342B",
"s  c #2F3B2D",
"d  c #31332E",
"f  c #3A312D",
"g  c #313A2E",
"h  c #333533",
"j  c #3D3430",
"k  c #343C32",
"l  c #383C37",
"z  c #3B3D3A",
"x  c #403633",
"c  c #354133",
"v  c #394537",
"b  c #3A4937",
"n  c #3C433B",
"m  c #3D4A3A",
"M  c #40443F",
"N  c #404F3E",
"B  c #40503E",
"V  c #1F3242",
"C  c #203342",
"Z  c #21374C",
"A  c #233A4D",
"S  c #243D52",
"D  c #254056",
"F  c #27425B",
"G  c #28455E",
"H  c #274761",
"J  c #294661",
"K  c #2A4A65",
"L  c #2B4E6A",
"P  c #2C516E",
"I  c #29596F",
"U  c #2E5574",
"Y  c #2A5C71",
"T  c #2F5778",
"R  c #2F5A7B",
"E  c #315574",
"W  c #325878",
"Q  c #325B7C",
"!  c #2A6175",
"~  c #2C657C",
"^  c #2B6B7C",
"/  c #33667F",
"(  c #444543",
")  c #494747",
"_  c #464945",
"`  c #4C4D4B",
"'  c #465643",
"]  c #4A5B46",
"[  c #4D544B",
"{  c #50564F",
"}  c #535453",
"|  c #535D53",
" . c #585857",
".. c #5C5D5C",
"X. c #5E615D",
"o. c #60625F",
"O. c #646464",
"+. c #6C6C6C",
"@. c #6F7B6E",
"#. c #71776F",
"$. c #757575",
"%. c #787877",
"&. c #7B7B7B",
"*. c #325E81",
"=. c #2E6782",
"-. c #2D6D86",
";. c #336185",
":. c #386587",
">. c #35658B",
",. c #38678C",
"<. c #35688E",
"1. c #3C6A8C",
"2. c #2C7887",
"3. c #30788A",
"4. c #366A93",
"5. c #3A6D94",
"6. c #376F98",
"7. c #386F99",
"8. c #3B7295",
"9. c #3B739C",
"0. c #3A76A2",
"q. c #3B79A6",
"w. c #3C7BAA",
"e. c #417396",
"r. c #40769D",
"t. c #447CA5",
"y. c #427EAB",
"u. c #2C828B",
"i. c #2C8691",
"p. c #2B8A91",
"a. c #2C969B",
"s. c #2D9A9E",
"d. c #2D9DA1",
"f. c #2EA2A4",
"g. c #2EAAAB",
"h. c #2EB0AE",
"j. c #39A4B8",
"k. c #2EB6B3",
"l. c #2FBAB6",
"z. c #2FBEB9",
"x. c #31B5B4",
"c. c #38BABF",
"v. c #4582AD",
"b. c #4C84AD",
"n. c #4484B2",
"m. c #4987B2",
"M. c #4788B6",
"N. c #4A89B6",
"B. c #4B8DBA",
"V. c #508DB7",
"C. c #508FBA",
"Z. c #4E91BE",
"A. c #5191BC",
"S. c #2FC3BD",
"D. c #30C6BF",
"F. c #4F91C0",
"G. c #5295C2",
"H. c #549AC6",
"J. c #5B9AC5",
"K. c #569BC9",
"L. c #5A9ECB",
"P. c #5EA1CE",
"I. c #61A3CF",
"U. c #63A5D0",
"Y. c #65A9D2",
"T. c #838483",
"R. c #888788",
"E. c #8A8A8A",
"W. c #939393",
"Q. c #9C9B9C",
"!. c #A3A3A3",
"~. c #AAABAB",
"^. c #AFB0B0",
"/. c #B4B4B4",
"(. c #BCBCBC",
"). c #C3C3C3",
"_. c #CBCBCC",
"`. c gray82",
/* pixels */
"D.D.D.D.D.D.D.D.D.D.D.D.D.D.D.D.D.D.D.D.D.D.S.D.S.z.l.z.g.^ ~ ! ^ ^ =.g.z.l.z.S.S.D.D.D.D.D.D.D.D.D.D.D.D.D.D.D.D.D.D.D.D.D.D.D.",
"D.D.D.D.D.D.D.D.D.D.D.D.D.D.D.D.D.D.D.D.D.D.z.k.a.Y Y ~ =.6.<.L 4.6.6.=.^ Y Y a.k.z.D.D.D.D.D.D.D.D.D.D.D.D.D.D.D.D.D.D.D.D.D.D.",
"D.D.D.D.D.D.D.D.D.D.D.D.D.D.D.D.D.D.D.D.k.s.p.~ Y U *.0.0.w.0.L w.w.w.0.0.R U R ~ i.d.k.D.D.D.D.D.D.D.D.D.D.D.D.D.D.D.D.D.D.D.D.",
"D.D.D.D.D.D.D.D.D.D.D.D.D.D.D.D.D.D.D.g.^ P 4.q.w.w.w.w.B.B.v.E C.B.B.B.a.w.w.w.q.<.P ^ g.D.D.D.D.D.D.D.D.D.D.D.D.D.D.D.D.D.D.D.",
"D.D.D.D.D.D.D.D.D.D.D.D.D.D.D.S.z.a.-.! P 7.y.y.F.B.B.B.t.b.V.E r.y.t.y.F.F.B.F.n.w.6.P ! -.a.z.S.D.D.D.D.D.D.D.D.D.D.D.D.D.D.D.",
"D.D.D.D.D.D.D.D.D.D.D.D.D.D.l.u.! U R *.R M.F.N.r.0.r.9.>.<.4.L L *.>.>.e.r.r.7.m.Z.M.Q 1.,.Y R u.l.D.S.D.D.D.D.D.D.D.D.D.D.D.D.",
"D.D.D.D.D.D.D.D.D.D.D.D.h.f.3.T >.0.y.9.5.t.7.5.4.<.;.;.T T T Q J E T W *.*.>.4.5.5.t.1.b.N.0.>.U 3.f.h.D.D.D.D.D.D.D.D.D.D.D.D.",
"D.D.D.D.D.D.D.D.D.D.S.s.! U 6.w.w.y.N.M.e.E *.*.*.*.T T W U T W J E T T *.T *.*.;.Q W e.N.N.y.w.w.6.U ! d.D.D.D.D.D.D.D.D.D.D.D.",
"D.D.D.D.D.D.D.D.D.S.i.P *.7.w.M.B.N.r.<.;.W L L U U U W E K K K G K L E T W W W L L T ;.>.r.M.N.y.y.9.R P p.z.D.D.D.D.D.D.D.D.D.",
"D.D.D.D.D.D.D.D.S.2.L *.0.w.B.y.r.7.*.Q Q U E L L P F F F A 5 - 3 3 Z F F F L L L U E Q *.*.5.t.y.B.a.0.;.L 2.D.D.D.D.D.D.D.D.D.",
"D.D.D.D.D.D.D.D.g.^ 4.9.y.N.y.<.;.*.T W K A A A Z 0 * = = = : : : % = = - - 0 Z A Z Z K T R *.;.7.y.N.n.w.4.=.f.D.D.D.D.D.D.D.D.",
"D.D.D.D.D.D.S.d.I 4.w.j.N.0.4.*.T U U F 6 % - % ; % > > 1 > > y y 1 > 1 > > % ; - ; % 6 S E R T *.4.9.M.n.w.4.U d.S.D.D.D.D.D.D.",
"D.D.D.D.D.S.i.L 1.y.M.m.7.*.*.*.P S 8 4 : 1 w y u w w y f f f f f f x u y 1 w u y w 1 : 4 8 S P *.*.*.e.y.B.y.,.L p.S.D.D.D.D.D.",
"D.D.D.D.D.k.Y L W t.y.>.*.*.W L C ; > 1 y u u u j y > y * * % : % % % : y > y j u y y y 1 > ; C K E *.>.,.r.7.W K Y k.S.D.D.D.D.",
"D.D.D.S.f.-.5.0.*.E *.4.*.T J 7 > y y 1 w u u w ; * % ; # X X X X X X X O O % ; y u u y 1 y y > 8 J U *.4.*.L *.0.6.-.f.S.D.D.D.",
"D.D.D.l.Y 7.w.m.m.*.T *.*.S 3 : 1 u y : % & > a d p p q , o @ o X O X X O w h z r > $ @ : y u 1 : 3 S *.*.W *.y.j.w.6.! z.D.D.D.",
"D.D.z.i.>.6.q.G.r.*.U L Z 3 : w u y % o ; m .. .b , & . + + & X X X X X + e 2 ) o._ q % o % r u w : 3 Z L U *.r.F.y.q.>.i.z.D.D.",
"D.D.l.Y 6.6.N.t.4.*.U J 3 : y f w $ * e ` %.%._ , + $ & & & & o X X + $ & o X n %.%.[ k r & % w u y : 3 G T *.4.t.F.w.9.U k.D.D.",
"c.g.s.P :.4.A.9.*.*.L 8 $ > f 1 $ ; t { &.$.` $ . & , , & , & X X + + & , * + & ` $.&.&.{ p , @ 1 u 1 $ 8 L *.*.4.G.y.7.P d.g.c.",
"H.8.~ K Q Q A.r.*.T K 6 % > y % - h l X.+.) a $ , , , , * & & X X X + & 5 , , + a ) O.&.X.l a * : y : % 6 J T *.r.F.w.>.L R 8.H.",
"8.v.M.,.P W B.r.*.*.K 6 > u w ; e k ( X.D . X & , , , , , & & O X o & - & , & + o X t } ..( a ; = 1 u > 6 K W *.9.G.9.U <.m.v.e.",
"K :.t.N.W U A.r.*.T K 3 1 j < ; a k t q 1 1 < + & , , , 2 2 & X X + , 6 , , & + 6 < o - t g k e = > x w 6 K T *.r.Z.Q W m.q.,.K ",
"K <.;.,.Q P t.1.U P K 6 > u ; q k e $ $ h +.z & @ , , , , , & O X . , , , , ; ; z +.h . @ e k g < 3 u : 6 K P T 5.v.P Q ,.;.>.L ",
"~ L P U R R Q Q R T L 6 > j 1 q c e & $ l T.+.< o & , , , , & O X . , , 6 , , e +.T.) $ $ e k b q 1 x : 6 J K L P E R R R R R ^ ",
"h.I ;.,.6.,.<.>.<.<.P 5 > f > q m g * + h O.k q M . . & # < & X X + 2 , $ .   . h O.O.r $ - b ' q > u : 6 J U *./ *.4.7.9.6.<.l.",
"k.Y U U P L L L K K G 5 % w : q ' m , + r x r &.T.t .   X O X X X X .   . . e X.e n z $ $ & g n q : w % 6 J K K K K K L L U Y k.",
"S.h.f.I P P U P K L K 5 % 1 ; q ' v + & : # x R.Q.T.[ x w 1 ; O O X + , n [ &.T.h + o ; = $ c B q 3 w % 6 K L K E U U U I f.h.S.",
"D.D.h.I T Q T U K P L 5 * w ; q k p + _ o.: B %.Q.).).~.!.Q.e.% X @ ` &.!.(.~.+.( $ h &.( + b ] q : w % 6 K L K W Q *.*.I l.D.D.",
"D.D.l.I ;.<.;.;.K P K 6 : 1 % q k e + z #.l y +.T.!.(._.`.(.&.% X $ %.E.(.(.Q.T.h ` /.Q.l + b ' q % 1 : 6 L L L *.>.e.r.I k.S.D.",
"D.D.l.I 4.4.,.v.W R P 6 1 u ; q m c & ;  .E.%.R.E.W.Q._.`._.&.& X = %.E.(.Q.R.Q.&.Q.!.} $ @ b ' q > u 1 6 L *.L 4.4.y.V.Y l.D.D.",
"D.D.l.I 9.q.6.Z.Q Q P 6 > x 1 q ' b & + z W.Q.E.R.E.E.Q./.Q.%.% X $ %.R.W.E.R.E.Q.E.( @ $ & a c 6 w j 1 6 L *.L ,.4.j.y.Y l.D.D.",
"D.D.l.I 6.w.9.Z./ P K 4 * f 1 q ' ] t * t  .e.W.E.E.E.E.E.E.%.= X $ %.E.R.R.E.E.E...4 $ ; a l a < w u - 6 K L E 0.7.v.m.Y l.D.D.",
"D.D.l.I 4.w.w.M.Q L K 7 > j 1 q ' @.} @ # y %.W.Q.Q.W.E.R.E.%.% X $ $.E.R.W.Q.W.T.h   @ @ } X.a 2 t j > 6 K P U q.q.w.7.Y l.D.D.",
"D.D.k.I >.0.7.0.U P K 3 * y ; q ' o.O.l : M %.Q.Q.!.(./.^.W.%.% X $ $.Q./.(.(.!.$.( = + n O.{ a ; > y % 6 K P U 0.0.w.7.Y l.D.D.",
"D.D.k.I *.q.7.0.U L K 7 > y * q ] | ..z 1 X.o.%.W.W.Q.!.)./.&.% X = &.(.(.(.!.$.....q   ( .._ a ; > y > 7 K L U 0.7.q.0.Y l.D.D.",
"D.D.k.U >.0.7.7.U P L 3 > j < q ' c h h u +.O.M h t r z &.W.R.% X $ %.W.( t t ( O.+.l X h z p a ; q j > 3 K P U 7.7.w.7.Y k.D.D.",
"D.D.k.I <.w.M.4.L T K 3 ; y > q ] c q e y T.E.[ >       # o.R.: X = +.q       ( E.T.o.< e q p m q ; w > 3 P U L 4.w.w.0.Y k.D.D.",
"D.D.l.I *.w.F.t.L *.U 6 q u : q b i * & u b.Q.W. .+ X ; } O.R.: X $ $...; o & W.~.&.O.q * & c ' q > u 1 3 P *.P 4.w.w.6.Y k.D.D.",
"D.D.k.I *.y.F.t.L *.P 6 1 j q q c , & , d $.T.Q.W.%.%.%.$.W.R.: X $ $.$.%.%.W./.W.$.| 2 , & c ' q q x 1 7 P *.L 4.w.w.0.Y k.D.D.",
"D.D.l.I *.q.F.7.L R P 6 > f 1 q ' c & , l O.+.%.$.%.$.%.R.).W.: X = &.T.&.%.&.&.#.O.r , 6 & c ] q > f > 6 P R L 4.w.w.7.Y k.D.D.",
"D.D.k.I >.0.6.>.L P K 5 > u > q ] c & 2 a k _ O.O.O.+.&.W.R.%.: X $  .R.%.O.+.O.) h & & e & a m q > u > 6 K P L >.6.w.6.Y k.D.D.",
"D.D.l.I 4.0.=.R L P K 5 < j q , B c & i 2 @ @ l ` z +.&.T.t M # X X - R.&.+.z r @ @ & 2 i & , c q q j > 6 K P L *.*.w.6.Y l.D.D.",
"D.S.g.I <.4.R Q L U P 6 > f 1 , c i & 6 2 e & X @ ; +.%.R.} } # X @ ( E.&.+.: . & e 2 , < # 6 k q q f > 6 L T K R *.4.>.I g.D.D.",
"D.l.! H Q U L U G L K 6 > y > ; a , & i e i , . o l +.#.$.%.e.1 X $ o.%.#.+.l # , r e 2 2 & 2 k q > u > 6 K K H P P U R H Y d.S.",
"D.k.P U R *.R R L Q >.9 1 y : ; a 2 $ 2 e e e , p $. .&.+.&.R.- X $ O.+.&.} $.D e i p e e & p b q ; y > 9 :.;.R R R R Q R R I k.",
"D.k.Y v.B.B.B.B.b.N.B.A % w ; ; c a + , 2 , , , * p t E...+.R.; X $ ..O.R.t a d , , q , , + c ' q ; y % A B.B.B.B.B.B.B.F.w.Y k.",
"l.x.U 5.9.w.y.t.9.r.e.C # 1 * ; B c + , 2 6 e e * . @ ` &.+.R.% X @  .T.} +   ; e 2 2 , , & e v q ; 1 # 0 1.5.r.9.r.9.e.9.:.I h.",
"2.Z.Q U U U U U U T U 7 # 1 & , g 2 + , 2 e e e q * q T.T.&.R.; X $ O.T.T.< ; e e e , , , + , c q % 1 % 7 L U U U U U U U U ;.k.",
"j.H.N.n.y.y.y.y.M.y.y.S : j 1 4 N i @ & , & , , , , i &.t } #.% X @ M i T.g , , , , & * - @ q c q q f > A n.m.n.n.n.n.n.n.m.H.j.",
"q.e.v.v.y.M.F.F.F.F.M.Z > j 1 < B c @ & & & * * , & e ( $ r ] @ X X , $ M 6 & , + @ & , , + a m q q x > Z v.b.B.B.B.B.B.n.m.9.w.",
"6.L ;.<.7.w.q.6.6.4.4.V > j 1 q B b + # 2 s , , 6 , * + $ c ] @ X + a $ + , , , s b i + + + c ' q w x : 9 <.<.7.0.6.4.4.4.<.L 9.",
"9.P ,.<.4.4.4.>.>.*.*.7 > f 1 4 B g + s b 2 * , , , * & % v ] @ X + p $ $ , * , 6 c m p , $ c ' q > u : 8 W *.<.<.<.4.<.<.>.L 9.",
"9.L *.*.*.*.*.U E P L 8 % w : ; g s c B p * ; - & , i + + c ] # X + a $ $ p , & , 2 c m ' a c m , > 1 % 7 L U L U R Q *.R T L 0.",
"n.>.>.>.*.*.>.>.*.;.;.8 $ 1 > - p N b g i * , , , 2 c c c b ] @ o o a k g s , , , & e c k k k a ; ; 1 % 8 ;.;.*.*.>.;.;.;.;.>.n.",
"K.G.G.G.F.F.F.F.F.B.C.S # w - ; y p c i & $ ; ; , & , b b b ] @ X + a m m , + & , @ & a a s k a ; * 1 # S C.A.G.F.F.B.F.Z.Z.Z.K.",
"a.y.y.y.w.y.y.y.y.t.7.C @ > % ; i i a B D m N N m B b i e k ] @ X + e i s m m s c B B v s a e r ; = : # C 9.0.y.w.n.n.v.0.r.9.w.",
"4.9.w.w.w.w.0.4.4.;.>.9 @ % $ - 3 3 > 1 e q q e q e q , < e c O X o ; < < q q e e e q q < , , < % @ % $ 9 <.;.4.6.0.q.0.q.0.4.4.",
"4.4.7.7.9.7.4.<.*.Q *.V 3 9 8 8 8 7 7 7 8 8 8 8 8 8 8 8 8 8 8 7 7 7 8 8 8 8 8 0 8 8 8 8 8 8 8 8 8 8 8 6 V *.Q ;.<.4.7.5.9.7.4.<.",
"*.<.*.*.*.R R *.T T U J J U T *.*.L P P K K P P U U Q P U L L U U P P L P U P P P P K K L U L P U P L J F U U T Q Q Q Q R *.>.>.",
"L P K L K L L L L K K K U ;.7.q.7.4.>.4.*.K T *.<.4.9.4.<.<.<.4.<.<.<.<.<.<.,.,.>.*.L U ;.<.4.<.<.*.Q U K K K L K L L L L L P P ",
"T W *.*.4.4.4.4.4.4.4.4.4.0.q.q.q.q.q.0.4.T *.6.w.n.n.n.n.n.y.w.w.n.n.n.n.n.n.w.7.4.R *.>.0.w.q.0.4.4.4.*.T *.;.>.>.>.>.>.>.>.>.",
"*.4.y.B.B.B.N.N.w.q.M.B.N.B.N.B.B.B.j.0.4.*.0.w.n.L.L.L.L.L.K.B.B.K.L.K.L.L.L.B.N.t.*.*.6.w.B.B.N.B.N.M.v.t.9.9.7.9.7.7.7.7.<.4.",
"4.0.K.L.L.L.L.Y.L.G.L.U.P.L.L.L.L.L.H.M.6.>.w.n.F.K.K.L.L.L.L.L.L.L.L.P.U.Y.Y.Y.P.G.9.6.n.G.L.K.L.U.U.L.U.I.J.J.H.F.F.F.F.w.0.0.",
"q.y.K.L.L.L.L.L.U.L.L.L.L.K.L.L.L.L.L.F.7.4.w.w.n.n.n.n.M.K.L.L.L.L.L.L.P.P.P.P.L.L.y.0.w.n.n.y.F.L.U.U.L.P.U.P.P.L.L.L.L.G.G.G."
};
