/* XPM */
static char *_5892_d408273778a795144cd758ed4a496aee99715f57e520beaccf45a15d4a33cf2b[] = {
/* columns rows colors chars-per-pixel */
"64 64 135 2 ",
"   c #0C0F0B",
".  c #0D120B",
"X  c #14110F",
"o  c #151210",
"O  c #191614",
"+  c #161915",
"@  c #1B1916",
"#  c #1C1D1A",
"$  c #221E1C",
"%  c #1E221D",
"&  c #24211E",
"*  c #28221F",
"=  c #1C1E20",
"-  c #1F2325",
";  c #1E262E",
":  c #1D2730",
">  c #1F2A33",
",  c #242422",
"<  c #2A2522",
"1  c #252A24",
"2  c #2A2B26",
"3  c #2C2C2B",
"4  c #312A26",
"5  c #352E2A",
"6  c #2D332C",
"7  c #32352E",
"8  c #39312E",
"9  c #31382F",
"0  c #202B36",
"q  c #212D39",
"w  c #22313E",
"e  c #343532",
"r  c #3D3532",
"t  c #363B33",
"y  c #3B3C36",
"u  c #3B3C3B",
"i  c #403734",
"p  c #413835",
"a  c #403E3E",
"s  c #374034",
"d  c #3E423D",
"f  c #3E4A3C",
"g  c #414E3F",
"h  c #243543",
"j  c #273B4E",
"k  c #293D4D",
"l  c #2A3F52",
"z  c #2A4257",
"x  c #2B455C",
"c  c #2E4B65",
"v  c #2F4E69",
"b  c #304F6A",
"n  c #2E536B",
"m  c #2D5A6F",
"M  c #31526E",
"N  c #2F5772",
"B  c #2E5C71",
"V  c #325573",
"C  c #335976",
"Z  c #345B7B",
"A  c #395F7E",
"S  c #2E6174",
"D  c #2F677C",
"F  c #2E6B7B",
"G  c #32637E",
"H  c #30687E",
"J  c #444544",
"K  c #474947",
"L  c #4B4B4B",
"P  c #535453",
"I  c #5C5B5B",
"U  c #5F615F",
"Y  c gray39",
"T  c gray45",
"R  c #365F81",
"E  c #366185",
"W  c #396283",
"Q  c #316B83",
"!  c #376489",
"~  c #38668B",
"^  c #36698B",
"/  c #3A698E",
"(  c #2E7482",
")  c #2D7C87",
"_  c #317B8A",
"`  c #3A6C93",
"'  c #3B6F98",
"]  c #3F7194",
"[  c #3C719B",
"{  c #3D76A2",
"}  c #3E79A6",
"|  c #3E7BA9",
" . c #406C8E",
".. c #437295",
"X. c #41759C",
"o. c #457CA5",
"O. c #487DA4",
"+. c #427DAB",
"@. c #2E838C",
"#. c #2F8692",
"$. c #2D8991",
"%. c #2E9B9E",
"&. c #2F9EA0",
"*. c #2FA3A4",
"=. c #2FABAB",
"-. c #2FB1AE",
";. c #3BA0B3",
":. c #3AA7BA",
">. c #2FB6B3",
",. c #2FBAB6",
"<. c #2FBFBA",
"1. c #31B4B4",
"2. c #30BAB6",
"3. c #30BDB8",
"4. c #38B9BF",
"5. c #4481AE",
"6. c #4982AC",
"7. c #4684B1",
"8. c #4A86B3",
"9. c #4B89B6",
"0. c #4C8CBA",
"q. c #508CB7",
"w. c #518EBB",
"e. c #4F91BD",
"r. c #5090BE",
"t. c #2FC3BD",
"y. c #30C6BF",
"u. c #5394C2",
"i. c #569AC6",
"p. c #5C9AC5",
"a. c #579AC8",
"s. c #5A9DCA",
"d. c #5FA1CD",
"f. c #62A3CE",
"g. c #65A7D1",
/* pixels */
"y.y.y.y.y.y.y.y.y.y.y.y.y.y.y.y.y.y.y.y.y.y.y.y.t.<.<.,.=.D D D F D F =.<.<.,.t.t.t.y.y.y.y.y.y.y.y.y.y.y.y.y.y.y.y.y.y.y.y.y.y.",
"y.y.y.y.y.y.y.y.y.y.y.y.y.y.y.y.y.y.y.y.y.y.<.>.%.B B D Q [ / v / ' [ D D B S %.>.<.y.y.y.y.y.y.y.y.y.y.y.y.y.y.y.y.y.y.y.y.y.y.",
"y.y.y.y.y.y.y.y.y.y.y.y.y.y.y.y.y.y.y.y.,.&.$.R Z N Z { { } X.M | | | { { Z V C D #.&.>.y.y.y.y.y.y.y.y.y.y.y.y.y.y.y.y.y.y.y.y.",
"y.y.y.y.y.y.y.y.y.y.y.y.y.y.y.y.y.y.y.=.F n ^ } } | | | 9.0.6.V r.0.0.9.| } } } } ~ n D -.y.t.y.y.y.y.y.y.y.y.y.y.y.y.y.y.y.y.y.",
"y.y.y.y.y.y.y.y.y.y.y.y.y.y.y.t.,.&.Q B M ' +.+.0.0.0.0.o.6.q.M X.o.o.o.0.e.0.0.7.+.' V S ( &.,.<.y.y.y.y.y.y.y.y.y.y.y.y.y.y.y.",
"y.y.y.y.y.y.y.y.y.y.y.y.y.y.,.@.Z V R Z R 0.u.+.{ [ X.] ~ / ` b b E ~ ~ [ X.X.X.7.w.7.Z  ./ N Z #.,.y.y.y.y.y.y.y.y.y.y.y.y.y.y.",
"y.y.y.y.y.y.y.y.y.y.t.y.=.*._ C ~ X.+.X./ o. .` / / ~ E Z C Z Z c V Z C E W / / ` ..O. .6.9.{ ~ V _ *.>.y.y.y.y.y.y.y.y.y.y.y.y.",
"y.y.y.y.y.y.y.y.y.y.t.*.S N ' } +.+.q.+.X.V R R E Z C V V V V V c V C V C C Z E R Z V ..8.9.+.} } ' N B &.t.y.y.y.y.y.y.y.y.y.y.",
"y.y.y.y.y.y.y.y.y.t.$.n Z [ | 7.u.+.X.~ ! V v b V C C Z V c c c x c c V V C V V b b C ! ~ X.8.0.7.| [ Z n $.3.y.y.y.y.y.y.y.y.y.",
"y.y.y.y.y.y.y.y.t.) n ! { | 9.7.X...R R R V V b b V l l l j ; - - ; j z x x M b b V V C R R ..X.6.9.| { E v ) y.y.y.y.y.y.y.y.y.",
"y.y.y.y.y.y.y.y.=.D / | 7.9.o./ R R R V c j j j j h = = = = $ $ * $ # = # = h j j j l c Z V R R ` o.0.5.} ^ H =.y.y.y.y.y.y.y.y.",
"y.y.y.y.y.y.t.&.B / | 7.9.[ / E Z V M l ; $ = $ $ $ < < < < < 5 5 < < < < < $ $ # $ $ 0 l V Z V E / X.9.7.| ` m &.y.y.y.y.y.y.y.",
"y.y.y.y.y.t.#.n / +.8.7.' E R Z M l h - $ 4 4 5 8 4 < 5 r r r 8 8 i i 8 5 4 4 5 4 4 4 $ , h l M Z Z E ] 6.7.o./ n #.t.y.y.y.y.y.",
"y.y.y.y.y.1.S c C O.o.~ E Z V v h $ $ 4 5 8 5 8 i 5 < 5 $ $ $ $ $ $ $ $ 5 * 5 i 8 5 5 5 < $ - h v V R E ! o.' C c B >.t.y.y.y.y.",
"y.y.y.t.=.Q ' X.R V R / R V x q $ 8 5 4 5 8 8 4 @ O O O o X X X X X X o O o O $ 5 8 8 5 4 5 5 * q x V R / R M E { ' Q =.t.y.y.y.",
"y.y.y.,.B ' } 7.O. .C R Z x 1 $ 4 8 5 $ O o O o o o o o o o X o X X X X o o o o o o o @ $ 5 8 4 $ ; z Z Z C W 7.7.| ' S ,.y.y.y.",
"y.y.<.@.^ ' } r.X.R V b j , * 4 8 5 # o X o o o o o o o o o o o o o o o o o o o o o o o o $ 5 5 4 $ , j c V R X.u.+.{ / #.<.t.t.",
"y.y.,.m ' ` 8.6.` Z V c ; $ 5 8 4 O o o o o o o o o o X o o o o o o X o o o o o o o o o o o O 4 r 5 $ ; c V Z ` O.0.| [ B ,.y.y.",
"4.=.%.m E / r.X.! Z b 0 O < 8 4 O o o o o o o o o o o o o o X o o o o o o o o o o o o o o o X + < r < + 0 c Z E ` u.+.' m %.=.4.",
"i.] Z v A G q.X.Z V c : # < 4 $ X X o o o o o o X o o o o o o o o o o o o X o o o o o o o o < , $ 4 < # 0 c V Z X.u.o.~ c G ] i.",
"..O.8.~ M Z q.X.R Z c : < 5 < 3 , + @ O o o o o o o X o o X o o o o o o o o o o o o o o O + 1 u 5 2 5 < 0 c V E X.u.[ V ~ 8.6...",
"c ~ o.8.V V q.X.R C c : < p < # - % % # o o o o o o o o o o o o X o o o o o o o o o o @ % + o - 3 5 p < ; c Z R X.r.Z V 8.o.! c ",
"v ~ E / Z b O./ V M c ; < 8 * + L K + % O o o o o o o o o o o o o o o o o o o o o o o @ - % O + 3 t 8 * ; c M V ` O.n Z ~ ! ~ c ",
"H n M V Z Z Z A Z C c ; < p < O P L o - # o o o o o X o o o o X o o o X o o o o o o o # , 2 3 , 3 s r , ; c c b V C C Z Z Z Z D ",
"-.m W / ' / ~ ~ / ~ n ; $ 8 < O L P 1 # # X X o o o o o o o o o o o o o o o o o o o o # = O t g 2 t 8 $ ; c V C G R / ..' ` / >.",
">.m C n M v v c c v c ; $ 4 $ O u U u . X o o o o o o o o o o o o o o o o o o o o o o o o 3 8 * 2 8 5 $ ; c b c c v b b V N B >.",
"t.-.*.n M M V M c b c ; # 4 $ o + u L , X o o o o o o o o o o o o o o o o o o o o o o o 3 L u . 1 t < $ ; c b c V M V V n *.>.t.",
"y.y.,.m Z Z C C c M c ; $ 3 $ o   7 L 3 , O o o o o o o o o o o o o o o o o o o o o o e P I z $ 1 9 4 $ : c b c C Z R R m ,.y.t.",
"y.y.>.m E / E Z c M c : $ < # o e I L 5 4 $ O o o o o o o o o o o o X o o o o o o o # J I I I t & 7 < * : c V b E ~ ` X.S ,.t.y.",
"y.y.,.m ` ` / 6.C Z M : < r $ O Y ..a i 4 < = o o o o o o o o o o o o o o o o o o o , e L I I e 1 t 8 < : b C b ~ / 6.q.B ,.y.y.",
"y.y.,.B [ } ` w.A Z M : < r < + I T I a 2 , $ o o o o o o o o o o o o o o o o o o o = 3 K I u % 2 y p < ; n Z n / ` 5.0.C >.y.y.",
"y.y.,.m [ } [ e.A b c 1 $ r < @ i g I g 3 , $ o o o o o o o o o o o o o o o o o o $ , 3 K I e + 1 t 8 $ ; c V V [ [ 5.6.S ,.y.y.",
"y.y.>.B ` } } 8.Z b v ; < p < O o e I L 3 , $ o o o o o o o o o o o o o o o o o o $ 3 3 J I e o - 8 i * ; v M V { } } [ B >.y.y.",
"y.y.>.m ! { [ { V n v : $ 5 $ e L L L e 3 3 $ o o o o o o o o o o o o o o o X o o = 3 3 e P e 5 z 5 5 & ; c M V { [ } [ B ,.y.y.",
"y.y.>.B ! { ' { V b c ; * 5 $ a Y L e 3 3 3 $ o o o o o o o o o o X o o o o o o o $ 3 3 3 J 3 u L 6 5 * ; v b V { ' } [ B ,.y.y.",
"y.y.>.m ! { ' ' V b c ; < r * y I J < , , - # o o o X o o o o X o o o o o o o o X # 2 3 ; 4 3 a g 8 i * : c M V [ ' } [ B >.y.y.",
"y.y.>.B ! { 7.` b V v : * 5 & 3 P J $ . o O o o o o o o o o o o o o o o o o o o o o # O X $ z P g 8 5 & : v V M ' } | [ B ,.y.y.",
"y.y.>.m ! { u.o.v R M ; < 8 $ % z L 2 $ # o o o X o o o o o o o o o X o o o o o o o $ , * < g J 6 8 8 < : n Z b ` } | [ B >.y.y.",
"y.y.>.B ! o.u.X.v R M : 2 p * % J P a 5 , o o o o o o o o o o o o o o o o o X o o O , 3 8 J P d 9 y p < ; M Z b ` } | [ B >.y.y.",
"y.y.>.m ! { w.[ v Z b ; * r * % J I K 3 < O o o o X o o o o o X o o o o o o o o o # , < J I t % 9 y r * : M Z M ' } } [ B >.y.y.",
"y.y.>.m E { [ E M M c : * 8 & & e L J 3 3 , o o o o o X o o o o X o o o X o o o o $ $ 3 K I e # 9 t 8 < ; v M v E ' } [ B >.y.y.",
"y.y.,.m ` { E Z c M v ; * p * & 1 u P u 3 , o o o o o o o o o o o o o o o o o o o o $ 3 J g , , 9 y r * ; c M b Z R { ' B 2.y.y.",
"y.t.=.m ~ ' Z Z c C c : * 8 * % 1 % 6 u 3 , o o o o o o o o o o o o o X o o o o o o , J P 6 % - 6 y i * ; v V v Z Z ` ! B =.y.y.",
"y.,.S c Z V M n c c v : * 8 & & 1 + 6 J 3 , o o o o o o o o o o o o o o o o o o o o $ L U 9 % 3 7 9 5 * : c c c n V V Z c B &.t.",
"y.>.N C Z Z Z Z M Z ! w * 5 $ % & + 4 k 3 , X o o o o X o o o o o o o o o o o o o o * L L 5 6 1 6 9 5 * w ! E Z Z Z Z Z Z C B >.",
"y.>.B O.0.0.0.9.6.8.0.k $ 4 $ @ % # O , 5 ; o o o o o o o o o o X o o o o o o o o o < k , # 1 % 2 t 5 $ k w.9.0.0.0.0.9.9.5.B >.",
",.1.B ` ..+.+.X.X.X...h @ * $ + % % + @ < O o o o o o o o o o o X X X o o o o o o o , 5 O % 3 1 7 7 * $ w / ` X.[ X.X.X...W m >.",
"_ e.Z V V N Z V V V V 0 $ 4 $ @ % % + @ , o X o o o o o o X o o X X X o o o o X o o = 3 @ % 1 - 2 7 * $ 0 M M V V V V V V V G 1.",
";.i.9.7.+.+.+.+.+.0.+.l < i < O % % % + # X o o o o o o o o o o o o o o o o o o o o o % % % % % 2 s i * k 5.6.7.7.7.7.7.7.9.i.:.",
"{ ..6.6.+.+.u.u.+.u.+.j < i < $ % % % % + o o o o o o o o o o X o o o o o o o o o o o + % % % % 6 s i * k 6.6.0.0.0.9.8.6.8.] } ",
"[ v E / ' } } ' X.` ` h * r < < 1 % % % + o o o o X o o o o o o o o o o o o o o o o o + % % % % 2 p i * w ~ ~ [ { ' ` ' ` ~ n [ ",
"[ v ! / ` ` ` ! ~ R V h * r < @ % % % % # o o o o o o o o o o o o o X o o o o o o o . + % % s s 6 y 8 & q Z Z ~ / / ~ / ` ! v [ ",
"[ v Z Z Z Z R b M M b 0 # 4 $ , 1 % % % @ o o o o o o o o o o o o o o o X o o o o o o # % % 6 f f 9 4 $ 0 c M M N Z Z Z Z Z c { ",
"7./ E ! E E R R E E E q @ 4 $ < 3 - % % @ o o o o o X o o o X o X o o o o o o o o o o # % % 6 t 9 6 < @ w W E E R E E E R E ~ 7.",
"a.e.e.0.0.u.0.u.w.u.0.l O 4 $ # , # + + # o o o o o o o o o o o o o o o o o o o o o o @ # # % 2 6 6 < @ z w.e.r.u.u.0.u.w.r.0.a.",
"5.5.7.5.7.7.;.o.+.[ ..h $ < O 1 2 = + o o o o o o o o o o o o o o o o o o o o X o o X + + % s y 6 < * $ w ..X.+.+.| 5.+.o.[ X.+.",
"` [ } +.} } { ` ` ! ! h O $ o & = O o X o X o X o o o o X o o o X X o o o o o o o o o o o X O O # * @ O h ! ~ / ` { } { { } ` / ",
"/ ` ' ' [ ' ` / R Z R h ; q q q q > > h q > 0 0 0 0 0 > 0 0 0 0 0 0 > > 0 0 0 0 0 0 0 0 q 0 0 0 0 q q : h R Z R / ` ' ` ' ' / / ",
"~ ! R Z R Z Z Z V V V x c M Z R Z M M V v c M M M V R M M M V M b V b V V M M M M M c b M V b V V M M c l V V V Z Z R Z Z R ! ~ ",
"M v c v v c v v b b b c M E [ { ' ~ ~ ` R c V R ! ` ' / / ~ ~ ~ / / ~ ~ ! / ~ / ~ Z b V R / / / ~ R Z V v c b b v v c v v v M V ",
"V C Z ~ ` / / ` ` ` ` ` ` { { } } } } | ` Z R [ +.7.7.7.7.7.+.+.+.7.7.7.7.+.7.+.' / R R / ' } } { ' ` / R Z R ~ ~ R ~ R R ~ ! ~ ",
"R ` o.9.0.0.9.9.| } 7.0.9.9.9.0.7.u.+.| ` R { | +.s.s.s.s.s.s.0.0.a.s.s.s.s.s.u.9.o.R R ' +.0.9.9.9.0.7.O.o.' ' [ ' [ ' [ ' / ` ",
"` { a.s.s.s.s.g.s.u.a.d.d.s.s.s.s.s.s.+.` R | +.u.s.s.s.a.s.s.s.a.s.s.s.g.g.g.g.s.u.X.' +.a.s.s.s.d.g.s.d.g.p.s.a.u.u.u.0.+.{ { ",
"{ +.a.s.s.s.s.s.f.s.s.d.s.s.s.s.s.s.s.u.[ ' | +.+.7.7.+.9.a.s.s.s.a.s.s.s.d.d.s.s.a.o.{ +.+.7.+.u.s.g.d.s.d.d.d.s.s.s.s.s.u.u.u."
};
