/* XPM */
static char *_1560_02e6f122f840a7202f8dce3b434668c86f729de75af4afb4386bee7827839abf[] = {
/* columns rows colors chars-per-pixel */
"64 64 163 2 ",
"   c #000207",
".  c #02030C",
"X  c #030F0F",
"o  c #0F0717",
"O  c #040C13",
"+  c #0A0C14",
"@  c #130A15",
"#  c #140D19",
"$  c #180B1F",
"%  c #051215",
"&  c #07171B",
"*  c #0B121B",
"=  c #0A181F",
"-  c #10111A",
";  c #1E151E",
":  c #240C1D",
">  c #2B0E1B",
",  c #23131B",
"<  c #2D101D",
"1  c #32131F",
"2  c #1E0D22",
"3  c #0B1922",
"4  c #141626",
"5  c #1B1224",
"6  c #131927",
"7  c #181628",
"8  c #141C29",
"9  c #210E22",
"0  c #271022",
"q  c #2C1322",
"w  c #2C1C27",
"e  c #231529",
"r  c #26182B",
"t  c #2A1A2D",
"y  c #311522",
"u  c #361925",
"i  c #3A1B26",
"p  c #3A1E2B",
"a  c #0B2327",
"s  c #1B202F",
"d  c #0C2D31",
"f  c #182C38",
"g  c #0F3E3F",
"h  c #103032",
"j  c #2F212D",
"k  c #3D212D",
"l  c #3E2935",
"z  c #451F27",
"x  c #411F29",
"c  c #45222A",
"v  c #4C272E",
"b  c #4E282F",
"n  c #50292F",
"m  c #4E2A31",
"M  c #532C31",
"N  c #592F33",
"B  c #4A3239",
"V  c #563132",
"C  c #5C3234",
"Z  c #543830",
"A  c #553239",
"S  c #623536",
"D  c #663837",
"F  c #673938",
"G  c #6C3C3A",
"H  c #703F3B",
"J  c #6D4138",
"K  c #75423D",
"L  c #7B463F",
"P  c #183C42",
"I  c #473940",
"U  c #603F46",
"Y  c #16494C",
"T  c #14504F",
"R  c #174F52",
"E  c #1B5456",
"W  c #1A5A5C",
"Q  c #25484F",
"!  c #20555B",
"~  c #385958",
"^  c #19605E",
"/  c #1A6462",
"(  c #1A6A68",
")  c #1F7072",
"_  c #266568",
"`  c #2B6E6E",
"'  c #376667",
"]  c #277978",
"[  c #434247",
"{  c #4E494D",
"}  c #584F56",
"|  c #415659",
" . c #7D4740",
".. c #7E4840",
"X. c #684A50",
"o. c #775A54",
"O. c #756554",
"+. c #647E74",
"@. c #834E43",
"#. c #865243",
"$. c #8B5546",
"%. c #8C5947",
"&. c #8F5E49",
"*. c #925D4A",
"=. c #9B6747",
"-. c #95604B",
";. c #9A644C",
":. c #9F6A4F",
">. c #826C56",
",. c #906F51",
"<. c #9F6C50",
"1. c #9D7352",
"2. c #9B795A",
"3. c #A26C4F",
"4. c #A26C51",
"5. c #A57253",
"6. c #AB7554",
"7. c #AE7856",
"8. c #B07A57",
"9. c #B17D5D",
"0. c #A87F62",
"q. c #65867A",
"w. c #AC896D",
"e. c #B38263",
"r. c #B18568",
"t. c #B5896C",
"y. c #BD9176",
"u. c #2A8483",
"i. c #248985",
"p. c #258C87",
"a. c #2A8C8A",
"s. c #308384",
"d. c #2A9490",
"f. c #2E9A9A",
"g. c #379596",
"h. c #2BA29D",
"j. c #3AA19F",
"k. c #2DA7A3",
"l. c #2CAEA8",
"z. c #3CA4A3",
"x. c #3BABAA",
"c. c #2DB2AD",
"v. c #2EB6B1",
"b. c #2DBBB5",
"n. c #31BDB6",
"m. c #39BCB7",
"M. c #558C84",
"N. c #569C99",
"B. c #679A9A",
"V. c #53A7A9",
"C. c #53B9AF",
"Z. c #42BCB7",
"A. c #4BBBB2",
"S. c #6BA6A1",
"D. c #2FC5BE",
"F. c #32C6BF",
"G. c #3BC2BB",
"H. c #2FC6C0",
"J. c #32C6C0",
"K. c #87A1A3",
"L. c #9EA9AC",
"P. c #AAACAF",
"I. c #CADAD7",
/* pixels */
"F.J.J.H.J.F.J.F.J.F.F.F.F.F.J.F.F.F.F.J.F.F.J.D.J.F.D.J.F.F.J.F.F.F.J.J.J.J.J.J.J.J.J.J.J.J.J.J.J.F.F.F.F.F.F.F.F.F.F.F.J.J.J.J.",
"F.H.D.H.F.F.F.F.J.F.F.J.F.F.J.J.J.J.J.J.J.J.J.J.J.J.J.J.J.J.J.J.J.J.H.H.H.J.J.H.J.J.J.F.F.F.H.J.H.F.H.F.F.F.F.F.F.F.F.J.J.J.H.J.",
"F.H.H.H.H.F.J.F.F.F.F.J.F.F.D.J.F.F.F.F.F.D.J.D.J.D.D.H.F.F.F.F.F.F.F.H.H.D.F.F.J.F.J.J.F.J.J.J.F.F.F.H.F.F.F.F.F.J.F.F.H.H.H.J.",
"D.H.H.H.D.F.F.J.F.F.F.H.D.H.D.F.F.F.F.F.F.F.F.F.F.F.F.F.F.F.F.F.F.F.F.D.F.F.F.F.J.J.J.J.J.J.J.H.F.H.H.F.F.F.F.F.F.F.F.F.D.H.H.D.",
"J.J.J.F.F.F.J.J.J.F.J.J.J.F.J.D.F.F.J.F.F.F.F.F.D.H.F.F.F.F.F.F.F.F.F.F.D.F.H.F.J.J.J.F.F.F.J.J.F.F.F.F.F.F.J.J.F.F.F.F.H.F.F.F.",
"J.J.F.J.F.F.G.J.F.F.J.J.J.F.J.F.J.J.F.F.F.F.F.F.F.F.J.F.F.F.F.F.F.F.F.F.H.F.F.F.G.F.F.F.F.G.J.F.F.F.F.F.F.F.F.J.F.F.F.F.H.F.F.F.",
"F.J.J.F.J.G.J.J.G.J.J.J.F.F.F.F.J.J.F.F.J.F.F.F.F.F.F.F.F.F.F.J.F.F.F.J.F.F.F.F.F.F.F.F.F.F.J.F.F.F.F.F.F.F.F.J.J.F.F.F.F.F.F.F.",
"F.F.F.F.F.F.J.J.J.J.J.G.J.F.J.F.G.F.F.F.F.F.F.F.F.F.F.F.F.F.F.F.F.F.F.F.F.F.F.F.F.F.F.F.F.F.J.J.F.F.F.F.F.F.F.J.F.F.F.F.F.F.F.F.",
"J.J.F.F.J.J.G.J.J.F.J.J.F.G.J.J.J.J.J.J.J.J.J.J.J.J.J.J.J.J.J.J.J.J.J.J.J.F.F.F.F.F.F.F.J.J.J.J.F.F.J.J.G.J.J.J.F.F.F.F.F.J.J.J.",
"F.J.F.F.J.J.J.J.F.J.J.F.F.F.J.J.F.J.F.F.F.F.F.J.G.F.F.F.J.F.F.F.F.J.F.F.F.F.F.F.F.F.F.F.F.F.J.J.F.J.G.J.J.J.J.J.F.F.F.F.F.F.J.F.",
"F.F.F.F.J.J.J.F.G.J.J.J.J.F.J.J.F.F.F.F.F.F.F.F.J.J.F.F.F.F.F.F.F.F.F.F.F.F.J.J.F.F.F.F.F.F.J.F.F.J.J.J.J.J.F.G.F.F.F.F.F.F.F.F.",
"F.J.F.J.J.F.F.J.J.J.J.J.F.F.J.F.F.F.F.F.F.F.F.F.J.J.F.F.F.F.F.F.F.F.F.F.J.J.J.J.F.F.F.F.F.F.F.F.J.J.J.J.J.J.F.F.F.F.F.F.F.F.F.F.",
"F.F.F.F.J.F.F.J.F.F.J.J.F.F.F.J.H.J.J.J.H.J.J.H.J.J.J.J.J.J.J.J.J.J.J.J.J.J.J.J.J.J.J.J.J.J.J.J.J.J.F.F.F.J.J.F.F.F.J.J.F.F.F.F.",
"F.F.F.F.J.F.F.J.F.F.F.F.F.F.J.F.F.F.D.J.F.F.F.F.J.F.F.F.F.F.F.F.F.F.F.J.J.J.J.J.J.J.J.J.F.J.F.F.J.J.F.F.F.F.J.F.F.F.F.J.F.F.F.F.",
"J.J.F.F.J.J.F.J.F.J.J.J.F.J.J.J.J.J.J.J.J.J.J.J.J.J.J.J.J.J.J.J.J.J.J.J.J.J.J.J.J.J.J.J.J.J.J.J.J.J.J.F.F.J.F.F.F.F.J.J.J.J.F.F.",
"F.J.F.F.J.J.G.F.J.F.F.F.J.F.J.F.F.F.F.F.F.J.F.F.F.F.F.F.F.F.J.F.F.F.J.F.J.J.J.J.J.J.J.J.F.F.F.F.J.J.F.J.J.F.F.F.F.F.F.J.F.F.J.F.",
"F.J.D.D.H.F.F.F.J.J.F.F.J.F.J.F.F.F.F.F.F.F.F.F.F.F.F.G.J.J.F.F.F.F.F.F.F.F.F.F.F.F.F.G.F.F.F.F.F.F.F.F.D.F.F.J.F.J.F.F.F.D.J.J.",
"F.J.F.F.D.J.J.F.J.J.F.F.J.F.F.F.F.F.F.F.F.F.F.F.F.F.F.F.J.F.F.F.F.F.F.F.F.F.F.F.F.N.B.K.L.P.P.P.K.N.j.F.F.F.F.J.F.J.F.J.F.F.J.F.",
"F.J.F.F.F.F.F.F.J.J.J.J.J.J.J.F.F.F.F.F.F.F.F.F.F.F.F.F.F.F.F.F.F.F.F.F.Z.A.C.C.S.n c c z c c c z z Z N.j.F.J.J.F.J.G.J.F.F.J.F.",
"F.H.F.F.F.F.F.F.J.G.Z.m.J.F.J.F.m.F.G.F.F.F.F.F.F.F.F.F.F.F.F.F.F.G.G.A.9.7.6.=.v v v v v v v v Z v v Z A z.F.J.F.J.J.J.J.D.J.H.",
"F.F.F.F.F.F.F.F.F.I.0.>.O.>.,.1.1.1.5.2.m.J.J.F.F.F.F.F.F.F.G.e.8.8.7.8.7.5.6.V v v v v n v v v v b n n v C x.b.F.J.J.D.D.F.J.F.",
"D.F.D.D.F.F.F.F.Z.r.6.6.#.....5.5.@.@.6.9.0.G.F.F.F.F.e.e.e.9.6.6.6.@.6.5.C :.n v v n v v v v n L J J n v v M X.G.J.F.F.F.H.J.D.",
"F.F.D.D.D.D.G.+.o.:.#.#.1.@.<.v C 5.5.7.7.7.t.w.F.F.t.7.8.6.@.@.@.5.....C v V n v v v v v v n K L L n n v v v v X.J.F.F.J.D.J.J.",
"F.F.D.D.D.G.q.3.3.#.L L #.L 5.u v 6.8.7.7.7.6.7.y.y.7.8.7.7.4.4...@. . .n v v v v v v v n H G L Z V J K K K v v v } J.D.F.F.H.F.",
"F.F.F.F.M.q.#.$.$.L ....L L n c &.7.7.7.7.7.7.7.6.6.6.$.$.$.$.8.4. .C N v v v v v v n G G L L  .G G L L C N v v v v ~ D.D.F.J.F.",
"F.F.' ~ Z J C L K c k c L L c %.7.6.*.7.7.7.7.7.8.8.8.;.L L L %.%.C v v v v v v v v n L L L S C  .L L L v v v v v v A J.F.D.J.D.",
"D.~ , @ < v v S K m m m L L G -.-.6.-.-.7.8.8.6.*.*.*.7...L L L L v S S v v v v v v v S L L S v S L L S v v v S m v M ` F.F.J.F.",
"D.;   # q c v v K G G ..L L L L L 6.7...-.;.;.6.*.L L -...L L L L S  .F M m v v C S C S L L L S S L L S C S S D v v m m F.H.J.D.",
"D.j o q y y c v J v C L L L L L %.6.:. .L L $.6.3. . .L L L L ..L L K v v v v n  . . . .L L  . .L L  . ..... .C v v v M i.J.J.J.",
"D.j 9 1 y y 1 v v m L L L L L L 4.4. .L L  .4.6. .L L L L L L L L L L N v v v v H H L  .L H H L L L G H H .. . .N v v v M J.J.H.",
"F.1 ; y y y y v v M L K L L L L L L  .L L L ..4...L  .L L L L L L L K L N v v v n n L L L N n H L L N n v U G  . .v v v A l.J.J.",
"F.w 5 y y y y v m K K n L L L L L L L L L L L ..L L L L L L  .L L L M K K v v M H N K L L K n N K L L L M m v v v v v v v B J.J.",
"F.j 0 5 0 q y u v v n n L L L L L L L L L L L L L L L L L L L ..L L n M v v v n K L L L L L K L L L L L K n v v v v v v v A F.F.",
"F.h.j < q y y y u u v v n K n N L L L L L  .L L L  .L L  .L L L L L K K b v v v N L L L L L L L L L L L L K v v v v u u v v I D.",
"F.F.d.k < < < < < < 1 i i N n H L L L L L L  .L L L L L L L L L L L N N v v n H G  .L L L L C L L L L C L L K v v v v y u v l b.",
"F.J.F.a.p.p.a.a.a.a.u.y > 1 i C C L S L L  .L L L @...L L L L L L L F v v v v C L C C L L L v C L L L F C L L n v v v c y i k n.",
"F.J.F.F.F.F.F.J.F.F.F.u.u.] 1 i v C b L S L  .L L L L L L L L  . . .L v v v v v C v D  . .L F v C L L L v C C v v x i v y y u n.",
"F.J.F.D.F.J.F.F.J.F.F.F.H.F.` 1 z v v S S L F L L L L L L L L L L F L D S v v n S S L L L L L S S L L L v v v v v y y i y y _ F.",
"J.H.D.J.J.J.F.F.F.F.F.F.J.F.H.' ' v v v L F v K L G L L L L L L L v F G L M v M G ..L L L L L ....L L L S v p c v y y q y ! J.F.",
"J.J.J.D.J.G.F.F.F.F.F.F.J.F.J.F.F.| v v G v C L G n L L L L H L  .N v v F v c v v G L L G K L G G L K L L C i 1 c i y y Q H.J.D.",
"J.J.F.D.H.F.J.F.J.J.F.F.J.F.J.F.F.F.| { v n L L v N L L L L n H H L b v c c u c v m H  .v M K N n G n H  .L N y y c y Q F.F.F.F.",
"H.F.F.F.F.F.F.F.J.F.F.F.J.F.J.F.J.G.F.F.[ b K H n K L K K L N v n H v v y y y y v v m G m v L K n v v M H K H y y y k J.F.F.F.F.",
"J.F.D.F.F.F.F.F.J.F.F.F.J.F.J.F.J.F.J.F.F.I b b v M K M n K K v v v v y y y y w v v v v v v K L v v v v n v v y y y l H.F.F.F.F.",
"J.F.H.F.F.F.F.F.J.F.F.F.J.F.J.F.J.F.F.F.F.n.M v v n K v v M v v y u y y q u u w p v v u v v M K n v v v v v v y y k c.J.F.D.F.F.",
"J.F.F.F.F.J.F.F.J.F.F.F.J.F.J.F.F.F.F.F.F.F.; o v v M v v v u u y 1 < y p z.z.V.V.p u y u v m M i v v i v v u y p k.F.H.D.F.J.J.",
"J.F.F.F.F.F.F.F.J.F.F.F.J.F.J.F.F.F.F.F.F.P . . @ q v v v i y p g.f.f.f.f.F.F.J.F.g.u > > y y u y v v y i v y y y Y F.D.J.D.H.F.",
"J.D.F.F.F.F.F.F.J.F.F.F.J.F.J.F.F.F.F.F.T . . . . . 9 y v y y j F.F.F.F.J.F.F.F.F.F.a.s.s.a.s.y > p v x y i y y y 0 E J.J.D.J.F.",
"J.J.J.F.F.F.F.F.J.F.F.F.J.F.J.F.F.F.F.^ . . . . o ( ) e v x y t F.F.F.F.F.F.F.F.F.J.J.J.J.J.J.] ) 0 , u 0 > y y y y 2 / F.F.H.F.",
"J.F.F.F.F.F.F.F.F.F.F.F.J.F.J.F.F.F.F.O . . . . + F.F.r v v y t F.F.F.J.F.F.F.F.J.F.F.F.F.F.F.F.F.- . o # ^ 0 : 0 y 0 e F.D.F.F.",
"J.F.F.H.F.F.F.J.F.J.J.J.F.J.J.J.F.F.p.+ . . . . T F.J.E p v q r J.H.J.J.J.J.J.J.J.J.J.J.J.F.F.F.F.* . . + J.W R 2 0 y 5 i.D.F.D.",
"J.F.F.F.F.F.F.F.F.F.F.F.F.F.J.F.F.h.X . . . . g F.F.J.J.t p 2 e h.F.F.F.F.F.F.F.F.F.D.J.F.D.F.D.F.* . . @ F.F.F.Y 5 0 2 5 F.F.F.",
"F.F.H.H.J.F.F.J.F.F.J.J.F.F.F.J.F.O . .   . h F.J.J.J.J.P 2 2 2 a D.J.H.J.J.J.J.J.H.J.J.J.J.F.D.l.O . . d J.F.J.F.e 9 2 4 F.F.F.",
"F.F.H.H.F.F.F.J.J.J.J.J.F.F.F.J.D.X . . = a J.J.J.J.J.J.J.f $ 2 8 F.F.F.J.J.J.J.J.J.J.J.J.J.J.D.% . . O F.F.J.F.F.f 2 2 4 J.J.F.",
"F.F.F.F.F.F.F.F.J.G.J.J.J.F.J.F.&   . % F.F.F.F.F.F.F.F.F.F.6 9 6 F.F.F.F.J.F.F.F.F.F.F.F.F.F.3 . . . 3 F.F.J.J.F.F.s 7 s F.F.F.",
"F.F.F.F.F.F.F.J.J.J.J.J.F.J.J.F.%   . * F.F.F.J.J.F.F.F.F.F.8 $ 8 F.F.F.F.F.F.F.F.F.F.F.F.F.F.* . . % c.F.J.J.G.G.J.F.v.b.F.F.F.",
"F.F.F.F.F.F.F.F.J.J.J.G.J.F.F.J.v.c.c.c.J.J.J.J.J.J.J.J.J.J.v.c.c.J.F.F.J.J.J.J.J.J.J.J.J.J.J.c.l.l.l.J.F.J.F.F.J.F.F.J.F.F.J.J.",
"F.F.F.J.F.F.F.F.J.G.J.J.J.J.J.J.J.F.F.G.J.J.J.F.J.G.F.F.J.G.F.F.F.F.F.F.F.F.F.J.F.F.F.G.J.J.G.J.G.J.F.J.J.J.F.J.J.J.J.F.F.F.F.F.",
"J.F.J.F.F.F.F.F.J.J.J.J.J.G.J.J.J.J.J.J.J.J.J.J.J.J.J.J.J.J.J.J.F.F.J.J.J.J.J.J.J.J.J.J.J.J.J.J.J.F.F.F.J.J.G.F.J.G.J.J.F.J.J.F.",
"F.F.F.F.F.F.F.F.J.J.J.J.J.F.J.G.F.F.F.J.J.F.G.J.J.J.J.F.J.J.J.F.F.F.F.F.F.F.G.J.F.F.F.F.J.F.F.F.J.J.F.F.J.J.F.F.J.J.G.J.J.G.J.F.",
"F.J.F.F.F.F.F.F.J.J.J.J.F.F.J.J.D.J.F.D.J.F.J.J.F.J.F.F.F.J.D.F.F.F.F.F.F.J.J.J.J.D.F.F.J.J.F.F.J.J.F.J.J.F.D.H.J.J.J.J.J.J.J.J.",
"J.F.J.J.F.F.F.F.J.F.F.F.F.F.J.F.F.F.D.F.F.J.J.F.F.F.F.F.F.F.F.F.F.F.F.F.F.F.F.F.F.F.F.F.F.F.F.F.J.F.F.D.F.D.F.F.F.F.F.D.H.H.H.H.",
"F.F.J.J.J.F.F.F.F.F.F.F.F.F.J.F.F.H.H.F.D.D.D.D.F.F.F.H.H.D.D.H.D.J.D.H.F.F.J.F.H.D.D.H.D.F.H.D.J.F.F.J.F.F.F.F.F.F.F.H.H.D.H.F.",
"F.F.J.H.J.F.F.F.J.F.F.F.J.F.F.J.J.J.J.J.J.J.J.J.J.J.J.J.J.J.J.J.J.J.J.J.J.J.J.J.J.J.J.J.J.J.H.J.J.H.F.F.F.F.F.J.F.F.F.J.D.H.F.F.",
"F.F.J.H.J.F.J.F.J.J.F.F.J.F.J.F.D.F.J.D.F.J.J.F.D.J.F.D.F.J.D.F.F.H.D.F.J.D.F.F.F.J.D.F.F.H.F.F.F.J.F.F.F.F.J.J.F.F.F.J.H.D.J.F."
};
