/* XPM */
static char *_4289_38279e13d45d709906bed8d4dcf4184c35950a8708b4c03918a0d7dd1b674973[] = {
/* columns rows colors chars-per-pixel */
"64 64 165 2 ",
"   c #010404",
".  c #02030C",
"X  c #020A0A",
"o  c #0F0717",
"O  c #0B0C15",
"+  c #130410",
"@  c #130A15",
"#  c #190F1C",
"$  c #051312",
"%  c #081312",
"&  c #061817",
"*  c #0F1119",
"=  c #11121B",
"-  c #1F131D",
";  c #111F1F",
":  c #240D1B",
">  c #2B0E1B",
",  c #23121C",
"<  c #2D101D",
"1  c #32131F",
"2  c #39161E",
"3  c #08201F",
"4  c #1F0D22",
"5  c #131B22",
"6  c #1E1F27",
"7  c #210E22",
"8  c #261222",
"9  c #2C1322",
"0  c #211B25",
"q  c #251529",
"w  c #28172B",
"e  c #261A2C",
"r  c #2B1A2E",
"t  c #311522",
"y  c #361925",
"u  c #3A1B26",
"i  c #321C2A",
"p  c #3A1E2A",
"a  c #2E1D30",
"s  c #0A2322",
"d  c #0B2E2C",
"f  c #1A2C36",
"g  c #0F3D3A",
"h  c #1B3D3D",
"j  c #2D2029",
"k  c #3D212D",
"l  c #2C2736",
"z  c #3A2635",
"x  c #302B30",
"c  c #28363A",
"v  c #243D3D",
"b  c #451F27",
"n  c #411F29",
"m  c #45222A",
"M  c #4C272E",
"N  c #4E282F",
"B  c #50292F",
"V  c #50302C",
"C  c #4E2B32",
"Z  c #482F3B",
"A  c #532C31",
"S  c #592F33",
"D  c #563132",
"F  c #5C3234",
"G  c #58353C",
"H  c #623536",
"J  c #663837",
"K  c #673938",
"L  c #6C3C3A",
"P  c #703F3B",
"I  c #6D4138",
"U  c #75423D",
"Y  c #7B463F",
"T  c #2E3947",
"R  c #3F3042",
"E  c #124B4A",
"W  c #14514E",
"Q  c #1B5859",
"!  c #26454A",
"~  c #214C53",
"^  c #344C56",
"/  c #285659",
"(  c #3C5352",
")  c #315058",
"_  c #31625F",
"`  c #2B5D62",
"'  c #196460",
"]  c #1C6966",
"[  c #1C706C",
"{  c #206766",
"}  c #286469",
"|  c #206F6D",
" . c #28706E",
".. c #2A7976",
"X. c #48474F",
"o. c #7D4740",
"O. c #7E4840",
"+. c #507974",
"@. c #6D7369",
"#. c #834E43",
"$. c #8B5546",
"%. c #8B5847",
"&. c #8C5947",
"*. c #925D4A",
"=. c #95604B",
"-. c #9A644C",
";. c #856F5F",
":. c #9F6C50",
">. c #A26C4F",
",. c #B06E4E",
"<. c #A26C51",
"1. c #A67153",
"2. c #AB7555",
"3. c #AE7856",
"4. c #AF7B59",
"5. c #B07A57",
"6. c #B17C5B",
"7. c #1F817B",
"8. c #BF895F",
"9. c #B38161",
"0. c #B78769",
"q. c #BC8F73",
"w. c #BD9176",
"e. c #288686",
"r. c #2C8A87",
"t. c #238D88",
"y. c #328582",
"u. c #379789",
"i. c #329A8A",
"p. c #3D998D",
"a. c #2B9994",
"s. c #2A9996",
"d. c #349691",
"f. c #27A49E",
"g. c #2BA39D",
"h. c #2BA4A2",
"j. c #2CABA6",
"k. c #2BAFAA",
"l. c #31AEA5",
"z. c #2EB4AF",
"x. c #2EBBB4",
"c. c #2FBFB9",
"v. c #30B9B3",
"b. c #30BFB8",
"n. c #449B88",
"m. c #4E9D8C",
"M. c #549E94",
"N. c #4EAF9E",
"B. c #5BB89E",
"V. c #67A394",
"C. c #2FC4BD",
"Z. c #32C6BF",
"A. c #39C6BC",
"S. c #56C1A3",
"D. c #2FC6C0",
"F. c #32C6C0",
"G. c #53CFC6",
"H. c #78D8CB",
"J. c #88BCBB",
"K. c #91B8B9",
"L. c #98C2BF",
"P. c #81D0C4",
"I. c #90DACC",
"U. c #9CDACC",
"Y. c #D2CCCF",
/* pixels */
"Z.F.F.D.Z.Z.F.Z.F.Z.Z.Z.Z.Z.F.Z.D.Z.Z.Z.Z.Z.Z.Z.Z.F.Z.Z.Z.Z.Z.Z.Z.D.D.D.D.F.F.F.F.F.F.D.F.F.Z.Z.Z.Z.Z.Z.D.D.Z.F.Z.F.Z.D.D.D.Z.Z.",
"Z.D.C.D.Z.Z.Z.Z.F.Z.Z.F.Z.Z.F.D.D.D.F.D.D.F.D.D.D.D.F.D.D.D.D.D.D.D.D.D.F.D.F.F.F.F.F.F.F.F.Z.D.Z.Z.Z.Z.F.F.Z.F.Z.F.D.D.D.D.Z.A.",
"Z.D.D.D.D.Z.F.Z.Z.Z.Z.F.Z.F.Z.C.Z.Z.Z.Z.Z.Z.Z.Z.C.Z.Z.Z.Z.Z.Z.Z.Z.Z.Z.Z.Z.Z.Z.Z.F.D.D.D.F.F.D.D.Z.Z.Z.Z.F.F.F.F.Z.Z.Z.D.D.D.Z.Z.",
"C.D.D.D.Z.Z.Z.Z.Z.Z.Z.F.C.F.C.F.Z.Z.Z.Z.Z.Z.Z.Z.D.Z.Z.Z.Z.Z.Z.Z.Z.Z.Z.Z.Z.Z.Z.Z.D.D.F.D.F.F.D.D.D.D.Z.Z.F.F.F.F.Z.A.Z.Z.C.D.D.C.",
"F.F.F.Z.Z.Z.Z.F.F.F.Z.F.D.Z.F.Z.Z.Z.Z.Z.F.Z.Z.Z.D.Z.Z.Z.Z.Z.D.Z.Z.Z.Z.Z.Z.Z.Z.Z.F.F.F.Z.Z.Z.Z.F.Z.D.Z.Z.Z.Z.D.D.Z.Z.Z.Z.D.F.F.F.",
"F.F.Z.F.F.Z.F.A.F.A.Z.F.F.Z.F.Z.F.F.Z.Z.Z.Z.Z.Z.Z.Z.Z.Z.Z.Z.F.F.Z.Z.Z.Z.D.Z.Z.Z.F.F.F.A.Z.Z.Z.A.Z.Z.Z.Z.Z.Z.A.F.Z.Z.Z.Z.D.F.F.F.",
"F.F.F.Z.F.A.F.F.Z.Z.F.F.Z.Z.Z.Z.A.F.A.F.Z.Z.F.F.Z.Z.A.F.F.A.F.A.Z.Z.Z.F.Z.Z.Z.Z.F.A.A.F.F.F.F.F.Z.Z.Z.A.Z.F.Z.F.A.Z.Z.Z.Z.F.Z.Z.",
"Z.Z.Z.Z.Z.Z.F.Z.F.F.F.A.F.Z.F.Z.F.F.F.F.F.A.F.A.Z.Z.F.F.Z.Z.F.F.Z.Z.Z.Z.Z.Z.Z.Z.F.F.F.F.F.F.Z.Z.Z.Z.Z.Z.F.Z.Z.A.Z.Z.Z.F.Z.Z.Z.A.",
"F.F.Z.Z.F.F.F.F.Z.Z.F.F.F.Z.F.F.F.F.F.F.F.F.F.F.F.F.F.F.F.F.F.F.F.F.F.F.F.F.F.F.F.F.F.F.Z.Z.Z.F.F.A.Z.Z.A.F.F.F.Z.A.Z.Z.Z.Z.F.F.",
"Z.F.Z.Z.F.F.A.F.A.F.F.A.F.A.F.Z.Z.Z.Z.Z.Z.F.Z.Z.Z.Z.Z.Z.F.Z.Z.Z.Z.Z.Z.Z.Z.Z.Z.Z.Z.Z.Z.Z.Z.Z.Z.Z.F.F.Z.Z.F.F.Z.A.Z.Z.Z.Z.Z.Z.F.Z.",
"Z.Z.Z.Z.F.F.F.F.F.Z.Z.Z.F.Z.F.F.Z.Z.Z.Z.Z.Z.Z.Z.Z.Z.Z.Z.Z.Z.Z.Z.Z.Z.Z.F.Z.Z.Z.Z.Z.Z.F.Z.Z.Z.F.F.Z.F.Z.F.F.F.Z.F.Z.Z.A.Z.Z.Z.Z.Z.",
"Z.F.Z.F.F.Z.A.F.F.F.F.F.Z.Z.F.F.Z.Z.Z.Z.Z.Z.Z.Z.Z.Z.Z.Z.Z.Z.Z.Z.A.Z.Z.Z.Z.Z.Z.Z.Z.Z.Z.Z.Z.Z.F.F.Z.F.Z.F.F.F.Z.F.Z.Z.Z.Z.Z.Z.Z.Z.",
"Z.Z.Z.Z.F.Z.Z.F.A.Z.F.F.Z.F.F.F.D.F.F.D.F.F.F.F.F.F.F.F.F.F.F.F.F.F.F.F.F.F.F.F.F.F.F.F.F.F.D.F.F.Z.Z.Z.Z.F.Z.A.Z.Z.D.D.Z.Z.Z.Z.",
"Z.Z.Z.Z.Z.Z.Z.Z.F.Z.Z.Z.b.F.F.F.Z.Z.Z.Z.Z.Z.Z.Z.Z.F.Z.Z.Z.Z.Z.Z.F.F.Z.Z.Z.Z.Z.F.Z.Z.Z.Z.Z.Z.Z.Z.Z.F.Z.Z.Z.F.Z.Z.Z.Z.Z.Z.Z.Z.Z.Z.",
"F.F.Z.C.F.F.A.F.F.F.F.F.Z.F.F.F.F.F.F.F.F.F.F.F.F.F.F.F.F.F.F.F.F.F.F.F.F.F.F.F.F.F.F.F.F.F.D.F.F.F.F.Z.Z.F.F.Z.F.Z.D.D.Z.Z.Z.D.",
"F.F.F.C.F.F.F.Z.F.F.Z.Z.F.F.F.F.Z.F.Z.Z.Z.Z.Z.Z.Z.Z.Z.Z.Z.Z.Z.Z.F.Z.Z.Z.Z.Z.Z.Z.Z.Z.Z.Z.F.Z.Z.Z.Z.F.Z.F.F.Z.Z.F.Z.F.Z.Z.Z.Z.F.Z.",
"C.F.Z.C.D.Z.Z.Z.F.F.F.Z.F.Z.F.F.F.F.F.F.F.Z.Z.Z.Z.Z.Z.Z.Z.Z.Z.Z.F.Z.Z.Z.Z.Z.Z.Z.Z.Z.Z.Z.Z.Z.Z.Z.Z.F.Z.F.F.Z.Z.F.Z.F.Z.Z.Z.Z.F.Z.",
"F.F.D.F.Z.F.Z.Z.F.F.Z.Z.Z.l.i.u.p.m.V.V.V.m.n.Z.Z.C.Z.Z.Z.Z.F.Z.Z.Z.Z.Z.Z.Z.Z.Z.Z.Z.Z.Z.Z.Z.Z.Z.Z.F.F.F.F.Z.Z.F.Z.F.F.Z.Z.Z.F.Z.",
"Z.F.D.C.Z.F.Z.Z.F.F.F.l.p.A b b m m b b m b C M.N.B.B.S.Z.Z.Z.Z.Z.Z.F.Z.Z.Z.Z.Z.Z.Z.Z.Z.Z.Z.D.F.Z.A.F.F.F.Z.Z.Z.Z.F.A.Z.F.D.D.Z.",
"C.F.F.Z.Z.F.F.A.F.F.v.S M M M M M M B M M M M B -.3.3.6.A.Z.Z.Z.Z.Z.A.Z.Z.Z.Z.Z.Z.Z.Z.Z.H.I.U.U.P.G.F.F.F.Z.Z.Z.Z.F.F.F.Z.C.F.Z.",
"Z.Z.Z.Z.Z.Z.Z.Z.Z.Z.G M M B A B M M M M M M M M A 1.1.3.5.2.6.5.8.F.F.F.Z.Z.Z.Z.Z.Z.G.H.9.3.2.6.8.9.9.1.9.2.Z.Z.Z.F.F.C.Z.D.F.F.",
"Z.Z.C.Z.Z.Z.F.Z.c G M M N P Y U A M B M B M M M A :.F 1.2.#.2.2.3.6.9.6.0.Z.Z.Z.F.G.0.9.3.#.O.2.9.Y Y #.1.2.4.Z.Z.F.F.Z.Z.C.F.Z.",
"C.D.Z.Z.Z.Z.A.T N M M M N S U Y P B M M M M M M N D M F O.O.2.#.#.#.3.3.3.q.Z.Z.q.0.5.3.3.1.1.F u >.Y >.#.#.2.=.;.F.Z.Z.Z.Z.F.Z.",
"Z.D.Z.Z.Z.Z.! M M N P P U L S S Y P P M M M B M M M M N Y O.#.o.<.1.3.5.5.3.w.w.3.3.3.3.3.3.1.N j 1.Y %.Y Y #.>.,.;.F.C.F.D.F.C.",
"Z.D.Z.Z.D./ C M M M D F Y Y L P o.o.Y P L N M N M M M N S D Y <.3.$.$.$.$.3.,.2.3.3.3.3.3.4.3.*.m A U o.o.O.Y $.$.&.@.+.Z.Z.F.Z.",
"Z.D.Z.Z.F.C M M M M M C Y Y Y Y H F Y Y Y N M M M M M M M M H &.$.o.Y Y *.3.5.5.3.3.3.3.3.&.2.5.%.m o.U m m m U o.F I V ( _ D.Z.",
"Z.D.Z.Z. .A M M H M M M H Y Y H M H Y Y H M M M N M M N H H N U Y o.Y Y 2.=.*.*.2.3.3.3.=.=.2.=.=.K o.U C C C U H M m 9 + , Q C.",
"Z.D.Z.Z.A M M N J H H F F Y Y H H Y Y Y H F H F N M M N L Y H Y Y Y Y #.=.o.o.*.2.-.-.=.O.3.2.o.Y o.o.o.o.L L Y N N m 9 @ . # v.",
"Z.D.C.f.D C M M D Y o.o.o.Y Y Y Y Y Y Y O.o.O.Y B M M M M U Y Y Y Y Y o.Y Y O.>.2.&.Y Y o.-.3.&.o.Y Y Y Y D M L M n t t t o 0 v.",
"Z.D.C.D M M M S Y Y Y P P P Y Y Y P L Y Y Y P L N M M M S Y Y Y o.Y Y Y Y Y Y o.2.<.o.Y Y o.:.:.o.o.Y Y Y Y N M M t t t t 7 ; v.",
"Z.D.Z.Z M M C U U U P M A B Y Y U N S Y Y Y N B M M M S Y U Y Y Y Y Y Y Y Y Y O.1.Y Y Y Y o.Y o.Y Y o.Y U Y S M M t t t t 7 ; v.",
"Z.D.v m M M M N A M A A Y Y Y Y S B U Y Y Y S U A M N U U B Y Y Y Y Y Y o.Y Y Y o.Y o.Y Y Y Y Y Y Y Y Y B U U M M t t t 9 : ; v.",
"Z.Z.l M M M M M M M B Y Y Y o.Y Y U Y o.U o.o.U B M M B A B Y Y o.Y Y Y Y O.Y Y Y Y O.Y Y Y Y Y Y Y Y U N B N M t t t 8 7   s v.",
"Z.h u M y y M M M M P Y Y Y Y Y o.Y Y Y o.Y o.S M M M B P P Y Y Y Y Y O.Y Y Y Y Y Y Y Y Y O.O.U S B U S M M y y t t t 9 9 s C.Z.",
"Z.i M y t m M M B P Y Y F Y Y Y Y S Y Y o.Y o.P P B M M S S Y Y Y Y Y Y Y Y Y Y Y Y Y Y Y Y Y Y L N S u u 1 < < , % % X s Z.Z.Z.",
"x.j y y b M M M B Y Y F L Y Y Y F M U o.Y S S o.S M M M M L Y Y Y o.Y Y Y Y Y o.O.Y Y Y Y H Y F F u 1 > 8 g.Z.F.Z.Z.Z.Z.C.C.Z.Z.",
"v.y t t M u n M M H F B Y Y Y S M J o.Y U H N S B M N m M Y #.Y Y Y Y o.O.Y Y Y Y Y Y H Y N F M u 1 7.z.C.Z.Z.F.Z.F.F.C.Z.D.F.Z.",
"Z.{ t t p t t M M M M M Y Y Y H J o.Y Y o.o.H H N M N J H Y H Y o.Y Y Y Y Y O.o.Y J Y H H M M m , t.C.Z.Z.Z.Z.F.Z.F.F.Z.Z.C.F.Z.",
"F.F.` 9 9 t t M n b M F Y Y Y o.O.Y o.Y o.o.o.K N N B o.L L M Y Y Y Y Y Y Y L Y Y N J Y M M m ] t.Z.Z.Z.F.Z.Z.F.Z.F.F.Z.Z.Z.F.C.",
"F.Z.C.) t t u m t y S o.Y P Y P L Y L L o.o.L N N b N K M M S Y Y P Y Y Y Y N L U F B K M 2 ' Z.Z.Z.Z.Z.F.Z.Z.F.A.F.F.C.Z.D.F.F.",
"F.D.Z.C.X.i m 1 t A Y #.P B L B S U N N Y U M M m y m m N C Y P P M Y Y o.Y S M Y Y B u c Q Z.Z.F.F.Z.F.F.F.A.F.F.F.Z.Z.Z.Z.F.Z.",
"F.Z.Z.Z.x.k t t y P P P B M M M Y Y N N L B M M t t t t m M P B N S Y U P o.P A P U b v Z.Z.Z.Z.Z.F.Z.F.F.F.F.F.F.F.Z.Z.Z.Z.F.F.",
"F.F.C.Z.C.Z t t y M B M M M M B U U N M M M M M y t t t y m M M M U U B A U A M N N c Z.Z.Z.Z.Z.Z.F.Z.F.F.Z.Z.F.F.F.F.Z.Z.F.F.Z.",
"F.C.F.D.C.j.z t t M M M M M M B U A N M y M M y y i y t t y y y M N A M C P N N M x Z.Z.Z.Z.Z.Z.Z.F.Z.F.F.Z.Z.F.A.F.F.F.Z.C.F.Z.",
"F.Z.D.C.C.Z.g.k t y M M y M M u B M M y 9 y k Y.L.J.K.p 1 9 t 9 y y M M M A N M @ = Z.Z.Z.Z.Z.Z.Z.F.Z.D.F.Z.Z.F.Z.F.F.C.C.Z.F.Z.",
"D.Z.F.F.C.C.^ 2 t y M y 1 M M y u t 1 < < y d.Z.Z.Z.Z.s.a.a.a.u.p t y M M M 9 @ . X g Z.Z.Z.Z.Z.Z.F.Z.F.F.Z.Z.F.Z.F.F.Z.F.D.D.Z.",
"F.Z.Z.C.Z./ < 9 t t y t m M y > t y.r.r.r.t.C.F.Z.Z.Z.Z.Z.Z.Z.b.i t t M t : . . . . . W Z.Z.Z.Z.Z.F.Z.F.F.Z.F.F.Z.F.F.Z.F.C.F.Z.",
"F.Z.Z.C.} 4 t t t t > 8 y , - ....Z.Z.Z.Z.Z.Z.Z.Z.Z.Z.Z.Z.Z.Z.b.e t p M w | ] O . . .   [ Z.Z.Z.Z.F.Z.D.F.F.F.F.A.F.F.C.F.Z.D.Z.",
"D.Z.Z.C.q 8 t 8 : 7 ` # o . * c.Z.Z.Z.Z.Z.Z.F.Z.Z.Z.Z.Z.Z.Z.Z.c.w t M M q C.Z.O . . . . X Z.Z.Z.Z.F.C.F.F.F.F.F.Z.F.F.F.Z.C.F.F.",
"F.Z.Z.e.w t 9 7 ~ ~ c.= . . * Z.D.F.F.F.F.F.D.F.F.F.F.F.F.D.F.C.a 9 M i Q F.Z.E . . . . X x.F.F.F.F.F.F.A.F.F.Z.F.F.F.F.Z.Z.F.D.",
"Z.Z.x.q 7 9 8 E Z.Z.v.O . . * c.Z.Z.F.F.Z.Z.C.F.Z.Z.Z.Z.Z.Z.Z.s.w 4 p w c.Z.Z.Z.g   . . . X C.Z.Z.F.Z.Z.Z.Z.Z.Z.A.F.Z.F.C.Z.Z.F.",
"Z.Z.x.r 7 7 w c.F.Z.v.f . . * s.D.F.F.F.F.F.F.F.F.F.D.F.F.C.c.w 4 4 # T C.Z.F.F.Z.d   . . . % F.F.Z.Z.Z.Z.F.Z.F.F.F.A.F.F.Z.Z.F.",
"Z.Z.x.r 7 7 l F.F.Z.F.v.* . . 5 j.F.D.F.F.F.F.F.D.F.F.F.F.F.c.w 4 8 R x.F.F.F.F.Z.Z.3 &   . X F.D.Z.Z.Z.Z.F.F.F.F.Z.Z.F.C.C.F.Z.",
"Z.Z.b.l w l z.Z.F.Z.Z.b.5 . . . 6 F.F.F.Z.Z.Z.Z.F.Z.Z.Z.Z.Z.c.a 4 w z.F.Z.Z.Z.Z.Z.Z.Z.Z.$ .   s Z.F.Z.F.F.Z.A.F.Z.F.Z.Z.Z.Z.Z.Z.",
"Z.Z.Z.z.k.v.Z.Z.A.F.F.F.h.= . . # b.A.Z.Z.Z.Z.Z.Z.Z.Z.Z.Z.Z.C.i 7 a c.F.Z.Z.Z.Z.Z.Z.Z.Z.% X . % Z.F.F.Z.Z.F.F.F.F.A.F.F.Z.Z.F.Z.",
"Z.Z.Z.Z.Z.Z.Z.Z.F.F.F.F.F.h.h.h.h.F.F.F.F.F.F.F.F.F.F.F.F.F.Z.g.h.h.F.F.F.F.F.F.F.F.F.F.F.F.F.F.F.Z.F.Z.Z.F.A.F.F.F.Z.D.Z.Z.F.F.",
"Z.Z.Z.F.A.F.F.b.F.A.A.F.F.Z.F.A.Z.Z.Z.A.F.F.F.Z.F.A.Z.Z.A.Z.Z.Z.F.F.A.F.F.F.A.F.Z.Z.Z.A.F.F.Z.Z.F.F.Z.F.F.Z.Z.F.F.F.Z.Z.Z.Z.Z.Z.",
"F.Z.F.F.F.F.F.Z.F.F.F.F.F.Z.F.F.F.F.F.F.F.F.F.F.F.F.F.F.F.F.F.F.F.F.F.F.F.F.F.F.F.F.F.F.F.F.F.F.F.A.Z.Z.A.F.Z.Z.F.F.F.F.Z.F.F.Z.",
"Z.Z.Z.F.F.A.Z.Z.F.Z.Z.Z.Z.Z.F.F.F.Z.Z.Z.F.A.F.Z.F.F.Z.Z.F.F.F.Z.F.F.Z.Z.Z.Z.F.A.F.Z.Z.Z.F.F.A.F.F.F.Z.Z.F.F.Z.F.A.F.A.F.F.F.F.A.",
"Z.F.F.F.F.F.Z.Z.F.F.Z.Z.F.Z.F.F.F.C.Z.Z.Z.Z.F.F.F.b.Z.Z.Z.F.F.C.F.F.Z.Z.Z.Z.Z.Z.F.C.Z.Z.Z.Z.F.F.Z.F.Z.F.F.F.C.F.F.F.F.F.Z.F.F.F.",
"F.Z.D.D.C.Z.Z.Z.F.Z.C.D.Z.Z.Z.Z.Z.Z.Z.F.C.F.Z.F.F.F.F.F.Z.C.F.Z.F.F.D.F.Z.F.F.F.Z.Z.F.Z.C.F.Z.Z.F.Z.Z.Z.Z.Z.Z.C.Z.Z.Z.C.F.D.D.C.",
"Z.Z.D.D.D.Z.Z.Z.Z.Z.F.F.Z.Z.Z.Z.D.C.D.C.F.F.C.D.F.F.Z.Z.F.C.D.Z.D.c.F.F.Z.C.F.D.D.C.C.D.F.F.C.D.Z.Z.Z.Z.Z.Z.Z.Z.Z.Z.Z.D.Z.Z.D.D.",
"Z.Z.D.D.F.Z.Z.Z.F.Z.Z.F.Z.Z.F.D.F.F.F.F.F.F.F.F.F.F.F.F.F.F.F.F.F.F.F.C.C.F.Z.C.F.F.F.F.F.F.F.F.F.F.Z.Z.Z.Z.Z.F.Z.Z.Z.F.D.F.Z.Z.",
"Z.Z.D.D.F.F.F.Z.F.F.Z.Z.Z.Z.F.Z.F.F.C.F.F.C.C.Z.F.C.Z.F.D.Z.Z.D.F.F.F.F.F.F.F.F.F.F.C.F.F.C.C.Z.Z.D.Z.Z.Z.Z.F.F.Z.F.F.D.C.C.F.Z."
};
