/* XPM */
static char *result[] = {
/* columns rows colors chars-per-pixel */
"64 64 222 2 ",
"   c #0D2C46",
".  c #0F2E48",
"X  c #122F49",
"o  c #112D47",
"O  c #13314B",
"+  c #1B344D",
"@  c #1D3247",
"#  c #1C3751",
"$  c #1E3A55",
"%  c #20354E",
"&  c #2C3A4D",
"*  c #243750",
"=  c #243B54",
"-  c #2B3B54",
";  c #263E58",
":  c #2B3E59",
">  c #333E56",
",  c #353F55",
"<  c #313D4E",
"1  c #2D4157",
"2  c #2D405A",
"3  c #354356",
"4  c #3A4256",
"5  c #33425B",
"6  c #3B445C",
"7  c #3D495A",
"8  c #3D4660",
"9  c #48464E",
"0  c #424554",
"q  c #42465D",
"w  c #43495C",
"e  c #4B4C5D",
"r  c #4C4B55",
"t  c #544D56",
"y  c #5D5456",
"u  c #54515B",
"i  c #5B535B",
"p  c #59545A",
"a  c #514D53",
"s  c #63555C",
"d  c #6C5A5C",
"f  c #68585B",
"g  c #735C5D",
"h  c #7A5D5B",
"j  c #7E615D",
"k  c #414761",
"l  c #454962",
"z  c #4D4C64",
"x  c #524D66",
"c  c #544E68",
"v  c #545064",
"b  c #5B5265",
"n  c #565069",
"m  c #5C526A",
"M  c #5D5868",
"N  c #625565",
"B  c #655965",
"V  c #6B5964",
"C  c #63556C",
"Z  c #68576C",
"A  c #66596C",
"S  c #6B596D",
"D  c #685767",
"F  c #735D65",
"G  c #7A5F64",
"H  c #735D6C",
"J  c #7A5F6A",
"K  c #6D5A70",
"L  c #745D72",
"P  c #785F73",
"I  c #7C6162",
"U  c #77606A",
"Y  c #7B626C",
"T  c #796465",
"R  c #7C6174",
"E  c #825F57",
"W  c #83635D",
"Q  c #8B665C",
"!  c #8F695C",
"~  c #946A5B",
"^  c #9A6D5D",
"/  c #9B735D",
"(  c #A5735B",
")  c #AB755D",
"_  c #AE7A5B",
"`  c #B37B5B",
"'  c #BB7A5E",
"]  c #B2765E",
"[  c #A16F5F",
"{  c #846562",
"}  c #856A65",
"|  c #8C6D64",
" . c #83646C",
".. c #89666D",
"X. c #8E6A6B",
"o. c #886764",
"O. c #936C64",
"+. c #9C6D64",
"@. c #946B6D",
"#. c #9B6D6A",
"$. c #9D726B",
"%. c #977265",
"&. c #836474",
"*. c #896775",
"=. c #8D6975",
"-. c #866678",
";. c #896779",
":. c #8D697A",
">. c #856874",
",. c #946C75",
"<. c #9A6E74",
"1. c #926B79",
"2. c #9D7175",
"3. c #977479",
"4. c #8E707A",
"5. c #A16F65",
"6. c #A06F6A",
"7. c #A57264",
"8. c #AB7364",
"9. c #AD7965",
"0. c #A4726C",
"q. c #AB746B",
"w. c #AB7A6C",
"e. c #A77C6A",
"r. c #B37664",
"t. c #B47B63",
"y. c #BB7B63",
"u. c #B17669",
"i. c #B37A6A",
"p. c #BC7D69",
"a. c #A27171",
"s. c #AB7C74",
"d. c #A3797B",
"f. c #B17B70",
"g. c #C57D5E",
"h. c #CA7F5C",
"j. c #C27D61",
"k. c #BE825E",
"l. c #B6805A",
"z. c #AF815C",
"x. c #BC8462",
"c. c #B98567",
"v. c #BD906D",
"b. c #A88276",
"n. c #B98C76",
"m. c #CE815B",
"M. c #CE8A5F",
"N. c #C0825F",
"B. c #D2835A",
"V. c #D88759",
"C. c #D58A5E",
"Z. c #DB8B5B",
"A. c #DD925E",
"S. c #E08E5B",
"D. c #E2935C",
"F. c #E59A5F",
"G. c #ED9B5D",
"H. c #EA975C",
"J. c #F29F5D",
"K. c #F6A25D",
"L. c #FBA65D",
"P. c #FFAA5D",
"I. c #C48463",
"U. c #CA8362",
"Y. c #C38A63",
"T. c #CE8A63",
"R. c #C88B6A",
"E. c #D48B62",
"W. c #DB8E61",
"Q. c #CE916E",
"!. c #D69362",
"~. c #DC9364",
"^. c #DD9B6C",
"/. c #D5946B",
"(. c #CA9475",
"). c #D59A74",
"_. c #E19562",
"`. c #EB9D62",
"'. c #E39B6B",
"]. c #E39B66",
"[. c #DAA078",
"{. c #E5A16A",
"}. c #ECA36B",
"|. c #ECA066",
" X c #F3A463",
".X c #FEAD64",
"XX c #F2A669",
"oX c #F4AA6D",
"OX c #FAAD6A",
"+X c #F8A762",
"@X c #FFB166",
"#X c #FFB26B",
"$X c #E6A676",
"%X c #F3AD73",
"&X c #F0AD78",
"*X c #FEB572",
"=X c #FFB974",
"-X c #FFBB7B",
";X c #F7B57A",
":X c #BD9587",
">X c #C99984",
",X c #D3A487",
"<X c #CAA693",
"1X c #C9A78E",
"2X c #EDB585",
"3X c #FFBE81",
"4X c #F4B986",
"5X c #E7B38A",
"6X c #FEC48C",
"7X c #FCC189",
"8X c #FFCB95",
"9X c #FFCE9C",
"0X c #F8C698",
"qX c #FFD09E",
"wX c #F9CDA3",
"eX c #FFD3A4",
"rX c #FFD5AA",
"tX c #FFD9AE",
"yX c #F7D0AA",
"uX c #FFDBB3",
"iX c #FFDDB7",
"pX c #FFE0BC",
/* pixels */
"0XrXeXeXb.A ,XyXiXrXeXqXtXqXtXiXiXeXeX0XeXeXuXrX9X$X7.n.8X9XrXeXrXrXrXeX8X8XeX9XeXeXrXrXrXeX4XT.f.4X9XrXeXrXrXrXeX9X8X9XeX9XeX0X",
"9XiXpXeX1X4.yXuXrXeXeXrXrXrXtXtXiXrXeXiXiXtXtXtXtX8XY.,XrXtXrX9XeXrXuXrXrXeX9X9XuXpXuXuXrXuXeX/.(.rXrXrXeXeXeXrXuXrXrX9X8XuXiX9X",
"qXrX6X=X,X4.0X6X-X@X-X7X#X*X=X@X3X#X#X3X3X7X=X*X3X7XE.2X-X.X#X#X3X-X.X#X@X-X3X3X-X#X-X-X*X3X6X).).-X#X@X#X-X-X#X.X.X=X3X3X6XtXeX",
"9X9X@XP.,X>.5X.XP.P.P.oXoXP.P.P..XOXL.P.P.P.P.P.P.;XE.&X.XP.P.P.P.P..XL.P.P.P.P.P.P.P.L.P.P.#X^.Q.;XoXP.P.P.P.P..X+X.XP.P..X9X9X",
"9X9XOXOX>X4.5XH.J.L.J.H.J.P.P.L.K.J.K.K.K.L..XK.XX2XR.$X}.`.#X.XXXXXOX*XOXoX%X%X%XOXL.+XL.J.4X(.:X%XJ.K.L.K.J.K.oX XK.G.J..X9XqX",
":X>Xp.i.3.R 0.q.t.t.8.7.7.) 9.) %.+.7.) +.0.c.r.q.d.&.@.+.7.0.7.+.7.9.e.r.7.+.i.I.c.y.t.r.8.s.>.&.+.5.) ) +.5.9.i.q.p.0.u.p.>X<X",
"S &.:.1.,.Y V V Z l z S B B B m B m c n m V U ..>.,. .Y Y H V N D Y Y U L F A K P A U F *. .=.=.J Y Y S Z D F *.*.*.;.3.:.;.P L ",
":X<X<X,X$X^.~.D.I.N { ~.B.C.C.y.C.T.%.t.N.].H.H.~.A.A.A.~.!.<...T.'.C.C.I.T.C.I.x.c.E.F.`.D.S._.'.}.{.s.&.t._.C.C.C.Q.'.>X1X1X>X",
"4X3X$XW.W.Z.B.V.C.M t.V.B.B.U.I.h.B.V.V.V.V.V.V.h.V.h.B.B.S.w.f.{._.B.U.U.B.B.V.V.V.h.V.Z.Z.m.B.E.V._.(.1.W.V.B.h.B.B.B.V.'.-XoX",
"oX#X^.h.h.h.h.B.C.B ` V.m.V.W.m.h.B.h.B.h.h.B.h.h.h.B.B.m.Z.w.b.~.h.B.B.B.V.h.h.h.V.h.h.B.Z.T.h.h.h.^.Q.,.V.h.h.B.B.h.B.h._..X%X",
"oXOX'.h.B.h.m.h.C.V x.V.m.B.m.B.m.y.y.g.h.h.h.B.B.T.h.B.B.V.0.$.Z.h.B.B.B.h.h.B.h.h.V.h.B.B.B.B.B.h.E.R. .V.B.B.B.h.B.h.h.'.@XoX",
"'.).).~.V.h.p.u.I.S 9.p.j.h.h.m.h.y.I.y.h.h.h.h.E.V.B.j.q.I...o.I.j.h.j.j.j.r.i.g.g.h.h.j.j.h.U.h.p.c.c.D I.t.M.g.g.j.p.u.I.).'.",
"V A Y ..R Y S A n l v m S B V U F F D v w v A B F S G S Z m x x z S A D V K A A b e v A N V F F J K C c z z M V M U K U P S Z N ",
"m R A M u z 3 6 3 1 1 3 3 5 5 = ; 1 ; 1 6 1 1 4 6 3 7 6 , 0 z , 3 6 > 6 l 8 1 1 : - - - 6 7 3 7 8 , 6 e w 3 7 7 7 8 z b D N Y A ",
"[.2X5X$XE.M.t.#.) ( +.7.7.7.b - g +.o.o.7.^ +.7.0.7.@.+.5.8.] +.) ] 7.{ m B +.o.{ 5.( +.7.7.0.O.+.7.+.' k.M.A.!.Y.A $.`.F.{.&X$X",
"%X@X}.C.B.B.u.,.,.,.,.:.1.2.{ 6 ..<.,.,.,.,.,.:.*.:.:.,.,.,.<.,.1.,.<.#.l V 2.,.1.1.,.,.:.=.:.:.1.,.1.2.2.2.3.3.Q.| e.H.V.].@XoX",
"XX.XD.r.h.B.0.:.:.:.R -.:.1.I 3 @.:.:.:.:.:.:.:.;.-.&.*.:.:.:.;.;.:.:.5.6 J 1.:.:.:.:.:.:.:.:.;.;.*.&.L K H :.;.R.O.$.Z.B.~.+X X",
" X.X~.g.h.B.r.:.:.:.:.1.:.1.G 3 #.1.:.:.:.:.:.,... ...1.:.:.1.=...:.:.#., E ,.:.:.=.:.:.=.&.&...*.&...H R :.:.1.E.| $.V.B._..XoX",
"%X.X~.h.g.g.q.:.;.;.;.:.:.,.Q 3 +.:.;.;.;.:.*.=.,.=.-.:.:.:.;.*.*.;.&.+.& h =.;.-.;.:.:.@.=.:.*.1.:.;.:.:.R -.*.T.| 0.V.B.^.#X%X",
").{.M.9.@.*.H n x m c C Z C s 3 e m m n m m z c C z z C C n n x c c c s @ 0 m c z c m n z N c z n C m m m x x m @.G 9.A.~.{.}.(.",
"e b B S Z n : $ = : = = ; 6 l : X - + # + X o o o o X o o X X X X @ O X o o o o o X X X X X X X o o X @ + = : 5 z 7 M B M B b e ",
"n.v.Y.c.o.B i g { Q W i g O.Z C x l 6 6 c M x N C , % - q b m n 6 q b m c m q k , e N C N m C , & t h g g G Q ~ z.k.k.I.Y.Y.v.n.",
"oX@XoXS...D 6.<.,.<.a.,...F m C K Z Z Z Z K m Z K m % z K C C Z m m C C m Z C Z Z K K P L Z &.z t r.<.1.:.1.a.j.A.V.V.S.D.oX@XoX",
"XXP.}.j...Z <.:.:.,.:.:.Z c c c c x c n x c c z z C % z c z c k k x x c c x c c z z c c c c H e a q.;.:.<.#.:.<.m.m.N.m.m.}.+X{.",
"%XP.XXm...m 6.:.1.=.;.:.P m x c c c m m c c c c c C + z m c z z z x z c c c c c c m c c c c H q a a.:.:.3.<.1.1.q.B.m.B.B.}.OX%X",
"oX.X}.m...D 5.&.;.:.;.;.-.Z z x x z c x c c c z c C + c c z c c x z c z z c z c x c x x z z C 8 a 6.;.;.:.:.:.1.u.V.V.V.V.XX@XXX",
"R.Q.Q.c. .b x z m m c z n n l > = = : : : 5 5 : : , X * = ; > : * ; 2 8 5 - ; : : : : ; ; ; : : > b c c C K H o.7.p.I.R.T./.Q.R.",
"K &.R A P m 1 ; 8 : $ ; ; : $         .   . X X X + O X X O O X   X X X .       X       O X O # # = : : ; ; ; : 6 x m m P R &.A ",
"(.(.R.c.I.x.! ! g 5 6 W Q o.B 6 c q * > , c m m q x n n N c * # q m m c 8 z x - > , x C C Z N G Q Q ~ g - y ! ~ _ x.z.k.Y.R.).(.",
"=X@X XB.V.B.g.' 0.l G a.<.,.;.P Z C m C Z L Z m l 6 c m Z S 8 > Z C m c c m m m m m K K Z Z Z &.F J 5.[ 7 ] m.t.Z.V.V.V.D.+X@X-X",
"6XP.}.m.m.m.m.B.#.5 I ,.*.:.:.Z x c c c x z c c n z k c x C > , C c x x c k , x c c c c x z z z c c F ~ w 8.j.h.m.m.m.h.B.}.oX7X",
"-XP.XXB.m.m.B.B.9.- j <.:.:.&.m x c c c x x c c c n l x c C , , C c x z x c z c z c c m m c z z c x F ~ e 7.a.2.u.g.B.B.B.}.@X-X",
"-X.X{.m.h.h.g.y.+.* h 1.:.:.;.S c c c z c c c z c c c c l m , , m c c m c z z c z z c m C x c c C C *.{ 4 +.s.2.0.a.g.m.I.}..X-X",
"$X/.~.T.g.+.V b z > 0 x C m z k : > > = = 5 : = : 5 5 > ; : * + * : > > 5 2 2 5 = = : : : : ; : c n N z 1 v Z A @.@.] C._.~.^.[.",
"U R B D N z 8 8 5 8 = # = : : X     X       X X X . X X   X O .   o   X O X .   X   X X .     # = = ; = $ = : 5 6 l b M B B >.H ",
"n.(.Y.x._ 7.O.h Q W g Q W G , O > k , , c l z m c c l l x x m l c c z , + * l 6 > z C l , k c V j d Q ! ! ~ ! ^ ! v } x.Y.Y.(.n.",
"%X@X|.Z.V.m.u.a.0.0.a.,.a.O.t X c K C C Z K C m m m m m C C Z C m C C C + , K C C C Z K K K P ,.#.a.a.2.0.6.6.q.^.} w.K.H.`.@XoX",
"%X@XA.B.h.h.u.:.:.:.:.1.;.*.V @ m c x x c c c x x c c c c c c c x x l C % l m c x c c c x c K 1.O.-.:.;.*.&.-.:.Y.| 0.D.m.~..X&X",
" X+XC.g.h.B.r.=.-.:.:.:.:.1.g + C c c c c c c k 8 z c c c z c z 8 c c n + x m z x c c c x z C P a.2.1.:.,.:.;.:.T.| w.Z.B.E.}. X",
" XP.~.h.h.B.h.q.@.:.:.:.:.1.E @ C c c c c c n x x x c c z l c c c z c Z * c m c c c c c c x C -.:.2.2.:.=.;.;.,.E.| b.'.m.~.@X X",
"{. X!.C.U.t.9.{ K K Z K Z K d @ k 8 8 8 > l 8 8 l 6 5 k k 5 8 5 5 5 5 z % , 8 8 5 5 8 5 k k 6 c Z L L L P C Z K w.} $.R.T.I.'.{.",
"B I } | { s t : ; > : 2 2 8 6 +   X X X O O     O X X X X . O O X O X O O   O O X O X O X o X # 2 8 8 > 2 5 : l C l N { |  .Y H ",
"f e w i w - 6 w i y t 6 w f f q > = * % > > > 8 q * % @ * k , , * * 8 k k , - * * - 6 , , a 9 , k b F d V i w s f F G B N v u G ",
"].^.M.D.} 6 +.9.q.u.u.@.0.6.J H L Z K Z L L Z P P m + z K K K P C C K Z K L C Z m K L K  .8.8.N B 7.8.q.u.0.@.q.q.6.h.B.C.M.^.~.",
"XX@X'.m.T 7 O.:.:.:.:.1.,.C c c c c c c c c c c c m % z c z c c c c z l c c z 5 8 x c c c x *.V s <.R :.:.:.:.1.*.:.q.h.B._.@XXX",
" X.X_.h.H 3 #.1.:.1.*.:.1.K c c c c c c c c c c c C % z m c z z c c c c c c c c c c c c c z Z q r <.:.:.*.-.:.1.=.1.y.h.h.D.P. X",
"XXJ.V.m.U 6 6.;.:.:.:.;.:.L c c c c c c c c c z c C % c c c z 5 z c c c c c c c c c c c z c C > , P -.1.;.;.:.:.:.-.q.B.m.V.K.}.",
"W.A.Z.T.| 6 V C K L K Z K C m l 8 5 8 8 8 8 8 8 6 x O > 5 5 8 8 > 5 k l 8 8 5 8 6 8 k l 5 5 c * * 8 z K P Z Z P R R a.t.m.C.~.E.",
"B } | V z $ ; ; 5 1 2 : 2 5 5 O   X X O X X X O X X X   . O + O   X X O O . . X O O X O O X O O   o O + * : : 6 l l u V } | } S ",
"B N m I O.s i s w $ 1 i p p p - > - X + * , , k k q l , l , % O - q 8 8 - > > X + + > , q 6 6 e p t a & # q f F s u w I U } | F ",
" X^.x.g.Z.q.a.u.+.1 B u.a.a.<.S K C c m C P P K K C C C K K , - Z K Z C n Z Z c m C P P K C C S J +.u.d : O.q.@.@.<.#.B.Z.`. X}.",
"XX+XE.m.h.a.*.;.#.3 I 1.:.&.&.S c c c z l x z l c m c c c C 8 , m c c z l c m c l x c c c x c z x m *.W 4 @.&.*.:.:.:.q.B.B.+XoX",
"oXL.V.m.m.0.1.:.$.3 { ,.:.;.;.Z c c c z z x l x m Z m c c C , , Z c z z c c c c x c c c c c n x x m *.o.6 +.:.*.:.:.;.q.m.V.L.oX",
"&X+XB.B.M.,.:.;.#.3 { ,.:.:.:.K c c c c c c c c c c c c c m 8 , C c m n c c c z l c m m c x c c c K *.} u 6.:.1.:.:.:.7.m.B. X%X",
"/.oXA.V.y.1.P m V 3 b D L P P m 8 8 8 > 8 k 8 5 k l l 8 : 8 = = 8 8 z z l 8 8 l 5 8 z 8 8 8 z x l 8 6 r > V K P P R X.y.V.D.|.~.",
"A | O.{ s e 8 5 = $ ; ; 2 : : = X O X     X X X O O O O O O O .   O O O O # O X . . X X X O O O O X O O O # ; : 6 l p g } | %.U ",
"$.J b i u e e t y u r i i e 1 + - , < < 9 < * - - * - > > - : : ; : 6 > > : 3 ; = : > 5 : 5 - > , - * 0 4 9 a r 4 5 - e w b H $.",
"I.j.6.5.#.<.q.q.t.8.q.a.q.u.B = | 9.+.5.u...L L P P &.&.-.&.P P P &.#.J 5 b &.P L -.&.R P R L P -.&.&.8.7.q.0.q.8.e 4 5.q.$.y.m.",
"] B.3.:.;.:.:.:.:.:.:.;.:.3.W 1 $.1.:.;.:.:.:.:.1.:.1.=.;.;.:.1.:.:.1.6.7 F 1.:.:.:.:.:.:.&.*.-.:.:.:.:.*.:.:.:.2.i z <.;.3.m.` ",
"_ B.,.;.&.&.;.:.:.:.:.1.*.,.U 3 8.:.:...*.:.:.:.:.:.:.,.@.-.:.:.,.q.1.=.6 { 1.1.1.:.:.:.:.:.*.&.-.:.@.&.&.:.&.*.,.i p 2.;.,.B._ ",
"n.E.3.:.,.-.-.:.:.1.:.=.1.,.{ 3 +.:.1.,.:.:.,.0.1.;.;.:.1.:.:.:.a.3.,.0.q W ,.<.,.:.:.:.:.-.A D -.:.<.1.;.;.:.:.d.f i a.;.3.B._ ",
"b.(.n.0.p.q.a.w.q.a.@.e.<.u.! 3 ] <.,.=.1.,.<.0.a.@.*.a.0.<.a.0.:.4.a.I.w / a.,.=.*.<.#.@.<.@. .6.<.;.*.@.*.*.&.c.d i $.,.q.U.~ ",
"v.{.|. X`.~.~.B.B.~.M.].~.~.O.u Q.E.C.N.g.m.h.B.V.h.h.Z.B.j.j.B.t.U.C.M.7 j C.N.r.y.M.m.' g.j.g.m.m.y.' N.g.g.N.m.f w ' m.M.Z.( ",
"3.).).Q.N.k.t.] N.N.Y.A.!.M.| v e.z.` _ ` l.( ( ( ~ ^ ] ( ~ ) ) ^ ~ / / 1 u _ ) / ^ I g h +.9.G G h ( G O.N.) g j M z I Q W | B "
};
