/* XPM */
static char *result[] = {
/* columns rows colors chars-per-pixel */
"64 64 13 1 ",
"  c black",
". c #010101",
"X c #020202",
"o c #060606",
"O c #090909",
"+ c #D89E36",
"@ c #F8D81E",
"# c #F8D81F",
"$ c #F8F800",
"% c #F8D923",
"& c #F8D927",
"* c white",
"= c None",
/* pixels */
"========================                ========================",
"========================                ========================",
"========================                ========================",
"========================................========================",
"================       .****************.       ================",
"================       .****************.       ================",
"================       .****************.       ================",
"================.......X****************.       ================",
"============oooO********&%%%%%%%%%%%%%%%#@@@++++    ============",
"============oooO********%@@@@@@@@@@@@@@@@@@@++++    ============",
"============oooO********%@@@@@@@@@@@@@@@@@@@++++    ============",
"============oooO********%@@#%%%%%%%%#@@@@@@@++++    ============",
"============   .****&%%%$$$$********$$$$@@@@++++    ============",
"============   .****%@@@$$$$********$$$$@@@@++++    ============",
"============   .****%@@@$$$$********$$$$@@@@++++    ============",
"============...X****%@@#$$$$********$$$$@@@@++++    ============",
"========   .****&%%%$$$$****$$$$%%%%    $$$$@@@@++++    ========",
"========   .****%@@@$$$$****$$$$@@@@    $$$$@@@@++++    ========",
"========   .****%@@@$$$$****$$$$@@@@    $$$$@@@@++++    ========",
"========   .****%@@@$$$$****$$$$@@@@    $$$$@@@@++++    ========",
"========   .****%@@@$$$$****$$$$@@@@    $$$$@@@@++++    ========",
"========   .****%@@@$$$$****$$$$@@@@    $$$$@@@@++++    ========",
"========   .****%@@@$$$$****$$$$@@@@    $$$$@@@@++++    ========",
"========   .****%@@@$$$$****$$$$@@@@    $$$$@@@@++++    ========",
"========   .****%@@@$$$$****$$$$@@@@    $$$$@@@@++++    ========",
"========   .****%@@@$$$$****$$$$@@@@    $$$$@@@@++++    ========",
"========   .****%@@@$$$$****$$$$@@@@    $$$$@@@@++++    ========",
"========   .****%@@@$$$$****$$$$@@@@    $$$$@@@@++++    ========",
"========   .****%@@@$$$$****$$$$@@@@    $$$$@@@@++++    ========",
"========   .****%@@@$$$$****$$$$@@@@    $$$$@@@@++++    ========",
"========   .****%@@@$$$$****$$$$@@@@    $$$$@@@@++++    ========",
"========   .****%@@@$$$$****$$$$@@@@    $$$$@@@@++++    ========",
"========   .****%@@@$$$$****$$$$@@@@    $$$$@@@@++++    ========",
"========   .****%@@@$$$$****$$$$@@@@    $$$$@@@@++++    ========",
"========   .****%@@@$$$$****$$$$@@@@    $$$$@@@@++++    ========",
"========   .****%@@@$$$$****$$$$@@@@    $$$$@@@@++++    ========",
"========   .****%@@@$$$$****$$$$@@@@    $$$$@@@@++++    ========",
"========   .****%@@@$$$$****$$$$@@@@    $$$$@@@@++++    ========",
"========   .****%@@@$$$$****$$$$@@@@    $$$$@@@@++++    ========",
"========   .****%@@@$$$$****$$$$@@@@    $$$$@@@@++++    ========",
"========   .****%@@@$$$$****%@@@@@@@    $$$$@@@@++++    ========",
"========   .****%@@@$$$$****%@@@@@@@    $$$$@@@@++++    ========",
"========   .****%@@@$$$$****%@@@@@@@    $$$$@@@@++++    ========",
"========   .****%@@@$$$$****%@@@@@@@    $$$$@@@@++++    ========",
"========   .****%@@@$$$$****%@@@@@@@    $$$$@@@@++++    ========",
"========   .****%@@@$$$$****%@@@@@@@    $$$$@@@@++++    ========",
"========   .****%@@@$$$$****%@@@@@@@    $$$$@@@@++++    ========",
"========   .****%@@@$$$$****%@@@@@@@    $$$$@@@@++++    ========",
"============....#@@@$$$$$$$$        $$$$@@@@++++oooo============",
"============    @@@@$$$$$$$$        $$$$@@@@++++oooo============",
"============    @@@@$$$$$$$$        $$$$@@@@++++oooo============",
"============    @@@@$$$$$$$$        $$$$@@@@++++oooo============",
"============    @@@@@@@@@@@@@@@@@@@@@@@@++++++++oooo============",
"============    @@@@@@@@@@@@@@@@@@@@@@@@++++++++oooo============",
"============    @@@@@@@@@@@@@@@@@@@@@@@@++++++++oooo============",
"============    @@@@@@@@@@@@@@@@@@@@@@@@++++++++oooo============",
"================        ++++++++++++++++        ================",
"================        ++++++++++++++++        ================",
"================        ++++++++++++++++        ================",
"================        ++++++++++++++++        ================",
"========================                ========================",
"========================                ========================",
"========================                ========================",
"========================                ========================"
};
