/* XPM */
static char *result[] = {
/* columns rows colors chars-per-pixel */
"64 64 138 2 ",
"   c #090D07",
".  c #0B0F09",
"X  c #0D120C",
"o  c #13110F",
"O  c #141411",
"+  c #191613",
"@  c #161916",
"#  c #1B1A17",
"$  c #1B1D1A",
"%  c #221E1C",
"&  c #1E221D",
"*  c #23221E",
"=  c #28221F",
"-  c #1C1E20",
";  c #1F2325",
":  c #1E262E",
">  c #1D2730",
",  c #1F2B34",
"<  c #1F2D38",
"1  c #222521",
"2  c #2A2523",
"3  c #262A24",
"4  c #292C26",
"5  c #2B2E2A",
"6  c #312A27",
"7  c #342D2A",
"8  c #283027",
"9  c #2C322B",
"0  c #2F392E",
"q  c #30362F",
"w  c #39312E",
"e  c #31382F",
"r  c #202B35",
"t  c #212E39",
"y  c #22313D",
"u  c #333532",
"i  c #3E3532",
"p  c #353C33",
"a  c #383937",
"s  c #3B3D3B",
"d  c #403734",
"f  c #413835",
"g  c #364235",
"h  c #394337",
"j  c #3C453A",
"k  c #3E4A3C",
"l  c #40413F",
"z  c #404D3E",
"x  c #243543",
"c  c #273B4E",
"v  c #293D4D",
"b  c #2A3F52",
"n  c #2A4257",
"m  c #2C455D",
"M  c #2D4760",
"N  c #2E4B64",
"B  c #2F4E69",
"V  c #304D67",
"C  c #304F6A",
"Z  c #31526E",
"A  c #325573",
"S  c #345877",
"D  c #345B7B",
"F  c #395F7E",
"G  c #434442",
"H  c #444B43",
"J  c #484947",
"K  c #4A4B4A",
"L  c #445241",
"P  c #485746",
"I  c #495846",
"U  c #4E514E",
"Y  c #4B5B48",
"T  c #50544F",
"R  c #535553",
"E  c #555B55",
"W  c #5C5C5B",
"Q  c #5E615D",
"!  c #60625F",
"~  c #646464",
"^  c #626D60",
"/  c #6C6C6C",
"(  c #6F7A6E",
")  c #70766F",
"_  c #747474",
"`  c #777877",
"'  c #7B7C7B",
"]  c #365F81",
"[  c #366185",
"{  c #396283",
"}  c #376589",
"|  c #38668B",
" . c #3A698E",
".. c #3A6C93",
"X. c #3B6F98",
"o. c #3E7097",
"O. c #3C719B",
"+. c #3D76A2",
"@. c #3E79A6",
"#. c #3E7BA9",
"$. c #406D8F",
"%. c #437295",
"&. c #41759C",
"*. c #457CA5",
"=. c #487DA4",
"-. c #427DAB",
";. c #4481AE",
":. c #4982AC",
">. c #4684B1",
",. c #4A86B3",
"<. c #4B89B6",
"1. c #4C8CBA",
"2. c #508CB6",
"3. c #518EBB",
"4. c #4F90BE",
"5. c #5090BE",
"6. c #5394C2",
"7. c #5698C6",
"8. c #5B9AC5",
"9. c #579AC8",
"0. c #5A9DCA",
"q. c #5FA1CD",
"w. c #62A3CE",
"e. c #65A7D1",
"r. c #848484",
"t. c #8A8B8A",
"y. c #90908F",
"u. c #939493",
"i. c #989798",
"p. c #9C9C9C",
"a. c #A3A3A3",
"s. c #ACACAC",
"d. c #B4B4B4",
"f. c #BCBBBC",
"g. c #C3C3C3",
"h. c #CACACB",
"j. c #D0D0D0",
"k. c None",
/* pixels */
"k.k.k.k.k.k.k.k.k.k.k.k.k.k.k.k.k.k.k.k.k.k.k.k.k.k.k.k.k.B N M B N N k.k.k.k.k.k.k.k.k.k.k.k.k.k.k.k.k.k.k.k.k.k.k.k.k.k.k.k.k.",
"k.k.k.k.k.k.k.k.k.k.k.k.k.k.k.k.k.k.k.k.k.k.k.k.k.M M B S X. .B  .X.X.A B M M k.k.k.k.k.k.k.k.k.k.k.k.k.k.k.k.k.k.k.k.k.k.k.k.k.",
"k.k.k.k.k.k.k.k.k.k.k.k.k.k.k.k.k.k.k.k.k.k.B A A A ] +.+.#.&.Z #.#.#.@.+.D A A S B k.k.k.k.k.k.k.k.k.k.k.k.k.k.k.k.k.k.k.k.k.k.",
"k.k.k.k.k.k.k.k.k.k.k.k.k.k.k.k.k.k.k.k.m B  .#.#.@.@.-.<.<.:.A 5.1.<.1.-.@.#.#.+. .C m k.k.k.k.k.k.k.k.k.k.k.k.k.k.k.k.k.k.k.k.",
"k.k.k.k.k.k.k.k.k.k.k.k.k.k.k.k.k.k.M M A X.-.-.1.1.3.1.*.:.2.Z &.*.*.*.<.1.1.3.-.-.X.A m V k.k.k.k.k.k.k.k.k.k.k.k.k.k.k.k.k.k.",
"k.k.k.k.k.k.k.k.k.k.k.k.k.k.k.m N B ] D D ,.3.,.&.&.&.O.|  ...C C [ |  .O.&.&.&.,.3.,.D $. .B N M k.k.k.k.k.k.k.k.k.k.k.k.k.k.k.",
"k.k.k.k.k.k.k.k.k.k.k.k.k.k.Z A } +.-.&. .=.X.....| } [ S S S D N A S S [ }  . ...X.=.$.:.2.+.} A B k.k.k.k.k.k.k.k.k.k.k.k.k.k.",
"k.k.k.k.k.k.k.k.k.k.k.k.m A X.@.-.-.,.>.%.S ] ] ] ] A A S A S A M A S A A A ] [ ] S S %.,.,.-.-.@.X.A M k.k.k.k.k.k.k.k.k.k.k.k.",
"k.k.k.k.k.k.k.k.k.k.k.M D +.#.>.1.,.&. .} S C C S S S S A V N M m N C A S S A A C C S } | O.,.3.<.#.O.D M k.k.k.k.k.k.k.k.k.k.k.",
"k.k.k.k.k.k.k.k.k.m N [ @.#.<.;.&...] D S A A C V C n m n c : 1 ; : c n m m Z C C A A S D ] X.&.;.<.#.+.[ V m k.k.k.k.k.k.k.k.k.",
"k.k.k.k.k.k.k.k.k.Z  .@.>.<.*. .} ] S A V c c c c x $ - - $ % = % % $ - $ - x v c c c M A S ] ]  .*.<.;.@...Z k.k.k.k.k.k.k.k.k.",
"k.k.k.k.k.k.k.k.M ..#.>.,.&. .] S S A m r # % % % % 2 2 2 2 = 7 7 2 2 2 = = % * $ % % r m A D S ] ..&.,.>.#...m k.k.k.k.k.k.k.k.",
"k.k.k.k.k.k.k.M $.-.,.>.X.] ] D Z b t 1 % 6 6 7 w 2 2 w w d w d d d d d 7 2 2 w 7 6 6 % 1 t b Z S ] [ X.:.<.*.| m k.k.k.k.k.k.k.",
"k.k.k.k.k.k.B N S *.*.} [ F A B x * = 2 7 w 7 w i 7 2 7 * % % % % % % % 7 = 7 d w w 7 7 2 2 * x B A F [ | +.X.S B B k.k.k.k.k.k.",
"k.k.k.k.k.A X.O.F A ]  .] S M t * w 7 = 7 7 w 6 * % # 1 # o o o o o o o % + % * 6 w w 7 2 7 w = r n A ]  .] Z { O.X.A k.k.k.k.k.",
"k.k.k.k.N X.-.,.:.{ S ] D b : % 6 w 7 % % % 1 u u 9 9 4 3 O @ o o o o o o = i j 5 1 # # % 7 w 6 % r n D ] A { ,.>.#.X.N k.k.k.k.",
"k.k.k.N [ X.@.6.*.] Z C b - % 6 w 7 $ + ; z W E k & & O O @ & o O O o O @ 8 4 H ~ L 4 $ O % 7 7 6 % 1 b V A ] &.6.-.+.} B k.k.k.",
"k.k.k.N X.X.<.*...D A M : * 7 w 6 # $ 9 K ` ` J & O & & & & & O o O O @ & O o j ` ` U p 9 - # 6 i 7 % : M A D ..*.1.#.X.N k.k.k.",
"k.k.k.N }  .3.&.} D V r # 2 w 6 # 1 9 R ' ) K $ & & & & & & & X O O O & & & & & K _ ` ' R 0 1 # 2 w 2 @ t V D ] ..6.-.X.N k.k.k.",
"7.$.S N D F 3.&.D A N > # = 7 % * u s Q / J u $ & & 3 3 & & & X O O @ & 3 3 & O u J ~ ' W s 0 $ % 7 2 # > B S ] &.6.*.| B S $.7.",
"%.=.,. .Z S 2.&.] D B > 2 w 2 * 9 p J ! G O @ $ & 3 3 & & & & + o O & & & & & @ O O 5 R ! J 0 & % 2 7 2 > V S ] &.6.O.A  .,.-.%.",
"M | *.,.A A 5.&.] S N > 2 f 2 ; u p 9 3 1 1 3 @ & & 3 3 3 * & O O O ; 3 8 & & O 3 2 @ - 4 p p 9 - 2 d 2 > N S ] &.3.] A ,.*.[ V ",
"B  .[ | D Z =. .A Z N > 2 w = 3 p 9 $ @ f ~ v % @ & 3 * * * * O O O & & * * = = f / u o @ 9 g p 2 2 u 2 : N Z A ..=.C ] | } | V ",
"m B A A S S F D D S B > * i 2 4 g 4 & $ s r./ 2 & & & 8 ; 3 $ O o @ & 3 8 = = 7 / :.J - $ 3 h h 3 2 d = > M V C A S S D S D S N ",
"k.N [  .X. .|  . .| Z > = w 2 3 k p & @ i ! p 4 z X o & & ; & O o O 3 & & X X X a ~ ~ 9 # & k P 3 2 w = : B A S F ]  .X.X.X.] k.",
"k.M Z Z Z B B N N N M > % 6 % 3 I k & @ 7 l 7 ' r.5 X . . o X O O O O X . X 9 Q 4 l f $ @ & p k 4 % 7 % : M N B N B V Z A B M k.",
"k.k.k.M Z Z A Z M Z N > # 6 * 3 L h $ & = + f r.p.r.U j 3 3 2 O O O @ * j U ' ' d @ o = $ $ h L 3 * 2 # : N B N A A Z A M k.k.k.",
"k.k.k.M S F A A B Z N > % 6 * 4 g 9 @ J ! # U ` p.f.g.a.p.u.' % o @ U ` a.f.s./ z + d ' J @ k P 3 % 6 % : B Z N S D ] ] M k.k.k.",
"k.k.k.M [ ..{ F B Z B : % 2 % 3 g 9 @ s _ s 7 / r.a.f.h.h.f.' $ O $ ` t.f.f.p.' d T d.p.s @ k P 4 % 2 % > B Z B { | X.&.V k.k.k.",
"k.k.k.N .... .:.S S B : 2 w 1 4 H g $ ; E t.` r.t.t.i.h.j.h.' % o $ _ t.f.p.t.i.%.p.a.R $ @ j P 3 1 i 2 > B A Z  ...*.2.Z k.k.k.",
"k.k.k.N O.+.X.3.F D Z : 2 d 2 3 P k & @ s y.i.y.t.t.t.p.f.u.` # o $ _ t.u.t.r.t.i.t.J @ @ & 9 j 4 2 d 2 : Z D Z  ...;.2.C k.k.k.",
"k.k.k.N O.@.O.5.F Z B : * w 2 4 P I 9 $ 9 W %.y.t.t.r.t.t.t.` % o $ ` r.r.t.t.t.t.! 1 @ & u j q 3 6 w % : B Z Z +.X.;.:.V k.k.k.",
"k.k.k.N X.@.#.,.S Z N > 2 i 6 3 P _ E # @ 5 _ i.p.p.y.t.r.t._ % o $ _ t.t.y.p.u.r.w . # # E Q q 3 7 i 2 > N C A +.@.#.O.B k.k.k.",
"k.k.k.N ] +.O.+.A C N : % 7 * 3 P ^ ~ f * K _ p.a.a.d.d.s.y.` = o $ _ i.s.f.f.a._ J * O j ~ T q * 1 7 % > N A A +.X.#.O.N k.k.k.",
"k.k.k.N | +.X.O.A Z B : * 7 1 3 P E W x 5 W W _ t.y.p.a.g.d.%.= o $ ` f.f.d.p.` ! W 2 o l W H q 1 1 7 * > N C A +.X.+.X.N k.k.k.",
"k.k.k.N ] +.X.X.A Z N > 2 d 2 2 I g a a u / ! J i 7 7 f ' u.t.% o $ ` u.K u u G ! / f o a G 0 q 1 2 i 2 : B Z A +.X.#.X.N k.k.k.",
"k.k.k.N ] #.>.X.C A B > % 7 1 3 I g 4 9 u r.r.U 2 . . . # ~ r.% o % / = . . . K y.r.! = 4 9 9 k 3 * 6 * > C A C ..#.#.O.B k.k.k.",
"k.k.k.N ] *.6.*.B ] Z > 2 w = 4 k 8 $ & 9 r.p.u.E + O * R / r.% o % _ W - O $ y.d.%.! 6 & & g P 4 * w 2 > Z ] C ..#.#.O.N k.k.k.",
"k.k.k.M } -.6.*.V ] Z > 2 f 4 4 h 3 & & u _ r.i.t.` ` _ _ u.r.% o + _ _ _ ' y.d.u./ W 3 & & g Y 3 2 f 2 > C ] C ..@.#.O.N k.k.k.",
"k.k.k.N ] +.1.X.B D C > * i 2 3 P g & 4 s ~ / ` ` ` _ ` r.g.y.% o % ' r.' ` r.%.) ~ 9 & 3 & g Y 3 2 i 2 r V D C X.#.#.O.N k.k.k.",
"k.k.k.M } +.O.[ B Z N > = w * 4 P g & 8 q s J ~ / ~ ~ ` i.r._ % o # W r._ ~ ~ / J a $ & 9 $ 0 k 4 1 w 2 > N Z B [ X.#.X.N k.k.k.",
"k.k.k.N ..+.] F Z Z N > = d 4 3 I g $ 9 3 O @ j J j / ' r.5 K + o o = r.' / l 5 @ + & 3 9 & 3 p 4 4 i = > N Z B F D @.O.N k.k.k.",
"k.k.k.N | ..D S V S V : = i 2 * g 8 & 4 3 8 $ O $ * / ` t.R R # o + J t.` / &   & 3 3 3 3 @ 3 p 3 2 i = > B S B S D ..| N k.k.k.",
"k.k.m M S A A Z m B N : = w * ; q 3 $ 8 9 9 3 X O f / ) _ ` r.$ o % ! _ ) ) a & 3 9 8 3 3 & 3 g 4 % w * > B N N Z Z A D M M k.k.",
"k.k.M A D D D D Z S } y = 7 * ; e 3 $ 8 8 8 9 & 9 ) E ` / ' r.* o # ! / ' W _ G 8 3 8 8 3 $ 9 k 4 * 7 = y { { S D D D S S A N k.",
"k.k.B :.1.1.1.1.:.,.1.n % 6 % 1 h 0 @ & 3 1 3 & * 7 7 t.! / r.* o # W ! r.5 u u 3 3 3 3 ; @ g P 3 * 6 % n 2.<.1.1.1.1.1.1.>.C k.",
"k.k.B ..&.#.;.&.&.&.%.x # 2 * & z g @ 3 3 3 8 8 % X + U %._ r.% o # E r.R @ . 1 3 8 3 3 3 @ 8 k 3 % 2 % x | ..&.&.&.&.&.&.{ M k.",
"A 2.D A A Z S S A A S r % 2 % 1 p 8 @ ; 3 3 3 9 = = 6 r.r.' r.1 o # ~ r.r.2 & 4 8 3 3 ; * & 3 g 2 % 2 % , Z Z Z A A A A A A S k.",
"-.7.,.>.>.*.-.<.>.>.>.c * i 2 3 k 8 # & & * * 3 & & g r.5 E ) $ o @ l 8 ' e & 8 1 & & & & @ 3 g 3 2 i 2 c >.>.>.>.>.>.>.>.,.6.k.",
"*.%.=.:.>.<.<.1.<.<.<.b 2 i 2 3 I g @ & & & & & & & 8 G @ 9 I # O O * & z 8 & & $ $ & & & @ 0 z 3 2 d 1 v -.:.2.1.1.,.,.,.,.&.*.",
"O.B [ ..X.@.@.X.X.....x 1 i 6 3 I g O & 3 g & 3 3 3 & @ @ k I # o @ 9 & # = 8 & g k 8 @ $ + h I 3 2 d 2 t  . .X.+.X.X.X. . .V X.",
"O.B [ ........} } D S < * i 2 3 z g # e h 3 & & & & & & $ h Y # o @ 9 & & & * & 3 g z 0 ; @ g I 3 2 i % t D ] }  . .}  . .} B +.",
"+.B D D D ] ] A A Z C r % 6 % 1 e e g z 0 & & & & 3 9 @ & g Y # O @ 0 @ + 8 3 & & 3 g k I p g k 3 * 6 % r V A Z Z ] D D D D B +.",
">.} [ ] [ ] ] [ ] ] ] t # 2 % 1 0 z z g 8 # 8 = 3 3 g g g h Y # o + q g g g & * 3 & 9 g p p p 0 * * 2 % t ] ] ] ] ] } } ] ] | >.",
"9.6.1.6.6.6.6.6.6.6.1.b # 6 % 1 0 e g 0 & @ = * & & & k k k I # O + e k z = O & & & & 9 p 0 p q - * 2 # b 1.6.3.6.6.6.1.3.1.6.7.",
"-.>.>.-.#.;.#.#.-.O.%.x % * # 1 8 8 0 k z z n L k L k 9 8 g I $ O @ 4 9 g z n 0 k z L h u 0 0 5 1 # 2 # x %.+.-.-.#.-.-.*.&.O.#.",
"..O.@.@.#.#.O... .] ] x # # # - 1 1 1 3 3 9 3 9 3 4 3 3 1 4 j + o O 1 1 3 3 4 3 4 4 3 3 3 1 1 3 $ # % + x } } ..X.+.@.+.@.+. . .",
"....X.X.O.X... .] ] ] x > t t t < < < < t < < < y t t < t t t , , < < < < t y x t t t t t t t < t t t > x ] S ]  . .X...X.X... .",
"]  .] ] ] D ] D S A A m N A D ] S Z Z Z B N Z Z A A D Z A Z C A Z Z Z Z Z A Z Z A Z N B A A B A Z Z Z N b S A S D D ] D D ] | | ",
"Z B N N B B B B B B B B Z ] X.+.X. . . .D B S F | ..O. .| | |  . .|  . .| |  . .] ] B A ] |  . . .] S Z B B V C B B B B N B Z Z ",
"A D D ]  . . .....X. .....O.#.#.#.+.#.#.X.A [ X.#.>.>.>.>.>.>.-.@.;.>.,.>.>.>.#.X. .] ]  .X.@.@.+.X... .] D ] } ] | | ] | | | | ",
"] ..-.1.1.1.1.,.-.#.-.1.1.<.<.1.<.1.>.#...[ O.#.>.0.9.0.0.0.9.1.1.9.0.0.9.0.0.1.<.*.] ] X.-.1.1.<.<.1.>.*.*.X.X.O.O.X.X.X.X. .| ",
"..+.7.q.0.0.0.e.0.6.7.w.q.0.0.0.0.0.9.<...} #.-.6.9.9.0.9.0.0.0.0.0.0.0.e.e.e.e.w.6.X.X.-.9.0.0.0.w.e.0.w.e.8.9.9.6.6.6.6.#.+.+.",
"+.-.7.0.0.0.0.0.w.0.0.q.0.0.0.0.0.9.0.1.X...@.#.>.>.>.>.<.9.0.9.0.0.0.0.0.q.q.w.0.0.*.+.-.-.-.-.6.0.w.w.0.0.e.q.q.9.0.9.9.6.6.6."
};
