/* XPM */
static char *result[] = {
/* columns rows colors chars-per-pixel */
"64 64 106 2 ",
"   c #0C0F0B",
".  c #0D120B",
"X  c #14110F",
"o  c #151210",
"O  c #191614",
"+  c #161915",
"@  c #1B1916",
"#  c #1C1D1A",
"$  c #221E1C",
"%  c #1E221D",
"&  c #24211E",
"*  c #28221F",
"=  c #1C1E20",
"-  c #1F2325",
";  c #1E262E",
":  c #1D2730",
">  c #1F2A33",
",  c #242422",
"<  c #2A2522",
"1  c #252A24",
"2  c #2A2B26",
"3  c #2C2C2B",
"4  c #312A26",
"5  c #352E2A",
"6  c #2D332C",
"7  c #32352E",
"8  c #39312E",
"9  c #31382F",
"0  c #202B36",
"q  c #212D39",
"w  c #22313E",
"e  c #343532",
"r  c #3D3532",
"t  c #363B33",
"y  c #3B3C36",
"u  c #3B3C3B",
"i  c #403734",
"p  c #413835",
"a  c #403E3E",
"s  c #374034",
"d  c #3E423D",
"f  c #3E4A3C",
"g  c #414E3F",
"h  c #243543",
"j  c #273B4E",
"k  c #293D4D",
"l  c #2A3F52",
"z  c #2A4257",
"x  c #2C455D",
"c  c #2D4760",
"v  c #2E4B64",
"b  c #2F4E69",
"n  c #304D67",
"m  c #304F6A",
"M  c #31526E",
"N  c #325573",
"B  c #345877",
"V  c #345B7B",
"C  c #395F7E",
"Z  c #444544",
"A  c #474947",
"S  c #4B4B4B",
"D  c #535453",
"F  c #5C5B5B",
"G  c #5F615F",
"H  c gray39",
"J  c gray45",
"K  c #365F81",
"L  c #366185",
"P  c #396283",
"I  c #376589",
"U  c #38668B",
"Y  c #3A698E",
"T  c #3A6C93",
"R  c #3B6F98",
"E  c #3E7097",
"W  c #3C719B",
"Q  c #3D76A2",
"!  c #3E79A6",
"~  c #3E7BA9",
"^  c #406D8F",
"/  c #437295",
"(  c #41759C",
")  c #457CA5",
"_  c #487DA4",
"`  c #427DAB",
"'  c #4481AE",
"]  c #4982AC",
"[  c #4684B1",
"{  c #4A86B3",
"}  c #4B89B6",
"|  c #4C8CBA",
" . c #508CB6",
".. c #518EBB",
"X. c #4F90BE",
"o. c #5090BE",
"O. c #5394C2",
"+. c #5698C6",
"@. c #5B9AC5",
"#. c #579AC8",
"$. c #5A9DCA",
"%. c #5FA1CD",
"&. c #62A3CE",
"*. c #65A7D1",
"=. c #818181",
"-. c None",
/* pixels */
"-.-.-.-.-.-.-.-.-.-.-.-.-.-.-.-.-.-.-.-.-.-.-.-.-.-.-.-.-.b v c b v v -.-.-.-.-.-.-.-.-.-.-.-.-.-.-.-.-.-.-.-.-.-.-.-.-.-.-.-.-.",
"-.-.-.-.-.-.-.-.-.-.-.-.-.-.-.-.-.-.-.-.-.-.-.-.-.x v b B R Y b Y R R B b v x -.-.-.-.-.-.-.-.-.-.-.-.-.-.-.-.-.-.-.-.-.-.-.-.-.",
"-.-.-.-.-.-.-.-.-.-.-.-.-.-.-.-.-.-.-.-.-.-.b B N N V Q Q ~ ( M ~ ~ ~ ! Q V N N B b -.-.-.-.-.-.-.-.-.-.-.-.-.-.-.-.-.-.-.-.-.-.",
"-.-.-.-.-.-.-.-.-.-.-.-.-.-.-.-.-.-.-.-.c b Y ~ ~ ! ~ ` } } ] N ..| | } ` ! ~ ~ ! Y b c -.-.-.-.-.-.-.-.-.-.-.-.-.-.-.-.-.-.-.-.",
"-.-.-.-.-.-.-.-.-.-.-.-.-.-.-.-.-.-.v c M R ` ` | | } } ` ]  .M ( ) _ ) } | | | ` ` R M c v -.-.-.-.-.-.-.-.-.-.-.-.-.-.-.-.-.-.",
"-.-.-.-.-.-.-.-.-.-.-.-.-.-.-.x v b K K K | O.` ( ( ) E U Y T n n L U U E ( ( ) { ..} K ^ T b m x -.-.-.-.-.-.-.-.-.-.-.-.-.-.-.",
"-.-.-.-.-.-.-.-.-.-.-.-.-.-.M N I ( ` ( ^ ) ^ T Y U I L B B B C v N V V L I Y Y T ^ _ ^ ]  .Q K N N -.-.-.-.-.-.-.-.-.-.-.-.-.-.",
"-.-.-.-.-.-.-.-.-.-.-.-.x N T ! ` ` | ` / N K K L K N N N N V N v N N N N N K K K V N / { } ` ! ~ T N x -.-.-.-.-.-.-.-.-.-.-.-.",
"-.-.-.-.-.-.-.-.-.-.-.c V Q ~ [ O.` ( U U B m M N B B V N b v c x v v N N N N N m m B U U ( ` | } ~ W V v -.-.-.-.-.-.-.-.-.-.-.",
"-.-.-.-.-.-.-.-.-.x v L ! ~ } ' ( / K K B N M b b N l l l j ; - - ; l z x x M m m N N B K K / ) ' } ~ Q L v x -.-.-.-.-.-.-.-.-.",
"-.-.-.-.-.-.-.-.-.M Y ~ ` } ) Y K K B N v j j j j h = = = = $ * $ $ # = # = h j j l l c V B K K Y ) } ' ! Y M -.-.-.-.-.-.-.-.-.",
"-.-.-.-.-.-.-.-.c T ~ [ } ( Y K B N N x 0 $ = $ $ = < < < < < 4 5 < < < < < $ $ # # $ 0 l N V B K T ( } [ ~ Y v -.-.-.-.-.-.-.-.",
"-.-.-.-.-.-.-.c ^ ` } ] E I V V M l h - $ 4 4 5 8 4 < 5 r r r r r r i 8 5 4 < 8 4 4 4 $ - q l M B K L R ] } ` U c -.-.-.-.-.-.-.",
"-.-.-.-.-.-.b v B ) ) I I V N n h , $ < 5 5 8 8 i 5 < 5 $ $ $ $ $ $ $ $ 5 * 8 i 8 8 8 4 4 * = h b N V L U Q T B b b -.-.-.-.-.-.",
"-.-.-.-.-.N R W C N L Y V N c q * 5 5 < 5 8 8 4 $ O O O X X X X X X X o O O O O 4 8 8 5 < 5 8 * 0 x N K U K M P W T N -.-.-.-.-.",
"-.-.-.-.v T ` } ] P B K V l 0 $ 4 8 4 $ $ X X X X X X X o o o o X X X o O X X X o O X @ $ 5 8 4 $ 0 z V K N P { { ~ T v -.-.-.-.",
"-.-.-.v L R ~ O.) K N b j - $ 5 8 5 @ o o o o o o o o o o o o X o o X o o o o o o o o o o @ 5 r 4 * , j v N P ( O.~ Q L v -.-.-.",
"-.-.-.v R T } ) T V N c ; & 5 r 4 O o o o o o o o o X o o o o o o o o o o o o o o o o o o o @ < 8 5 $ ; v N V T ) | ~ W v -.-.-.",
"-.-.-.v I T o.( Y B v q + < r < O o o o o o o o o o o o o o o o o o o o o o o o o o o o o o o O < r < @ q b V L T O.` W v -.-.-.",
"+.^ V v V V  .( V N v : @ < 4 $ X X o X o o o o o o X o o X o o o o o o o o o o o o o o o o < 1 $ 5 < @ : v N B ( O.) Y v V ^ +.",
"/ ] { U M B  .( P N v : < 8 * 3 1 o + O o o o o o o o o o X o o X o o o o o o o o o o o @ o 3 u 3 < 8 < ; v V L ( O.W N Y { ) / ",
"v U _ { B N  .( P V v : < p * % , % % # o o o o X o o o o o o o o o o o o o o o o o o @ % + . - 3 e p < : v N P ) ..K N { ) U v ",
"v U L U V M _ ^ N M x ; * 8 & O S A + % @ o o o o o o o o o o o o o o X o o o o o o o @ % % @ @ 2 e 8 * : v M N Y _ b K Y L Y v ",
"x v N M V V V V B V n 0 * i < O D S O - @ o o o o o o o o o o o o o o o o o o o o o o # , 2 7 * 6 y 8 < : v n n N N B V B V V v ",
"-.v L Y T T Y Y Y U M : * 8 & O S D 1 # # X o o o o o o o o o o o o o o o o o X o o o # - o e k 2 t 8 * : v N B K P Y R R T L -.",
"-.v M M M n v v v b c ; $ 4 $ O d F u . o o o o o o X o X o o o o X o o o o o o o o o o . 6 t - 2 8 4 $ : c v b v v b m N b v -.",
"-.-.-.x M M N M v m v : @ 4 & o + u S , X o o o o o o o o o o o o o o X X o o o o o o o 3 S e o 1 t < $ : n b v N N N N x -.-.-.",
"-.-.-.v V V N N v M v : $ 2 $ O   e A 6 < O o o o o o o o o o o o o o o o o o o o o o 5 D F Z = 1 9 4 $ : v M v N V K K v -.-.-.",
"-.-.-.v L Y L P b M v : & < @ X e F Z 5 4 $ O o o o o o o o o o X o o o o o o o o o # Z F F F e & 9 2 $ : v M b P U R ( v -.-.-.",
"-.-.-.v T T Y ] V B M : < 8 & O H / g i 3 < $ o o o o o o o o o o o o o o o X o o o , u S F F e 1 t 8 < : M B M Y T )  .M -.-.-.",
"-.-.-.v W Q T ..C V M ; < p < @ F J D p < < = X o o X o o o X o o o o o o o o o o o = 3 A F u % 2 s p * ; b V M U T [  .n -.-.-.",
"-.-.-.v W ! W o.C M v : $ 8 < @ i D F g 3 - = X o o o o o o o o o o o X o o o o o $ , 3 A F t @ 1 r 8 $ ; b M M Q W ' ] n -.-.-.",
"-.-.-.v T ! ~ } B M v 0 < r < + o e F S 3 , $ o o o o o o o o o o o o o o o o o o $ 3 3 Z F e X - e r & ; v M N Q ~ ~ W v -.-.-.",
"-.-.-.v L Q W Q N M v : $ 5 & r S S S e 3 3 $ o o o o o o o o o o o o o o o o o o $ 3 3 e D e r Z 5 5 $ ; b M N Q W ~ W v -.-.-.",
"-.-.-.v U Q R W N M v : & 5 $ u H S e 3 3 3 $ o o o X o o o X o o o X o o o X o X = 3 3 3 Z 5 p S 5 5 & : v M N Q T ~ R v -.-.-.",
"-.-.-.v L Q W W M M v : < r < r F Z 3 , , = # o o o o o o o o o o o o o o o o o X @ 3 3 ; 3 3 h A t r < : v M N W W ~ W v -.-.-.",
"-.-.-.v L Q { R n N m : & 5 $ 3 D Z =   o @ o o o o o o o o o o o X o o o o o o o o $ O X = Z D d t 5 & ; n N m T ~ ~ W b -.-.-.",
"-.-.-.v I Q O.W M V M : < 8 & & Z Z 1 , @ X o o o X o o o o o o o o o o o o o o o o $ * , 1 Z Z 7 9 8 < ; N V M T ~ ~ W v -.-.-.",
"-.-.-.v I ) O.( b V N ; 2 p * % Z D k 8 , X o o o o o o o o o X o o o o o o o X o o - 3 6 Z D u 6 s p < ; N V b T ! ~ W v -.-.-.",
"-.-.-.v I ~ | E M V m ; * r * % Z F Z 5 , @ X o o o o o o o o o o o o o o o o o o $ - 2 Z F t % 9 y i * ; b B M T ~ ~ W v -.-.-.",
"-.-.-.v L Q W L m M v : * 8 * % e S A 4 5 , X X o o o o o X o o o o o o o o o o X $ $ 3 A F e # 7 y 8 < : v M b L R ~ W v -.-.-.",
"-.-.-.v T Q P V m M v : * r * % 1 y D k 5 1 X X o o o o o o o o o o o o o o o o o o $ 3 Z g 1 , 9 s r * : v M b V K ~ W v -.-.-.",
"-.-.-.v U T V B m N m - * i * & 1 & 6 e 3 , o o o o o o o o o o o o o o o X o o X X - Z D 6 % - 6 y 8 * : m B b B V T U v -.-.-.",
"-.-.x c B N N M v v v 0 * 7 & & 1 + 3 Z 3 , o o o o o X o o o o o o o o o o o o X X & S G 6 % 6 7 9 8 < : v v v N M N B c x -.-.",
"-.-.v N V V V V M V I q * 5 $ % & o 4 k 3 < o o o o o o X O o o o o o o o o o o X o * S S 8 6 1 6 9 5 * w P P B V V V V B N v -.",
"-.-.n ] | | | | ] { | z $ 4 $ + % % O , e - o X o o o o X X o o o o o o o o o o o o < k $ # 2 % 6 7 4 $ z ..} | } | | } | [ M -.",
"-.-.v T W ` ' ( / ( ( w $ * & O % % o @ , O o o o o o o X o o o o o o o o o o o o o , 3 @ % 3 1 6 8 < $ w U T ( ( ( ( ( ( P v -.",
"N  .V N N N B N B M B 0 & * @ % % % @ # - o o o o o o X o o o o o o o o o o o o o o & 3 @ # 1 - 6 7 * $ 0 M M N N N N N N M B -.",
"` +.{ [ [ ) ' { [ { [ j & r < @ % % % + # X o o o o o o o o o o o o o o o o o o o o o % % % % % 2 s r * j ] [ [ [ { { [ [ } O.-.",
") / _ ] ' } } } } } | j , i < & % % % % + X o o o o o X o o o o o o o o o o o o o o o + % % % % 2 s i * j ] ] | | } } } [ { ( ! ",
"W b L T W Q ! W R T T h * y < , 2 % % % @ X X o o o o o o X o o o o o X o o X o o o o + % % % % < g i * w U Y R Q T R T Y Y b W ",
"W b L T T T T I U K B > & 8 < @ - % % % % X X X o o o o o o o o o o o o o o o o o o . + % % s s 6 s 8 * q V V I Y U Y Y Y I b W ",
"Q b V V K V K N M m M 0 $ 4 $ * 1 % % % # o o o o o o o o o o o o X o o o o o o o o o # % % 6 f f 7 4 $ 0 n M M N V V V V B b Q ",
"{ I K K L L L L P P P q @ 4 $ 1 6 - % + # o o o o o o o o o o o o o o o o o o o o o X # + % 6 s 7 3 < O w C L L L I L L L L I [ ",
"#.O.| O.O.O.O.O.| O...z $ < $ % - % + @ @ o o o o X o o o X o o o o o o o o X o o o o @ % % - 2 6 6 2 $ k ..| O.| O.| X.o.o.| #.",
"` [ ` [ ~ ~ ~ ~ ` W / w @ & @ * 1 = o o o o o o o o o o o o o o o o o o o o o o o o X O o & s t 6 < * @ h ( ( ` ` ' ' ` ) W ( ` ",
"Y Q ! ! ~ ~ Q T T I I h O # @ , , o O o o o o o X X X X X X X o X X o o o X X X X X X X X X O O # , @ @ h U I T T Q Q Q ! Q T Y ",
"Y T R R R R T Y P V K h ; > q > > > q q q > > > 0 0 q > q > q > 0 0 > > 0 0 0 0 > q q q 0 q 0 0 q q q : h V B L U T W T W W T U ",
"U U K V K V V V N N N x c N B K V M M M b v M M M N V M M N N M M N M N m N N M N b c b M N m N N m M c z N N N V V V V V V I I ",
"m b v b b b b b b b b v N I W Q R Y Y T K b N K U T Q U U U U Y Y U U U U U U Y U K b N K Y Y Y Y K B N b v b n b b b b b b b N ",
"N B V Y T T Y T T T Y T T W ~ ~ ~ ! ! ~ T V K W ` [ [ [ [ [ ` ! ! ' [ [ [ [ [ ~ R Y K K Y R ! ! W T T T L V V Y I I I Y Y I U I ",
"K T ` } | } } } ~ ~ [ } } } } } } } ` ~ T K Q ~ ` $.$.$.$.$.#.| } $.$.$.$.$.$.| } ) K K R ` } } } | } } ) ) R E R R R W R R Y Y ",
"Y ) O.$.$.$.$.*.$.O.#.*.%.$.$.$.$.$.+.[ T U ~ ` O.$.$.$.$.$.$.$.$.$.$.$.*.*.*.*.%.O.R T [ O.$.$.#.*.*.$.&.&.@.@.@.O.O.| | ` Q Q ",
"Q ` $.$.$.$.$.$.%.$.$.%.$.$.$.$.$.$.$.O.R T ~ ~ ` [ [ ` } $.$.$.$.$.$.$.%.$.&.%.$.$.) Q ` [ [ [ | $.%.*.$.%.&.&.$.$.$.$.$.O.O.O."
};
