/* XPM */
static char *result[] = {
/* columns rows colors chars-per-pixel */
"64 64 148 2 ",
"   c #02030C",
".  c #0F0717",
"X  c #070810",
"o  c #0B0C14",
"O  c #130410",
"+  c #130A15",
"@  c #190F1C",
"#  c #0F1019",
"$  c #11121B",
"%  c #1E151E",
"&  c #240C1D",
"*  c #2B0E1B",
"=  c #24131C",
"-  c #2D101D",
";  c #32131F",
":  c #1F0D22",
">  c #1C1D25",
",  c #210E22",
"<  c #251124",
"1  c #2C1322",
"2  c #261429",
"3  c #28162A",
"4  c #2B1A2E",
"5  c #311522",
"6  c #361925",
"7  c #3A1B26",
"8  c #331C2C",
"9  c #3A1E2B",
"0  c #2E1D30",
"q  c #3C212D",
"w  c #282930",
"e  c #362538",
"r  c #37383F",
"t  c #451F27",
"y  c #45222B",
"u  c #4C272E",
"i  c #4E282F",
"p  c #50292F",
"a  c #422935",
"s  c #4E2A31",
"d  c #482F3B",
"f  c #532C31",
"g  c #592F33",
"h  c #563132",
"j  c #5C3234",
"k  c #553239",
"l  c #58363C",
"z  c #623536",
"x  c #673938",
"c  c #6C3C3A",
"v  c #703F3B",
"b  c #6D4138",
"n  c #75423D",
"m  c #7B463F",
"M  c #3F3042",
"N  c #5B3A40",
"B  c #4E3F50",
"V  c #603F46",
"C  c #4A4B51",
"Z  c #7D4740",
"A  c #7E4840",
"S  c #614C56",
"D  c #6B4D53",
"F  c #76595F",
"G  c #5F5261",
"H  c #5F5F65",
"J  c #655968",
"K  c #715E67",
"L  c #785C61",
"P  c #736773",
"I  c #756B78",
"U  c #75757A",
"Y  c #834E43",
"T  c #865144",
"R  c #8B5546",
"E  c #8C5947",
"W  c #8F5E49",
"Q  c #925D4A",
"!  c #95604B",
"~  c #9A644C",
"^  c #9E694F",
"/  c #9F6C50",
"(  c #906158",
")  c #A26C4F",
"_  c #A26C51",
"`  c #A67153",
"'  c #AB7555",
"]  c #AE7856",
"[  c #AB7658",
"{  c #AF7B59",
"}  c #B07A57",
"|  c #B07C5B",
" . c #846A6F",
".. c #816D74",
"X. c #82727A",
"o. c #8B7479",
"O. c #88787F",
"+. c #B38161",
"@. c #B78769",
"#. c #B7886A",
"$. c #BB8E72",
"%. c #C2987E",
"&. c #7D7D82",
"*. c #847B86",
"=. c #85868A",
"-. c #998286",
";. c #95868D",
":. c #968C94",
">. c #A29397",
",. c #A99DA3",
"<. c #A3A3A6",
"1. c #AEA5AB",
"2. c #B6ADB1",
"3. c #BBB2B6",
"4. c #B7B7BA",
"5. c #BEB5B9",
"6. c #CCA78F",
"7. c #C0B3B6",
"8. c #C2B6B8",
"9. c #C3B9BC",
"0. c #C2BBC0",
"q. c #CABEC1",
"w. c #CAC2C5",
"e. c #CDC7CA",
"r. c #CCCDCE",
"t. c #D3CCCE",
"y. c #D2CFD3",
"u. c #D3D1D3",
"i. c #DAD3D5",
"p. c #DDD7D9",
"a. c #DADBDC",
"s. c #EADDD5",
"d. c #E1DDDF",
"f. c #EDE2DA",
"g. c #E4DFE0",
"h. c #E5E3E4",
"j. c #EEECEC",
"k. c #F2E9E3",
"l. c #F0ECED",
"z. c #F7F1EF",
"x. c #EFEFF0",
"c. c #F0EEF0",
"v. c #F3F2F3",
"b. c #FAF7F6",
"n. c #FBF9F7",
"m. c #F7F7F8",
"M. c #F8F7F8",
"N. c #FFFFFF",
/* pixels */
"N.N.N.N.N.N.N.N.N.N.N.N.N.N.N.N.N.N.N.N.N.N.N.N.N.N.N.N.N.N.N.N.N.N.N.N.N.N.N.N.N.N.N.N.N.N.N.N.N.N.N.N.N.N.N.N.N.N.N.N.N.N.N.N.",
"N.N.N.N.N.N.N.N.N.N.N.N.N.N.N.N.N.N.N.N.N.N.N.N.N.N.N.N.N.N.N.N.N.N.N.N.N.N.N.N.N.N.N.N.N.N.N.N.N.N.N.N.N.N.N.N.N.N.N.N.N.N.N.N.",
"N.N.N.N.N.N.N.N.N.N.N.N.N.N.N.N.N.N.N.N.N.N.N.N.N.N.N.N.N.N.N.N.N.N.N.N.N.N.N.N.N.N.N.N.N.N.N.N.N.N.N.N.N.N.N.N.N.N.N.N.N.N.N.N.",
"N.N.N.N.N.N.N.N.N.N.N.N.N.N.N.N.N.N.N.N.N.N.N.N.N.N.N.N.N.N.N.N.N.N.N.N.N.N.N.N.N.N.N.N.N.N.N.N.N.N.N.N.N.N.N.N.N.N.N.N.N.N.N.N.",
"N.N.N.N.N.N.N.N.N.N.N.N.N.N.N.N.N.N.N.N.N.N.N.N.N.N.N.N.N.N.N.N.N.N.N.N.N.N.N.N.N.N.N.N.N.N.N.N.N.N.N.N.N.N.N.N.N.N.N.N.N.N.N.N.",
"N.N.N.N.N.N.N.N.N.N.N.N.N.N.N.N.N.N.N.N.N.N.N.N.N.N.N.N.N.N.N.N.N.N.N.N.N.N.N.N.N.N.N.N.N.N.N.N.N.N.N.N.N.N.N.N.N.N.N.N.N.N.N.N.",
"N.N.N.N.N.N.N.N.N.N.N.N.N.N.N.N.N.N.N.N.N.N.N.N.N.N.N.N.N.N.N.N.N.N.N.N.N.N.N.N.N.N.N.N.N.N.N.N.N.N.N.N.N.N.N.N.N.N.N.N.N.N.N.N.",
"N.N.N.N.N.N.N.N.N.N.N.N.N.N.N.N.N.N.N.N.N.N.N.N.N.N.N.N.N.N.N.N.N.N.N.N.N.N.N.N.N.N.N.N.N.N.N.N.N.N.N.N.N.N.N.N.N.N.N.N.N.N.N.N.",
"N.N.N.N.N.N.N.N.N.N.N.N.N.N.N.N.N.N.N.N.N.N.N.N.N.N.N.N.N.N.N.N.N.N.N.N.N.N.N.N.N.N.N.N.N.N.N.N.N.N.N.N.N.N.N.N.N.N.N.N.N.N.N.N.",
"N.N.N.N.N.N.N.N.N.N.N.N.N.N.N.N.N.N.N.N.N.N.N.N.N.N.N.N.N.N.N.N.N.N.N.N.N.N.N.N.N.N.N.N.N.N.N.N.N.N.N.N.N.N.N.N.N.N.N.N.N.N.N.N.",
"N.N.N.N.N.N.N.N.N.N.N.N.N.N.N.N.N.N.N.N.N.N.N.N.N.N.N.N.N.N.N.N.N.N.N.N.N.N.N.N.N.N.N.N.N.N.N.N.N.N.N.N.N.N.N.N.N.N.N.N.N.N.N.N.",
"N.N.N.N.N.N.N.N.N.N.N.N.N.N.N.N.N.N.N.N.N.N.N.N.N.N.N.N.N.N.N.N.N.N.N.N.N.N.N.N.N.N.N.N.N.N.N.N.N.N.N.N.N.N.N.N.N.N.N.N.N.N.N.N.",
"N.N.N.N.N.N.N.N.N.N.N.N.N.N.N.N.N.N.N.N.N.N.N.N.N.N.N.N.N.N.N.N.N.N.N.N.N.N.N.N.N.N.N.N.N.N.N.N.N.N.N.N.N.N.N.N.N.N.N.N.N.N.N.N.",
"N.N.N.N.N.N.N.N.N.N.N.N.N.N.N.N.N.N.N.N.N.N.N.N.N.N.N.N.N.N.N.N.N.N.N.N.N.N.N.N.N.N.N.N.N.N.N.N.N.N.N.N.N.N.N.N.N.N.N.N.N.N.N.N.",
"N.N.N.N.N.N.N.N.N.N.N.N.N.N.N.N.N.N.N.N.N.N.N.N.N.N.N.N.N.N.N.N.N.N.N.N.N.N.N.N.N.N.N.N.N.N.N.N.N.N.N.N.N.N.N.N.N.N.N.N.N.N.N.N.",
"N.N.N.N.N.N.N.N.N.N.N.N.N.N.N.N.N.N.N.N.N.N.N.N.N.N.N.N.N.N.N.N.N.N.N.N.N.N.N.N.N.N.N.N.N.N.N.N.N.N.N.N.N.N.N.N.N.N.N.N.N.N.N.N.",
"N.N.N.N.N.N.N.N.N.N.N.N.N.N.N.N.N.N.N.N.N.N.N.N.N.N.N.N.N.N.N.N.N.N.N.N.N.N.N.N.N.N.N.N.N.N.N.N.N.N.N.N.N.N.N.N.N.N.N.N.N.N.N.N.",
"N.N.N.N.N.N.N.N.N.N.N.N.N.N.N.N.N.N.N.N.N.N.N.N.N.N.N.N.N.N.N.N.N.N.N.N.N.N.N.N.N.8.7.7.7.7.7.7.7.7.9.N.N.N.N.N.N.N.N.N.N.N.N.N.",
"N.N.N.N.N.N.N.N.N.N.N.N.N.N.N.N.N.N.N.N.N.N.N.N.N.N.N.N.N.N.N.N.N.N.N.N.s.s.s.s.q.f u t t t u t t y f q.t.N.N.N.N.N.N.N.N.N.N.N.",
"N.N.N.N.N.N.N.N.N.N.k.k.k.k.k.k.k.k.f.k.N.N.N.N.N.N.N.N.N.N.N.k.k.k.k.f.| ] ' ~ u u u u u u u u u u u u f i.N.N.N.N.N.N.N.N.N.N.",
"N.N.N.N.N.N.N.N.N.k.+.{ [ ] [ { | [ ' +.k.z.N.N.N.N.N.z.z.z.k.| { { ' { ] ` ' f u u u u u u u u p f p u u l d.j.N.N.N.N.N.N.N.N.",
"N.N.N.N.N.N.N.n.z.#.] ' Y m Y ` ` Y Y ' +.#.z.n.N.N.z.@.| @.| ' ' ' Y ' ` j ^ f u u s u u i u f n n n p u u g S j.N.N.N.N.N.N.N.",
"N.N.N.N.N.N.b.$.( ` T T _ A ^ u j _ ` } ] ] #.$.b.b.$.] } ] T Y T ` A A h p h p u u u u u u p n m n f u u u u u D v.N.N.N.N.N.N.",
"N.N.N.N.N.n.%.] / T m m T A ` 7 u ' ] ] ] ] ] ] $.%.] ] ] ] ` ) A Y m m s u u u u u u u i v v n g g v n n n u u u F M.N.N.N.N.N.",
"N.N.N.N.6.6.R T R m m Y m m h y ! ] ] ] ] ] ' ] ' ' ' R R R R ' _ m h g u u i u u u u c v m m m v v m m j g i u u u  .M.N.N.N.N.",
"N.N.-...j b j m m q q y n m y E { ' W ] ] ] } ] } } } ~ m m m E E j u u u u u u u u i m A n z z m m m m i u u u u u f M.N.N.N.N.",
"m.&.= O - u u z n f i i m m c ! ! ' ! Q ' } | ' Q Q Q ' A m m m n p z z f u u u u u u z m m z u z n m z i u u z u u f >.M.N.N.N.",
"c.@   + ; y u u m c b m m m m m m ' } m ~ ~ ~ ' Q m m ~ A m m m m z m c u u u p j z z z m m m z z m n z j z z x i u u f M.N.N.N.",
"v.q + 1 5 5 y u x u j m m m m m E ' ^ m m m R ' ) m m m m m m A m A n i u u u f m A A m m A m A m m m A m A m g u u u k 9.M.N.N.",
"v.q , 5 5 5 5 u u u m m m m m m _ ) A A m Z _ ' A m m m m A m m m m m g u u u u v v m m m v v m m m v v v Y m m g u u u g m.N.N.",
"v.q , 5 5 5 5 u u f m n m m m m m m m m m m A _ m m m m m m m m m m n n f u u u p p m m m f p n m m g p i v v n n i u u k p.N.N.",
"v.9 , 1 1 5 5 u p n n p m m m m m m m m m m m A m m m A m m A m m m f n n u u f n g n m A n p p m m m n f i i i i u u u u N v.N.",
"v.a , < , 5 5 5 u u p p n m m m m m m m m m m m m A m m m m m m m m p f i u u p n m m m m m n m m m m m n f u u u u u u u k l.N.",
"N.u.q 1 1 5 5 5 5 6 u u f m f f m m m m m Z m m m m m m m m Z m m m n v i u u u f m m m m m m m m m Z m Z v u u u u 7 5 u u D v.",
"N.N.w.6 - - - - - - ; 7 7 f s c m m m m m m Z m m m m A A m m m m m g g i u i v v m m m m m j m m m m h m m v u u u u 5 7 u a c.",
"N.N.N.9.5.5.5.5.5.8.2.5 * ; 7 j j m z m m Z m m m m m m m m Z m m m c u u u u j Z j h m m m u j Z m m c j m Z f u u u y 5 7 q v.",
"N.N.N.N.N.N.N.N.N.N.N.1.,.>.5 7 u j i m z m Z m A n m m m Z m m m Z m i u u u u j u x m m m x u z n m m p z j u u 7 7 u 5 5 6 c.",
"N.N.N.N.N.N.N.N.N.N.N.N.N.N.;.5 t u i z z m x m m Y m m m m m m m x m z z u u p z x m m m m m x z m m n u u u u u 5 5 7 5 5 ;.M.",
"N.N.N.N.N.N.N.N.N.N.N.N.N.N.N.O.o.u u i m x i m m c m m m m A m n p x c m i u i c m m m m m m A Y m A m z u y t u 5 5 ; 1 X.N.N.",
"N.N.N.N.N.N.N.N.N.N.N.N.N.N.N.N.n. .u u c i g n c i m m m m v m Z g u u c u u u u c m m c n m c c n v m n g 7 5 y 7 5 5 K N.N.N.",
"N.N.N.N.N.N.N.N.N.N.N.N.N.N.N.N.N.M.L D u p n m i f m m m n p v v n p i y y 6 y u u n n p p n f p c p v m m g 5 5 y 6 S b.N.N.N.",
"N.N.N.N.N.N.N.N.N.N.N.N.N.N.N.N.N.N.N.c.D p n n f v Z n n m f u f v u u 5 5 5 5 u u u n u p m m s u u f n n v 6 5 5 q c.N.N.N.N.",
"N.N.N.N.N.N.N.N.N.N.N.N.N.N.N.N.N.N.N.N.j.V s u u f n f f n v i u i u 5 5 5 5 5 u u u u u p n m i u u u u i u 5 5 5 d v.N.N.N.N.",
"N.N.N.N.N.N.N.N.N.N.N.N.N.N.N.N.N.N.N.N.N.g.k u u i n i u f p u 6 5 5 5 5 6 8 6 7 u u 6 u u p n i u u u u u u 5 5 a d.N.N.N.N.N.",
"N.N.N.N.N.N.N.N.N.N.N.N.N.N.N.N.N.N.N.N.N.m.% + u i f i u u 6 7 ; 5 1 5 9 t.p.p.t.q 6 5 6 u u p 7 u u 6 u u 6 5 7 u.N.N.N.N.N.N.",
"N.N.N.N.N.N.N.N.N.N.N.N.N.N.N.N.N.N.N.N.M.C     + 1 u u u 7 5 9 9.q.w.w.e.N.N.N.N.0.6 * * 5 ; 6 5 u u 5 7 u 5 5 6 J M.N.N.N.N.N.",
"N.N.N.N.N.N.N.N.N.N.N.N.N.N.N.N.N.N.N.N.H           , 5 u 5 1 0 M.N.N.N.N.N.N.N.N.N.3.2.2.2.1.5 * 7 u t 5 7 5 5 5 1 P N.N.N.N.N.",
"N.N.N.N.N.N.N.N.N.N.N.N.N.N.N.N.N.N.m.U         X =.:.2 u 7 5 4 v.N.N.N.N.N.N.N.N.N.N.N.N.N.N.,.:.= = 8 < * 5 5 5 1 : *.M.N.N.N.",
"N.N.N.N.N.N.N.N.N.N.N.N.N.N.N.N.N.N.m.X         X m.M.3 u u 5 0 v.N.N.N.N.N.N.N.N.N.N.N.N.N.N.N.M.$   . $ X.< & 1 5 < 2 M.N.N.N.",
"N.N.N.N.N.N.N.N.N.N.N.N.N.N.N.N.N.N.<.o         H m.M.P q u 1 0 M.N.N.N.N.N.N.N.N.N.N.N.N.N.N.N.v.$     # x.I J : 1 5 3 1.N.N.N.",
"N.N.N.N.N.N.N.N.N.N.N.N.N.N.N.N.N.4.X         C M.N.N.m.4 9 , 3 0.n.N.N.N.N.N.N.N.N.N.N.N.N.N.N.m.$     o v.N.M.G < < : 2 v.N.N.",
"N.N.N.N.N.N.N.N.N.N.N.N.N.N.N.N.v.#         r v.N.N.N.m.B : : : 0 v.N.N.N.N.N.N.N.N.N.N.N.N.N.N.e.o     M v.N.N.v.4 : : 4 v.N.N.",
"N.N.N.N.N.N.N.N.N.N.N.N.N.N.N.N.a.#     > w j.N.N.N.N.N.c.M , : 4 v.N.N.N.N.N.N.N.N.N.N.N.N.N.a.$     o j.N.N.N.v.M : : 4 v.N.N.",
"N.N.N.N.N.N.N.N.N.N.N.N.N.N.N.v.>     # d.v.N.N.N.N.N.N.N.h.4 : 4 v.N.N.N.N.N.N.N.N.N.N.N.N.v.>       > v.N.N.N.N.h.e 3 e v.N.N.",
"N.N.N.N.N.N.N.N.N.N.N.N.N.N.N.v.$ X X $ v.N.N.N.N.N.N.N.N.v.0 , 0 v.N.N.N.N.N.N.N.N.N.N.N.N.v.$   X $ a.N.N.N.N.N.N.h.h.h.N.N.N.",
"N.N.N.N.N.N.N.N.N.N.N.N.N.N.N.M.u.r.r.r.n.N.N.N.N.N.N.N.N.N.u.y.u.n.N.N.N.N.N.N.N.N.N.N.N.N.M.u.r.r.r.N.N.N.N.N.N.N.N.N.N.N.N.N.",
"N.N.N.N.N.N.N.N.N.N.N.N.N.N.N.N.N.N.N.N.N.N.N.N.N.N.N.N.N.N.N.N.N.N.N.N.N.N.N.N.N.N.N.N.N.N.N.N.N.N.N.N.N.N.N.N.N.N.N.N.N.N.N.N.",
"N.N.N.N.N.N.N.N.N.N.N.N.N.N.N.N.N.N.N.N.N.N.N.N.N.N.N.N.N.N.N.N.N.N.N.N.N.N.N.N.N.N.N.N.N.N.N.N.N.N.N.N.N.N.N.N.N.N.N.N.N.N.N.N.",
"N.N.N.N.N.N.N.N.N.N.N.N.N.N.N.N.N.N.N.N.N.N.N.N.N.N.N.N.N.N.N.N.N.N.N.N.N.N.N.N.N.N.N.N.N.N.N.N.N.N.N.N.N.N.N.N.N.N.N.N.N.N.N.N.",
"N.N.N.N.N.N.N.N.N.N.N.N.N.N.N.N.N.N.N.N.N.N.N.N.N.N.N.N.N.N.N.N.N.N.N.N.N.N.N.N.N.N.N.N.N.N.N.N.N.N.N.N.N.N.N.N.N.N.N.N.N.N.N.N.",
"N.N.N.N.N.N.N.N.N.N.N.N.N.N.N.N.N.N.N.N.N.N.N.N.N.N.N.N.N.N.N.N.N.N.N.N.N.N.N.N.N.N.N.N.N.N.N.N.N.N.N.N.N.N.N.N.N.N.N.N.N.N.N.N.",
"N.N.N.N.N.N.N.N.N.N.N.N.N.N.N.N.N.N.N.N.N.N.N.N.N.N.N.N.N.N.N.N.N.N.N.N.N.N.N.N.N.N.N.N.N.N.N.N.N.N.N.N.N.N.N.N.N.N.N.N.N.N.N.N.",
"N.N.N.N.N.N.N.N.N.N.N.N.N.N.N.N.N.N.N.N.N.N.N.N.N.N.N.N.N.N.N.N.N.N.N.N.N.N.N.N.N.N.N.N.N.N.N.N.N.N.N.N.N.N.N.N.N.N.N.N.N.N.N.N.",
"N.N.N.N.N.N.N.N.N.N.N.N.N.N.N.N.N.N.N.N.N.N.N.N.N.N.N.N.N.N.N.N.N.N.N.N.N.N.N.N.N.N.N.N.N.N.N.N.N.N.N.N.N.N.N.N.N.N.N.N.N.N.N.N."
};
