/* XPM */
static char *result[] = {
/* columns rows colors chars-per-pixel */
"64 64 155 2 ",
"   c #02030C",
".  c #0F0717",
"X  c #070810",
"o  c #0B0C14",
"O  c #0E0F18",
"+  c #130410",
"@  c #130A15",
"#  c #190F1C",
"$  c #0F1019",
"%  c #11121B",
"&  c #1E151E",
"*  c #240C1D",
"=  c #2B0E1B",
"-  c #2D101D",
";  c #24131C",
":  c #32131F",
">  c #1F0D22",
",  c #1C1D25",
"<  c #210E22",
"1  c #251124",
"2  c #2C1322",
"3  c #261429",
"4  c #28162A",
"5  c #2B1A2E",
"6  c #311522",
"7  c #361925",
"8  c #3A1B26",
"9  c #331C2C",
"0  c #3A1E2B",
"q  c #2E1D30",
"w  c #3C212D",
"e  c #282930",
"r  c #3F2531",
"t  c #362538",
"y  c #37383F",
"u  c #451F27",
"i  c #411F29",
"p  c #45222B",
"a  c #4C272E",
"s  c #4E282F",
"d  c #50292F",
"f  c #4E2A31",
"g  c #482F3B",
"h  c #422935",
"j  c #532C31",
"k  c #592F33",
"l  c #563132",
"z  c #5C3234",
"x  c #553239",
"c  c #58363C",
"v  c #623536",
"b  c #653937",
"n  c #673938",
"m  c #6C3C3A",
"M  c #703F3B",
"N  c #6D4138",
"B  c #75423D",
"V  c #7B463F",
"C  c #3F3042",
"Z  c #403042",
"A  c #5B3A40",
"S  c #4E3F50",
"D  c #603F46",
"F  c #4A4B51",
"G  c #7D4740",
"H  c #7E4840",
"J  c #6B4D53",
"K  c #614C56",
"L  c #76595F",
"P  c #5F5261",
"I  c #5F5F65",
"U  c #655968",
"Y  c #715E67",
"T  c #785C61",
"R  c #736773",
"E  c #756B78",
"W  c #75757A",
"Q  c #834E43",
"!  c #8B5546",
"~  c #8C5947",
"^  c #8F5E49",
"/  c #865144",
"(  c #925D4A",
")  c #95604B",
"_  c #9A644C",
"`  c #9E694F",
"'  c #9F6C50",
"]  c #906158",
"[  c #A26C4F",
"{  c #A26C51",
"}  c #A67153",
"|  c #AB7555",
" . c #AE7856",
".. c #AB7658",
"X. c #AF7B59",
"o. c #B07A57",
"O. c #B07C5B",
"+. c #846A6F",
"@. c #816D74",
"#. c #82727A",
"$. c #88787F",
"%. c #8B7479",
"&. c #B38161",
"*. c #B78769",
"=. c #B7886A",
"-. c #BB8E72",
";. c #BD9176",
":. c #C2987E",
">. c #7D7D82",
",. c #847B86",
"<. c #85868A",
"1. c #998286",
"2. c #95868D",
"3. c #968C94",
"4. c #A29397",
"5. c #A99DA3",
"6. c #AEA5AB",
"7. c #A3A3A6",
"8. c #B6ADB1",
"9. c #B7B7BA",
"0. c #BEB5B9",
"q. c #BBB2B6",
"w. c #C59D84",
"e. c #CCA78F",
"r. c #C0B3B6",
"t. c #C2B6B8",
"y. c #C3B9BC",
"u. c #C2BBC0",
"i. c #CABEC1",
"p. c #CAC2C5",
"a. c #CDC7CA",
"s. c #CCCDCE",
"d. c #D3CCCE",
"f. c #D2CFD3",
"g. c #D3D1D3",
"h. c #DAD3D5",
"j. c #DDD7D9",
"k. c #DADBDC",
"l. c #EADDD5",
"z. c #E1DDDF",
"x. c #EDE2DA",
"c. c #E4DFE0",
"v. c #E5E3E4",
"b. c #EEECEC",
"n. c #F2E9E3",
"m. c #F0ECED",
"M. c #F7F1EF",
"N. c #EFEFF0",
"B. c #F0EEF0",
"V. c #F3F2F3",
"C. c #FAF7F6",
"Z. c #FBF9F7",
"A. c #F7F7F8",
"S. c #F8F7F8",
"D. c #FFFFFF",
/* pixels */
"D.D.D.D.D.D.D.D.D.D.D.D.D.D.D.D.D.D.D.D.D.D.D.D.D.D.D.D.D.D.D.D.D.D.D.D.D.D.D.D.D.D.D.D.D.D.D.D.D.D.D.D.D.D.D.D.D.D.D.D.D.D.D.D.",
"D.D.D.D.D.D.D.D.D.D.D.D.D.D.D.D.D.D.D.D.D.D.D.D.D.D.D.D.D.D.D.D.D.D.D.D.D.D.D.D.D.D.D.D.D.D.D.D.D.D.D.D.D.D.D.D.D.D.D.D.D.D.D.D.",
"D.D.D.D.D.D.D.D.D.D.D.D.D.D.D.D.D.D.D.D.D.D.D.D.D.D.D.D.D.D.D.D.D.D.D.D.D.D.D.D.D.D.D.D.D.D.D.D.D.D.D.D.D.D.D.D.D.D.D.D.D.D.D.D.",
"D.D.D.D.D.D.D.D.D.D.D.D.D.D.D.D.D.D.D.D.D.D.D.D.D.D.D.D.D.D.D.D.D.D.D.D.D.D.D.D.D.D.D.D.D.D.D.D.D.D.D.D.D.D.D.D.D.D.D.D.D.D.D.D.",
"D.D.D.D.D.D.D.D.D.D.D.D.D.D.D.D.D.D.D.D.D.D.D.D.D.D.D.D.D.D.D.D.D.D.D.D.D.D.D.D.D.D.D.D.D.D.D.D.D.D.D.D.D.D.D.D.D.D.D.D.D.D.D.D.",
"D.D.D.D.D.D.D.D.D.D.D.D.D.D.D.D.D.D.D.D.D.D.D.D.D.D.D.D.D.D.D.D.D.D.D.D.D.D.D.D.D.D.D.D.D.D.D.D.D.D.D.D.D.D.D.D.D.D.D.D.D.D.D.D.",
"D.D.D.D.D.D.D.D.D.D.D.D.D.D.D.D.D.D.D.D.D.D.D.D.D.D.D.D.D.D.D.D.D.D.D.D.D.D.D.D.D.D.D.D.D.D.D.D.D.D.D.D.D.D.D.D.D.D.D.D.D.D.D.D.",
"D.D.D.D.D.D.D.D.D.D.D.D.D.D.D.D.D.D.D.D.D.D.D.D.D.D.D.D.D.D.D.D.D.D.D.D.D.D.D.D.D.D.D.D.D.D.D.D.D.D.D.D.D.D.D.D.D.D.D.D.D.D.D.D.",
"D.D.D.D.D.D.D.D.D.D.D.D.D.D.D.D.D.D.D.D.D.D.D.D.D.D.D.D.D.D.D.D.D.D.D.D.D.D.D.D.D.D.D.D.D.D.D.D.D.D.D.D.D.D.D.D.D.D.D.D.D.D.D.D.",
"D.D.D.D.D.D.D.D.D.D.D.D.D.D.D.D.D.D.D.D.D.D.D.D.D.D.D.D.D.D.D.D.D.D.D.D.D.D.D.D.D.D.D.D.D.D.D.D.D.D.D.D.D.D.D.D.D.D.D.D.D.D.D.D.",
"D.D.D.D.D.D.D.D.D.D.D.D.D.D.D.D.D.D.D.D.D.D.D.D.D.D.D.D.D.D.D.D.D.D.D.D.D.D.D.D.D.D.D.D.D.D.D.D.D.D.D.D.D.D.D.D.D.D.D.D.D.D.D.D.",
"D.D.D.D.D.D.D.D.D.D.D.D.D.D.D.D.D.D.D.D.D.D.D.D.D.D.D.D.D.D.D.D.D.D.D.D.D.D.D.D.D.D.D.D.D.D.D.D.D.D.D.D.D.D.D.D.D.D.D.D.D.D.D.D.",
"D.D.D.D.D.D.D.D.D.D.D.D.D.D.D.D.D.D.D.D.D.D.D.D.D.D.D.D.D.D.D.D.D.D.D.D.D.D.D.D.D.D.D.D.D.D.D.D.D.D.D.D.D.D.D.D.D.D.D.D.D.D.D.D.",
"D.D.D.D.D.D.D.D.D.D.D.D.D.D.D.D.D.D.D.D.D.D.D.D.D.D.D.D.D.D.D.D.D.D.D.D.D.D.D.D.D.D.D.D.D.D.D.D.D.D.D.D.D.D.D.D.D.D.D.D.D.D.D.D.",
"D.D.D.D.D.D.D.D.D.D.D.D.D.D.D.D.D.D.D.D.D.D.D.D.D.D.D.D.D.D.D.D.D.D.D.D.D.D.D.D.D.D.D.D.D.D.D.D.D.D.D.D.D.D.D.D.D.D.D.D.D.D.D.D.",
"D.D.D.D.D.D.D.D.D.D.D.D.D.D.D.D.D.D.D.D.D.D.D.D.D.D.D.D.D.D.D.D.D.D.D.D.D.D.D.D.D.D.D.D.D.D.D.D.D.D.D.D.D.D.D.D.D.D.D.D.D.D.D.D.",
"D.D.D.D.D.D.D.D.D.D.D.D.D.D.D.D.D.D.D.D.D.D.D.D.D.D.D.D.D.D.D.D.D.D.D.D.D.D.D.D.D.D.D.D.D.D.D.D.D.D.D.D.D.D.D.D.D.D.D.D.D.D.D.D.",
"D.D.D.D.D.D.D.D.D.D.D.D.D.y.r.r.r.r.r.r.r.r.y.D.D.D.D.D.D.D.D.D.D.D.D.D.D.D.D.D.D.D.D.D.D.D.D.D.D.D.D.D.D.D.D.D.D.D.D.D.D.D.D.D.",
"D.D.D.D.D.D.D.D.D.D.D.d.i.f u u u u p u p u j i.l.l.l.x.D.D.D.D.D.D.D.D.D.D.D.D.D.D.D.D.D.D.D.D.D.D.D.D.D.D.D.D.D.D.D.D.D.D.D.D.",
"D.D.D.D.D.D.D.D.D.D.h.j a s s s s s s s s a s s _ |  .X.x.n.n.n.n.D.D.D.D.D.D.D.D.D.D.D.n.n.n.n.n.n.n.n.n.n.D.D.D.D.D.D.D.D.D.D.",
"D.D.D.D.D.D.D.D.b.c.c a s d j d a a s a s s a a j } }  .o...o.o.&.m.M.M.M.D.D.D.D.D.M.n.&.| ..X.X.|  ...X.&.n.D.D.D.D.D.D.D.D.D.",
"D.D.D.D.D.D.D.b.D x s s s B B B j a a a a a a a j ' z } | Q | | | O.&.&.*.M.D.D.Z.M.=.&. .Q Q } } Q H Q |  .*.M.Z.D.D.D.D.D.D.D.",
"D.D.D.D.D.D.V.J s a s s s j V V M s s s s a s a s l a z H H | Q Q Q | o. .-.C.C.;.=. . . .} { z p ` Q { Q Q } ] -.C.D.D.D.D.D.D.",
"D.D.D.D.D.C.L a s s m B M M j k V M m a a a a a a a a a G G Q V [ } | o.o. .;.;. .|  . . . .| s 8 } H Q G G / {  .:.Z.D.D.D.D.D.",
"D.D.D.D.S.@.a a a a z z V V m M V G V m m s s a a s a s k k V [  .! ! ! ! | | | | o.| o.o.o.o.( p l V V Q V V ! ! ~ w.e.D.D.D.D.",
"D.D.D.D.S.j a a a a a a V V V V v z V V V s a s a a a a a s v ~ ~ V V V _  .o.o.o.o.o.| | ( | o.~ p B V p w p V V z N b @.1.D.D.",
"D.D.D.Z.4.j a a v a a a v V V v s v V V v s a a a a a s v v d B V V V H o.( ( ( | o.o.| ( ( | ( ) n V B f f j B v a p - + ; >.A.",
"D.D.D.S.j a a j v v z v v B V v v V V V z v z v s a a s m V v V V V V H ) V V ( | _ _ _ Q | | G B H V G G n n V s s i 6 @   # V.",
"D.D.Z.t.j f a a z G G G G G V G V V V V H G H V s s s a a B H V V V V V V V H [ | ~ G B G ` | ~ H V V V V l s n s p 6 6 - @ w V.",
"D.D.C.x a a a k G G G M M M G V V M M V V V M M s a s s k V V V V H V V V V V V | { G V V G { { H H V H V V s a a 6 6 2 6 < w V.",
"D.D.j.x a a f M B G M a j j V G B d j V V V d d a a a j B B V V V V V V V V V V { H V V V V V V G V V V B V j a a 6 6 6 2 < w V.",
"D.V.c s a a a f a a a j B V V B j j B V V V j B s s s M B d V V V V V H V V V V H V V V V V V V V V H B d B B s a 6 6 6 6 > w B.",
"D.m.j a a s a a s s d B V V V V B V G V G G G B d a a d j j V V H V H V V V V H V V V V V V H V V V V B s s s s 6 6 6 < < < h V.",
"V.J f a 6 6 a a a j M V G V V V V V V V V G B j a a a s M M V V V V V V V V V V V V V H V V V B k d B k s a 7 6 6 6 6 2 2 w h.D.",
"V.p a 8 6 a a s s M V V k V V V G z V G V V G M M s a s k k V V V V H V V V V V V H V V H V V V m d k 8 7 : - - - = - - 7 p.D.D.",
"V.r 8 6 i a s a d B B v m V V V z s B G B z z G k s a a s m V V V V V V V V H V V V V V V v B v k 8 : = 6 8.0.0.t.0.0.0.y.D.D.D.",
"V.7 2 7 s 8 0 s d k v s V V V v s n B G G v a k s a s a s B Q V V V V V V V V V V V V v B s l a 8 6 4.5.6.D.D.D.D.D.D.D.D.D.D.D.",
"A.2.2 6 8 6 6 s s s a s B G V v v V V V B G v v s a a v n V n B V V V V V H H V V n V v v s a u : 2.D.D.D.D.D.D.D.D.D.D.D.D.D.D.",
"D.D.#.6 2 6 6 a p u a z B G G G V V V H G G G m d a s B m v s V V H V V V V M V V d m B d s a %.$.D.D.D.D.D.D.D.D.D.D.D.D.D.D.D.",
"D.D.D.Y 6 6 8 p 6 8 k B G m G m m V M M G G m a a u d m s s l V V M V V V B s M B k s n a s +.D.D.D.D.D.D.D.D.D.D.D.D.D.D.D.D.D.",
"D.D.D.C.K 7 p 6 6 k G Q M d m d k B s s V M s a p 6 p p f s V M M s V V G B j s V B d s J T Z.D.D.D.D.D.D.D.D.D.D.D.D.D.D.D.D.D.",
"D.D.D.D.B.w 6 6 6 M M M s a s a V V s s M s a a 6 7 6 7 p s M s s k V M B G B j B B s J V.D.D.D.D.D.D.D.D.D.D.D.D.D.D.D.D.D.D.D.",
"D.D.D.D.V.g 6 6 6 a s s a a a d B V s a a a a a 7 2 6 2 7 a s a d M M k j B j a s s A b.D.D.D.D.D.D.D.D.D.D.D.D.D.D.D.D.D.D.D.D.",
"D.D.D.D.D.z.r 6 6 a a s a a a d B d s a 7 a a 7 7 7 7 6 6 6 6 7 a d s s a B f a a x v.D.D.D.D.D.D.D.D.D.D.D.D.D.D.D.D.D.D.D.D.D.",
"D.D.D.D.D.D.g.0 6 7 a a 7 a a 8 d s a 7 6 7 w d.j.j.d.0 : 2 6 2 : 8 a a a j a a @ & V.D.D.D.D.D.D.D.D.D.D.D.D.D.D.D.D.D.D.D.D.D.",
"D.D.D.D.D.Z.U 7 6 6 a 7 6 a a 6 8 6 : - = 7 y.D.D.D.D.a.p.p.p.y.0 : 7 a s a 2 @     F Z.D.D.D.D.D.D.D.D.D.D.D.D.D.D.D.D.D.D.D.D.",
"D.D.D.D.D.R 1 6 6 6 8 7 p s 8 = 6 6.8.8.8.q.D.D.D.D.D.D.D.D.D.S.0 2 6 a 2 *           I D.D.D.D.D.D.D.D.D.D.D.D.D.D.D.D.D.D.D.D.",
"D.D.D.S.,.# 6 6 6 6 = < 7 ; & 4.4.D.D.D.D.D.D.D.D.D.D.D.D.D.D.V.q 6 i a 4 3.<.o         W A.D.D.D.D.D.D.D.D.D.D.D.D.D.D.D.D.D.D.",
"D.D.D.S.3 < 6 2 * < #.# .   $ A.D.D.D.D.D.D.D.D.D.D.D.D.D.D.D.V.5 6 a a 3 Z.A.o         X A.D.D.D.D.D.D.D.D.D.D.D.D.D.D.D.D.D.D.",
"D.D.S.6.4 2 2 < U E N.%     $ N.D.D.D.D.D.D.D.D.D.D.D.D.D.D.D.S.q 2 a i R A.A.I         o 7.D.D.D.D.D.D.D.D.D.D.D.D.D.D.D.D.D.D.",
"D.D.V.4 > 2 3 P Z.D.V.o     % V.D.D.D.D.D.D.D.D.D.D.D.D.D.D.S.u.4 > 8 5 A.D.D.Z.F         X 9.D.D.D.D.D.D.D.D.D.D.D.D.D.D.D.D.D.",
"D.D.B.q > > 5 V.D.D.V.y     $ s.D.D.D.D.D.D.D.D.D.D.D.D.D.D.V.5 > > < F V.D.D.D.V.y         $ V.D.D.D.D.D.D.D.D.D.D.D.D.D.D.D.D.",
"D.D.V.5 > > C V.D.D.D.b.$     % k.D.D.D.D.D.D.D.D.D.D.D.D.D.V.5 > > C N.D.D.D.D.D.b.e ,     $ k.D.D.D.D.D.D.D.D.D.D.D.D.D.D.D.D.",
"D.D.V.t 5 t v.D.D.D.D.N.,       , V.D.D.D.D.D.D.D.D.D.D.D.D.V.5 > q v.D.D.D.D.D.D.D.N.z.$     , V.D.D.D.D.D.D.D.D.D.D.D.D.D.D.D.",
"D.D.D.v.c.v.D.D.D.D.D.D.k.$ X X % V.D.D.D.D.D.D.D.D.D.D.D.D.V.q < q B.D.D.D.D.D.D.D.D.V.% X   % V.D.D.D.D.D.D.D.D.D.D.D.D.D.D.D.",
"D.D.D.D.D.D.D.D.D.D.D.D.D.f.s.s.s.D.D.D.D.D.D.D.D.D.D.D.D.D.D.g.f.f.D.D.D.D.D.D.D.D.D.Z.g.s.s.g.Z.D.D.D.D.D.D.D.D.D.D.D.D.D.D.D.",
"D.D.D.D.D.D.D.D.D.D.D.D.D.D.D.D.D.D.D.D.D.D.D.D.D.D.D.D.D.D.D.D.D.D.D.D.D.D.D.D.D.D.D.D.D.D.D.D.D.D.D.D.D.D.D.D.D.D.D.D.D.D.D.D.",
"D.D.D.D.D.D.D.D.D.D.D.D.D.D.D.D.D.D.D.D.D.D.D.D.D.D.D.D.D.D.D.D.D.D.D.D.D.D.D.D.D.D.D.D.D.D.D.D.D.D.D.D.D.D.D.D.D.D.D.D.D.D.D.D.",
"D.D.D.D.D.D.D.D.D.D.D.D.D.D.D.D.D.D.D.D.D.D.D.D.D.D.D.D.D.D.D.D.D.D.D.D.D.D.D.D.D.D.D.D.D.D.D.D.D.D.D.D.D.D.D.D.D.D.D.D.D.D.D.D.",
"D.D.D.D.D.D.D.D.D.D.D.D.D.D.D.D.D.D.D.D.D.D.D.D.D.D.D.D.D.D.D.D.D.D.D.D.D.D.D.D.D.D.D.D.D.D.D.D.D.D.D.D.D.D.D.D.D.D.D.D.D.D.D.D.",
"D.D.D.D.D.D.D.D.D.D.D.D.D.D.D.D.D.D.D.D.D.D.D.D.D.D.D.D.D.D.D.D.D.D.D.D.D.D.D.D.D.D.D.D.D.D.D.D.D.D.D.D.D.D.D.D.D.D.D.D.D.D.D.D.",
"D.D.D.D.D.D.D.D.D.D.D.D.D.D.D.D.D.D.D.D.D.D.D.D.D.D.D.D.D.D.D.D.D.D.D.D.D.D.D.D.D.D.D.D.D.D.D.D.D.D.D.D.D.D.D.D.D.D.D.D.D.D.D.D.",
"D.D.D.D.D.D.D.D.D.D.D.D.D.D.D.D.D.D.D.D.D.D.D.D.D.D.D.D.D.D.D.D.D.D.D.D.D.D.D.D.D.D.D.D.D.D.D.D.D.D.D.D.D.D.D.D.D.D.D.D.D.D.D.D.",
"D.D.D.D.D.D.D.D.D.D.D.D.D.D.D.D.D.D.D.D.D.D.D.D.D.D.D.D.D.D.D.D.D.D.D.D.D.D.D.D.D.D.D.D.D.D.D.D.D.D.D.D.D.D.D.D.D.D.D.D.D.D.D.D."
};
